<?xml version='1.0' encoding='utf-8'?>
<svg xmlns="http://www.w3.org/2000/svg" version="1.1" width="249" height="249"><path d="M 104,59 L 103,60 L 102,60 L 102,61 L 101,62 L 101,63 L 101,64 L 101,65 L 101,66 L 101,67 L 101,68 L 101,69 L 101,70 L 101,71 L 101,72 L 101,73 L 101,74 L 101,75 L 101,76 L 101,77 L 101,78 L 101,79 L 101,80 L 101,81 L 101,82 L 101,83 L 101,84 L 101,85 L 101,86 L 101,87 L 101,88 L 101,89 L 101,90 L 101,91 L 102,92 L 102,93 L 103,94 L 104,94 L 105,94 L 106,94 L 107,94 L 108,94 L 109,94 L 110,94 L 111,94 L 112,94 L 113,94 L 114,94 L 115,94 L 116,94 L 117,94 L 118,95 L 118,96 L 118,97 L 118,98 L 118,99 L 118,100 L 118,101 L 118,102 L 118,103 L 118,104 L 118,105 L 118,106 L 118,107 L 118,108 L 118,109 L 118,110 L 118,111 L 118,112 L 118,113 L 118,114 L 118,115 L 117,116 L 117,117 L 117,118 L 116,119 L 115,120 L 114,120 L 113,120 L 112,120 L 111,120 L 110,120 L 109,120 L 108,120 L 107,120 L 106,120 L 105,120 L 104,120 L 103,120 L 102,120 L 101,120 L 100,120 L 99,120 L 98,120 L 97,120 L 96,120 L 95,120 L 94,120 L 93,120 L 92,120 L 91,120 L 90,120 L 89,120 L 88,120 L 87,120 L 86,120 L 85,120 L 84,120 L 83,120 L 82,120 L 81,120 L 80,120 L 79,120 L 78,120 L 77,120 L 76,120 L 75,120 L 74,120 L 73,120 L 72,120 L 71,120 L 70,120 L 69,120 L 68,120 L 67,120 L 66,120 L 65,121 L 64,121 L 63,122 L 62,122 L 61,123 L 60,124 L 59,125 L 59,126 L 58,127 L 57,128 L 57,129 L 57,130 L 56,131 L 56,132 L 56,133 L 56,134 L 55,135 L 55,136 L 55,137 L 55,138 L 55,139 L 55,140 L 55,141 L 54,142 L 53,142 L 52,142 L 51,142 L 50,142 L 49,142 L 48,142 L 47,142 L 46,142 L 45,142 L 44,142 L 43,142 L 42,142 L 41,142 L 40,143 L 39,144 L 39,145 L 39,146 L 39,147 L 39,148 L 39,149 L 39,150 L 39,151 L 39,152 L 39,153 L 39,154 L 39,155 L 39,156 L 39,157 L 39,158 L 39,159 L 39,160 L 39,161 L 39,162 L 39,163 L 39,164 L 39,165 L 39,166 L 39,167 L 39,168 L 39,169 L 39,170 L 39,171 L 39,172 L 39,173 L 39,174 L 39,175 L 40,176 L 41,176 L 42,177 L 43,177 L 44,177 L 45,177 L 46,177 L 47,177 L 48,177 L 49,177 L 50,177 L 51,177 L 52,177 L 53,177 L 54,177 L 55,177 L 56,177 L 57,177 L 58,177 L 59,177 L 60,177 L 61,177 L 62,177 L 63,177 L 64,177 L 65,177 L 66,177 L 67,177 L 68,177 L 69,177 L 70,177 L 71,177 L 72,177 L 73,177 L 74,177 L 75,177 L 76,177 L 77,177 L 78,177 L 79,177 L 80,177 L 81,177 L 82,177 L 83,176 L 84,175 L 84,174 L 84,173 L 84,172 L 84,171 L 84,170 L 84,169 L 84,168 L 84,167 L 84,166 L 84,165 L 84,164 L 84,163 L 84,162 L 84,161 L 84,160 L 84,159 L 84,158 L 84,157 L 84,156 L 84,155 L 84,154 L 84,153 L 84,152 L 84,151 L 84,150 L 84,149 L 84,148 L 84,147 L 84,146 L 84,145 L 84,144 L 83,143 L 82,142 L 81,142 L 80,142 L 79,142 L 78,142 L 77,142 L 76,142 L 75,142 L 74,142 L 73,142 L 72,142 L 71,142 L 70,142 L 69,142 L 68,142 L 67,141 L 67,140 L 68,139 L 68,138 L 68,137 L 68,136 L 68,135 L 69,134 L 70,133 L 71,133 L 72,133 L 73,133 L 74,133 L 75,133 L 76,133 L 77,133 L 78,133 L 79,133 L 80,133 L 81,133 L 82,133 L 83,133 L 84,133 L 85,133 L 86,133 L 87,133 L 88,133 L 89,133 L 90,133 L 91,133 L 92,133 L 93,133 L 94,133 L 95,133 L 96,133 L 97,133 L 98,133 L 99,133 L 100,133 L 101,133 L 102,133 L 103,133 L 104,133 L 105,133 L 106,133 L 107,133 L 108,133 L 109,133 L 110,133 L 111,133 L 112,133 L 113,133 L 114,133 L 115,133 L 116,133 L 117,133 L 118,134 L 118,135 L 118,136 L 118,137 L 118,138 L 118,139 L 118,140 L 118,141 L 117,142 L 116,142 L 115,142 L 114,142 L 113,142 L 112,142 L 111,142 L 110,142 L 109,142 L 108,142 L 107,142 L 106,142 L 105,142 L 104,142 L 103,142 L 102,143 L 101,144 L 101,145 L 101,146 L 101,147 L 101,148 L 101,149 L 101,150 L 101,151 L 101,152 L 101,153 L 101,154 L 101,155 L 101,156 L 101,157 L 101,158 L 101,159 L 101,160 L 101,161 L 101,162 L 101,163 L 101,164 L 101,165 L 101,166 L 101,167 L 101,168 L 101,169 L 101,170 L 101,171 L 101,172 L 101,173 L 101,174 L 102,175 L 102,176 L 103,176 L 104,177 L 105,177 L 106,177 L 107,177 L 108,177 L 109,177 L 110,177 L 111,177 L 112,177 L 113,177 L 114,177 L 115,177 L 116,177 L 117,177 L 118,177 L 119,177 L 120,177 L 121,177 L 122,177 L 123,177 L 124,177 L 125,177 L 126,177 L 127,177 L 128,177 L 129,177 L 130,177 L 131,177 L 132,177 L 133,177 L 134,177 L 135,177 L 136,177 L 137,177 L 138,177 L 139,177 L 140,177 L 141,177 L 142,177 L 143,177 L 144,177 L 145,176 L 146,175 L 147,174 L 147,173 L 147,172 L 147,171 L 147,170 L 147,169 L 147,168 L 147,167 L 147,166 L 147,165 L 147,164 L 147,163 L 147,162 L 147,161 L 147,160 L 147,159 L 147,158 L 147,157 L 147,156 L 147,155 L 147,154 L 147,153 L 147,152 L 147,151 L 147,150 L 147,149 L 147,148 L 147,147 L 147,146 L 147,145 L 146,144 L 146,143 L 145,142 L 144,142 L 143,142 L 142,142 L 141,142 L 140,142 L 139,142 L 138,142 L 137,142 L 136,142 L 135,142 L 134,142 L 133,142 L 132,142 L 131,142 L 130,141 L 130,140 L 130,139 L 130,138 L 130,137 L 130,136 L 130,135 L 130,134 L 131,133 L 132,133 L 133,133 L 134,133 L 135,133 L 136,133 L 137,133 L 138,133 L 139,133 L 140,133 L 141,133 L 142,133 L 143,133 L 144,133 L 145,133 L 146,133 L 147,133 L 148,133 L 149,133 L 150,133 L 151,133 L 152,133 L 153,133 L 154,133 L 155,133 L 156,133 L 157,133 L 158,133 L 159,133 L 160,133 L 161,133 L 162,133 L 163,133 L 164,133 L 165,133 L 166,133 L 167,133 L 168,133 L 169,133 L 170,133 L 171,133 L 172,133 L 173,133 L 174,133 L 175,133 L 176,133 L 177,133 L 178,133 L 179,134 L 180,135 L 180,136 L 180,137 L 181,138 L 181,139 L 181,140 L 181,141 L 180,142 L 179,142 L 178,142 L 177,142 L 176,142 L 175,142 L 174,142 L 173,142 L 172,142 L 171,142 L 170,142 L 169,142 L 168,142 L 167,142 L 166,142 L 165,142 L 164,143 L 164,144 L 163,145 L 163,146 L 163,147 L 163,148 L 163,149 L 163,150 L 163,151 L 163,152 L 163,153 L 163,154 L 163,155 L 163,156 L 163,157 L 163,158 L 163,159 L 163,160 L 163,161 L 163,162 L 163,163 L 163,164 L 163,165 L 163,166 L 163,167 L 163,168 L 163,169 L 163,170 L 163,171 L 163,172 L 163,173 L 163,174 L 164,175 L 165,176 L 166,177 L 167,177 L 168,177 L 169,177 L 170,177 L 171,177 L 172,177 L 173,177 L 174,177 L 175,177 L 176,177 L 177,177 L 178,177 L 179,177 L 180,177 L 181,177 L 182,177 L 183,177 L 184,177 L 185,177 L 186,177 L 187,177 L 188,177 L 189,177 L 190,177 L 191,177 L 192,177 L 193,177 L 194,177 L 195,177 L 196,177 L 197,177 L 198,177 L 199,177 L 200,177 L 201,177 L 202,177 L 203,177 L 204,177 L 205,177 L 206,177 L 207,176 L 208,176 L 208,175 L 209,174 L 209,173 L 209,172 L 209,171 L 209,170 L 209,169 L 209,168 L 209,167 L 209,166 L 209,165 L 209,164 L 209,163 L 209,162 L 209,161 L 209,160 L 209,159 L 209,158 L 209,157 L 209,156 L 209,155 L 209,154 L 209,153 L 209,152 L 209,151 L 209,150 L 209,149 L 209,148 L 209,147 L 209,146 L 209,145 L 209,144 L 208,143 L 207,142 L 206,142 L 205,142 L 204,142 L 203,142 L 202,142 L 201,142 L 200,142 L 199,142 L 198,142 L 197,142 L 196,142 L 195,142 L 194,142 L 193,141 L 193,140 L 193,139 L 193,138 L 193,137 L 193,136 L 193,135 L 193,134 L 192,133 L 192,132 L 192,131 L 192,130 L 191,129 L 191,128 L 190,127 L 190,126 L 189,125 L 188,124 L 187,123 L 186,122 L 185,121 L 184,121 L 183,121 L 182,120 L 181,120 L 180,120 L 179,120 L 178,120 L 177,120 L 176,120 L 175,120 L 174,120 L 173,120 L 172,120 L 171,120 L 170,120 L 169,120 L 168,120 L 167,120 L 166,120 L 165,120 L 164,120 L 163,120 L 162,120 L 161,120 L 160,120 L 159,120 L 158,120 L 157,120 L 156,120 L 155,120 L 154,120 L 153,120 L 152,120 L 151,120 L 150,120 L 149,120 L 148,120 L 147,120 L 146,120 L 145,120 L 144,120 L 143,120 L 142,120 L 141,120 L 140,120 L 139,120 L 138,120 L 137,120 L 136,120 L 135,120 L 134,120 L 133,120 L 132,119 L 131,118 L 131,117 L 131,116 L 131,115 L 131,114 L 130,113 L 130,112 L 130,111 L 130,110 L 130,109 L 130,108 L 130,107 L 130,106 L 130,105 L 130,104 L 130,103 L 130,102 L 130,101 L 130,100 L 130,99 L 130,98 L 130,97 L 130,96 L 130,95 L 131,94 L 132,94 L 133,94 L 134,94 L 135,94 L 136,94 L 137,94 L 138,94 L 139,94 L 140,94 L 141,94 L 142,94 L 143,94 L 144,94 L 145,93 L 146,93 L 146,92 L 147,91 L 147,90 L 147,89 L 147,88 L 147,87 L 147,86 L 147,85 L 147,84 L 147,83 L 147,82 L 147,81 L 147,80 L 147,79 L 147,78 L 147,77 L 147,76 L 147,75 L 147,74 L 147,73 L 147,72 L 147,71 L 147,70 L 147,69 L 147,68 L 147,67 L 147,66 L 147,65 L 147,64 L 147,63 L 147,62 L 146,61 L 146,60 L 145,60 L 144,59 L 143,59 L 142,59 L 141,59 L 140,59 L 139,59 L 138,59 L 137,59 L 136,59 L 135,59 L 134,59 L 133,59 L 132,59 L 131,59 L 130,59 L 129,59 L 128,59 L 127,59 L 126,59 L 125,59 L 124,59 L 123,59 L 122,59 L 121,59 L 120,59 L 119,59 L 118,59 L 117,59 L 116,59 L 115,59 L 114,59 L 113,59 L 112,59 L 111,59 L 110,59 L 109,59 L 108,59 L 107,59 L 106,59 L 105,59 Z" stroke="white" fill="white" /><path d="M 111,6 L 110,7 L 109,7 L 108,7 L 107,7 L 106,7 L 105,7 L 104,7 L 103,8 L 102,8 L 101,8 L 100,8 L 99,8 L 98,9 L 97,9 L 96,9 L 95,9 L 94,10 L 93,10 L 92,10 L 91,10 L 90,11 L 89,11 L 88,11 L 87,12 L 86,12 L 85,12 L 84,13 L 83,13 L 82,13 L 81,14 L 80,14 L 79,14 L 78,15 L 77,15 L 76,16 L 75,16 L 74,17 L 73,17 L 72,18 L 71,18 L 70,19 L 69,19 L 68,20 L 67,20 L 66,21 L 65,21 L 64,22 L 63,22 L 62,23 L 61,24 L 60,24 L 59,25 L 58,25 L 57,26 L 56,27 L 55,28 L 54,28 L 53,29 L 52,30 L 51,31 L 50,31 L 49,32 L 48,33 L 47,34 L 46,35 L 45,36 L 44,37 L 43,37 L 42,38 L 41,39 L 40,40 L 39,41 L 38,42 L 37,43 L 37,44 L 36,45 L 35,46 L 34,47 L 33,48 L 32,49 L 31,50 L 31,51 L 30,52 L 29,53 L 28,54 L 28,55 L 27,56 L 26,57 L 25,58 L 25,59 L 24,60 L 24,61 L 23,62 L 22,63 L 22,64 L 21,65 L 21,66 L 20,67 L 19,68 L 19,69 L 19,70 L 18,71 L 18,72 L 17,73 L 17,74 L 16,75 L 16,76 L 15,77 L 15,78 L 14,79 L 14,80 L 14,81 L 13,82 L 13,83 L 13,84 L 12,85 L 12,86 L 11,87 L 11,88 L 11,89 L 10,90 L 10,91 L 10,92 L 10,93 L 9,94 L 9,95 L 9,96 L 9,97 L 8,98 L 8,99 L 8,100 L 8,101 L 8,102 L 7,103 L 7,104 L 7,105 L 7,106 L 7,107 L 7,108 L 7,109 L 6,110 L 6,111 L 6,112 L 6,113 L 6,114 L 6,115 L 6,116 L 6,117 L 6,118 L 6,119 L 6,120 L 6,121 L 6,122 L 6,123 L 6,124 L 6,125 L 6,126 L 6,127 L 6,128 L 6,129 L 6,130 L 6,131 L 6,132 L 6,133 L 6,134 L 6,135 L 6,136 L 6,137 L 6,138 L 7,139 L 7,140 L 7,141 L 7,142 L 7,143 L 7,144 L 8,145 L 8,146 L 8,147 L 8,148 L 8,149 L 9,150 L 9,151 L 9,152 L 9,153 L 10,154 L 10,155 L 10,156 L 10,157 L 11,158 L 11,159 L 11,160 L 12,161 L 12,162 L 12,163 L 13,164 L 13,165 L 14,166 L 14,167 L 14,168 L 15,169 L 15,170 L 15,171 L 16,172 L 16,173 L 17,174 L 17,175 L 18,176 L 18,177 L 19,178 L 19,179 L 20,180 L 20,181 L 21,182 L 22,183 L 22,184 L 23,185 L 23,186 L 24,187 L 25,188 L 25,189 L 26,190 L 27,191 L 27,192 L 28,193 L 29,194 L 30,195 L 30,196 L 31,197 L 32,198 L 33,199 L 33,200 L 34,201 L 35,202 L 36,203 L 37,204 L 38,205 L 39,206 L 40,207 L 41,208 L 42,209 L 43,210 L 44,211 L 45,212 L 46,213 L 47,214 L 48,215 L 49,215 L 50,216 L 51,217 L 52,218 L 53,218 L 54,219 L 55,220 L 56,221 L 57,221 L 58,222 L 59,223 L 60,223 L 61,224 L 62,224 L 63,225 L 64,226 L 65,226 L 66,227 L 67,227 L 68,228 L 69,228 L 70,229 L 71,229 L 72,230 L 73,230 L 74,231 L 75,231 L 76,232 L 77,232 L 78,233 L 79,233 L 80,233 L 81,234 L 82,234 L 83,235 L 84,235 L 85,235 L 86,236 L 87,236 L 88,236 L 89,237 L 90,237 L 91,237 L 92,237 L 93,238 L 94,238 L 95,238 L 96,238 L 97,239 L 98,239 L 99,239 L 100,239 L 101,240 L 102,240 L 103,240 L 104,240 L 105,240 L 106,240 L 107,241 L 108,241 L 109,241 L 110,241 L 111,241 L 112,241 L 113,241 L 114,241 L 115,241 L 116,241 L 117,241 L 118,242 L 119,242 L 120,242 L 121,242 L 122,242 L 123,242 L 124,242 L 125,242 L 126,242 L 127,242 L 128,242 L 129,242 L 130,242 L 131,241 L 132,241 L 133,241 L 134,241 L 135,241 L 136,241 L 137,241 L 138,241 L 139,241 L 140,241 L 141,240 L 142,240 L 143,240 L 144,240 L 145,240 L 146,240 L 147,240 L 148,239 L 149,239 L 150,239 L 151,239 L 152,238 L 153,238 L 154,238 L 155,238 L 156,237 L 157,237 L 158,237 L 159,237 L 160,236 L 161,236 L 162,236 L 163,235 L 164,235 L 165,234 L 166,234 L 167,234 L 168,233 L 169,233 L 170,233 L 171,232 L 172,232 L 173,231 L 174,231 L 175,230 L 176,230 L 177,229 L 178,229 L 179,228 L 180,228 L 181,227 L 182,227 L 183,226 L 184,226 L 185,225 L 186,224 L 187,224 L 188,223 L 189,222 L 190,222 L 191,221 L 192,220 L 193,220 L 194,219 L 195,218 L 196,217 L 197,217 L 198,216 L 199,215 L 200,214 L 201,213 L 202,213 L 203,212 L 204,211 L 205,210 L 206,209 L 207,208 L 208,207 L 209,206 L 210,205 L 211,204 L 212,203 L 213,202 L 213,201 L 214,200 L 215,199 L 216,198 L 217,197 L 217,196 L 218,195 L 219,194 L 220,193 L 220,192 L 221,191 L 222,190 L 223,189 L 223,188 L 224,187 L 224,186 L 225,185 L 226,184 L 226,183 L 227,182 L 227,181 L 228,180 L 228,179 L 229,178 L 229,177 L 230,176 L 230,175 L 231,174 L 231,173 L 232,172 L 232,171 L 233,170 L 233,169 L 233,168 L 234,167 L 234,166 L 235,165 L 235,164 L 235,163 L 236,162 L 236,161 L 236,160 L 237,159 L 237,158 L 237,157 L 238,156 L 238,155 L 238,154 L 238,153 L 239,152 L 239,151 L 239,150 L 239,149 L 240,148 L 240,147 L 240,146 L 240,145 L 240,144 L 240,143 L 240,142 L 241,141 L 241,140 L 241,139 L 241,138 L 241,137 L 241,136 L 241,135 L 241,134 L 241,133 L 242,132 L 242,131 L 242,130 L 242,129 L 242,128 L 242,127 L 242,126 L 242,125 L 242,124 L 242,123 L 242,122 L 242,121 L 242,120 L 242,119 L 242,118 L 242,117 L 242,116 L 242,115 L 241,114 L 241,113 L 241,112 L 241,111 L 241,110 L 241,109 L 241,108 L 241,107 L 241,106 L 240,105 L 240,104 L 240,103 L 240,102 L 240,101 L 240,100 L 239,99 L 239,98 L 239,97 L 239,96 L 238,95 L 238,94 L 238,93 L 238,92 L 237,91 L 237,90 L 237,89 L 237,88 L 236,87 L 236,86 L 235,85 L 235,84 L 235,83 L 234,82 L 234,81 L 234,80 L 233,79 L 233,78 L 233,77 L 232,76 L 232,75 L 231,74 L 231,73 L 230,72 L 230,71 L 229,70 L 229,69 L 228,68 L 228,67 L 227,66 L 226,65 L 226,64 L 225,63 L 225,62 L 224,61 L 223,60 L 223,59 L 222,58 L 222,57 L 221,56 L 220,55 L 219,54 L 219,53 L 218,52 L 217,51 L 216,50 L 216,49 L 215,48 L 214,47 L 213,46 L 212,45 L 211,44 L 210,43 L 209,42 L 208,41 L 207,40 L 206,39 L 205,38 L 204,37 L 203,36 L 202,35 L 201,34 L 200,33 L 199,32 L 198,32 L 197,31 L 196,30 L 195,29 L 194,29 L 193,28 L 192,27 L 191,26 L 190,26 L 189,25 L 188,24 L 187,24 L 186,23 L 185,23 L 184,22 L 183,21 L 182,21 L 181,20 L 180,20 L 179,19 L 178,19 L 177,18 L 176,18 L 175,17 L 174,17 L 173,16 L 172,16 L 171,15 L 170,15 L 169,15 L 168,14 L 167,14 L 166,13 L 165,13 L 164,13 L 163,12 L 162,12 L 161,12 L 160,11 L 159,11 L 158,11 L 157,10 L 156,10 L 155,10 L 154,10 L 153,9 L 152,9 L 151,9 L 150,9 L 149,8 L 148,8 L 147,8 L 146,8 L 145,8 L 144,8 L 143,7 L 142,7 L 141,7 L 140,7 L 139,7 L 138,7 L 137,6 L 136,6 L 135,6 L 134,6 L 133,6 L 132,6 L 131,6 L 130,6 L 129,6 L 128,6 L 127,6 L 126,6 L 125,6 L 124,6 L 123,6 L 122,6 L 121,6 L 120,6 L 119,6 L 118,6 L 117,6 L 116,6 L 115,6 L 114,6 L 113,6 L 112,6 Z M 117,19 L 118,18 L 119,18 L 120,18 L 121,18 L 122,18 L 123,18 L 124,18 L 125,18 L 126,18 L 127,18 L 128,18 L 129,18 L 130,18 L 131,19 L 132,19 L 133,19 L 134,19 L 135,19 L 136,19 L 137,19 L 138,19 L 139,19 L 140,20 L 141,20 L 142,20 L 143,20 L 144,20 L 145,20 L 146,21 L 147,21 L 148,21 L 149,21 L 150,22 L 151,22 L 152,22 L 153,22 L 154,23 L 155,23 L 156,23 L 157,24 L 158,24 L 159,24 L 160,25 L 161,25 L 162,26 L 163,26 L 164,26 L 165,27 L 166,27 L 167,28 L 168,28 L 169,29 L 170,29 L 171,30 L 172,30 L 173,31 L 174,31 L 175,32 L 176,32 L 177,33 L 178,33 L 179,34 L 180,35 L 181,35 L 182,36 L 183,37 L 184,37 L 185,38 L 186,39 L 187,40 L 188,40 L 189,41 L 190,42 L 191,43 L 192,43 L 193,44 L 194,45 L 195,46 L 196,47 L 197,48 L 198,49 L 199,50 L 200,51 L 201,52 L 202,53 L 203,54 L 204,55 L 204,56 L 205,57 L 206,58 L 207,59 L 208,60 L 208,61 L 209,62 L 210,63 L 211,64 L 211,65 L 212,66 L 213,67 L 213,68 L 214,69 L 214,70 L 215,71 L 216,72 L 216,73 L 217,74 L 217,75 L 218,76 L 218,77 L 219,78 L 219,79 L 220,80 L 220,81 L 221,82 L 221,83 L 222,84 L 222,85 L 222,86 L 223,87 L 223,88 L 223,89 L 224,90 L 224,91 L 225,92 L 225,93 L 225,94 L 225,95 L 226,96 L 226,97 L 226,98 L 226,99 L 227,100 L 227,101 L 227,102 L 227,103 L 228,104 L 228,105 L 228,106 L 228,107 L 228,108 L 228,109 L 228,110 L 229,111 L 229,112 L 229,113 L 229,114 L 229,115 L 229,116 L 229,117 L 229,118 L 229,119 L 229,120 L 229,121 L 229,122 L 229,123 L 230,124 L 229,125 L 229,126 L 229,127 L 229,128 L 229,129 L 229,130 L 229,131 L 229,132 L 229,133 L 229,134 L 229,135 L 229,136 L 229,137 L 228,138 L 228,139 L 228,140 L 228,141 L 228,142 L 228,143 L 228,144 L 227,145 L 227,146 L 227,147 L 227,148 L 226,149 L 226,150 L 226,151 L 226,152 L 225,153 L 225,154 L 225,155 L 224,156 L 224,157 L 224,158 L 223,159 L 223,160 L 223,161 L 222,162 L 222,163 L 221,164 L 221,165 L 221,166 L 220,167 L 220,168 L 219,169 L 219,170 L 218,171 L 218,172 L 217,173 L 217,174 L 216,175 L 215,176 L 215,177 L 214,178 L 214,179 L 213,180 L 212,181 L 212,182 L 211,183 L 210,184 L 210,185 L 209,186 L 208,187 L 207,188 L 207,189 L 206,190 L 205,191 L 204,192 L 203,193 L 202,194 L 201,195 L 200,196 L 200,197 L 199,198 L 198,199 L 197,200 L 196,200 L 195,201 L 194,202 L 193,203 L 192,204 L 191,205 L 190,206 L 189,207 L 188,207 L 187,208 L 186,209 L 185,210 L 184,210 L 183,211 L 182,212 L 181,212 L 180,213 L 179,214 L 178,214 L 177,215 L 176,215 L 175,216 L 174,217 L 173,217 L 172,218 L 171,218 L 170,218 L 169,219 L 168,219 L 167,220 L 166,220 L 165,221 L 164,221 L 163,222 L 162,222 L 161,222 L 160,223 L 159,223 L 158,224 L 157,224 L 156,224 L 155,225 L 154,225 L 153,225 L 152,225 L 151,226 L 150,226 L 149,226 L 148,226 L 147,227 L 146,227 L 145,227 L 144,227 L 143,228 L 142,228 L 141,228 L 140,228 L 139,228 L 138,228 L 137,228 L 136,229 L 135,229 L 134,229 L 133,229 L 132,229 L 131,229 L 130,229 L 129,229 L 128,229 L 127,229 L 126,229 L 125,229 L 124,229 L 123,229 L 122,229 L 121,229 L 120,229 L 119,229 L 118,229 L 117,229 L 116,229 L 115,229 L 114,229 L 113,229 L 112,229 L 111,229 L 110,228 L 109,228 L 108,228 L 107,228 L 106,228 L 105,228 L 104,227 L 103,227 L 102,227 L 101,227 L 100,227 L 99,226 L 98,226 L 97,226 L 96,225 L 95,225 L 94,225 L 93,225 L 92,224 L 91,224 L 90,224 L 89,223 L 88,223 L 87,223 L 86,222 L 85,222 L 84,221 L 83,221 L 82,221 L 81,220 L 80,220 L 79,219 L 78,219 L 77,218 L 76,218 L 75,217 L 74,217 L 73,216 L 72,215 L 71,215 L 70,214 L 69,214 L 68,213 L 67,212 L 66,212 L 65,211 L 64,210 L 63,210 L 62,209 L 61,208 L 60,207 L 59,207 L 58,206 L 57,205 L 56,204 L 55,203 L 54,202 L 53,202 L 52,201 L 51,200 L 50,199 L 49,198 L 48,197 L 47,196 L 46,195 L 46,194 L 45,193 L 44,192 L 43,191 L 42,190 L 41,189 L 41,188 L 40,187 L 39,186 L 38,185 L 38,184 L 37,183 L 36,182 L 36,181 L 35,180 L 34,179 L 34,178 L 33,177 L 32,176 L 32,175 L 31,174 L 31,173 L 30,172 L 30,171 L 29,170 L 29,169 L 28,168 L 28,167 L 27,166 L 27,165 L 27,164 L 26,163 L 26,162 L 25,161 L 25,160 L 25,159 L 24,158 L 24,157 L 24,156 L 23,155 L 23,154 L 23,153 L 22,152 L 22,151 L 22,150 L 22,149 L 21,148 L 21,147 L 21,146 L 21,145 L 20,144 L 20,143 L 20,142 L 20,141 L 20,140 L 20,139 L 20,138 L 19,137 L 19,136 L 19,135 L 19,134 L 19,133 L 19,132 L 19,131 L 19,130 L 19,129 L 19,128 L 19,127 L 19,126 L 19,125 L 18,124 L 18,123 L 19,122 L 19,121 L 19,120 L 19,119 L 19,118 L 19,117 L 19,116 L 19,115 L 19,114 L 19,113 L 19,112 L 19,111 L 19,110 L 20,109 L 20,108 L 20,107 L 20,106 L 20,105 L 20,104 L 20,103 L 21,102 L 21,101 L 21,100 L 21,99 L 22,98 L 22,97 L 22,96 L 22,95 L 23,94 L 23,93 L 23,92 L 24,91 L 24,90 L 24,89 L 25,88 L 25,87 L 26,86 L 26,85 L 26,84 L 27,83 L 27,82 L 28,81 L 28,80 L 29,79 L 29,78 L 29,77 L 30,76 L 30,75 L 31,74 L 31,73 L 32,72 L 33,71 L 33,70 L 34,69 L 35,68 L 35,67 L 36,66 L 36,65 L 37,64 L 38,63 L 39,62 L 39,61 L 40,60 L 41,59 L 42,58 L 42,57 L 43,56 L 44,55 L 45,54 L 46,53 L 47,52 L 48,51 L 49,50 L 50,49 L 51,48 L 52,47 L 53,46 L 54,45 L 55,44 L 56,43 L 57,42 L 58,42 L 59,41 L 60,40 L 61,39 L 62,39 L 63,38 L 64,37 L 65,36 L 66,36 L 67,35 L 68,34 L 69,34 L 70,33 L 71,33 L 72,32 L 73,31 L 74,31 L 75,30 L 76,30 L 77,29 L 78,29 L 79,28 L 80,28 L 81,27 L 82,27 L 83,27 L 84,26 L 85,26 L 86,25 L 87,25 L 88,25 L 89,24 L 90,24 L 91,24 L 92,23 L 93,23 L 94,23 L 95,22 L 96,22 L 97,22 L 98,22 L 99,21 L 100,21 L 101,21 L 102,21 L 103,20 L 104,20 L 105,20 L 106,20 L 107,20 L 108,20 L 109,19 L 110,19 L 111,19 L 112,19 L 113,19 L 114,19 L 115,19 L 116,19 Z" stroke="white" fill="white" fill_rule="evenodd" /></svg>