<svg xmlns="http://www.w3.org/2000/svg" width="31" height="31" viewBox="0 0 31 31">
  <g id="组_5126" data-name="组 5126" transform="translate(0.5 0.5)">
    <path id="路径_1774" data-name="路径 1774" d="M1044.319,9487a.5.5,0,0,1,.232.057l15,7.859a.5.5,0,0,1,0,.886l-15,7.865a.5.5,0,0,1-.464,0l-15-7.865a.5.5,0,0,1,0-.886l15-7.859A.5.5,0,0,1,1044.319,9487Zm13.924,8.359-13.924-7.295-13.922,7.295,13.924,7.3Z" transform="translate(-1029.319 -9487.498)" fill="#fff"/>
    <path id="路径_1775" data-name="路径 1775" d="M1044.32,9517.547a.5.5,0,0,1-.232-.058l-15-7.863a.5.5,0,0,1,0-.885l4.744-2.488.465.885-3.9,2.046,13.924,7.3,13.922-7.3-3.9-2.041.464-.887,4.744,2.484a.5.5,0,0,1,0,.886l-15,7.863A.5.5,0,0,1,1044.32,9517.547Z" transform="translate(-1029.319 -9493.597)" fill="#fff"/>
    <path id="路径_1776" data-name="路径 1776" d="M1044.32,9527.145a.5.5,0,0,1-.232-.058l-15-7.862a.5.5,0,0,1,0-.885l4.744-2.487.464.885-3.9,2.045,13.924,7.3,13.922-7.3-3.9-2.041.464-.887,4.744,2.484a.5.5,0,0,1,0,.886l-15,7.862A.5.5,0,0,1,1044.32,9527.145Z" transform="translate(-1029.319 -9496.645)" fill="#fff"/>
  </g>
</svg>
