<?xml version='1.0' encoding='utf-8'?>
<svg xmlns="http://www.w3.org/2000/svg" version="1.1" width="249" height="249"><path d="M 84,142 L 84,143 L 83,144 L 82,145 L 82,146 L 81,147 L 81,148 L 80,149 L 79,150 L 79,151 L 78,152 L 78,153 L 77,154 L 76,155 L 76,156 L 75,157 L 75,158 L 74,159 L 73,160 L 73,161 L 72,162 L 72,163 L 71,164 L 70,165 L 70,166 L 69,167 L 68,168 L 68,169 L 67,170 L 67,171 L 66,172 L 65,173 L 65,174 L 64,175 L 64,176 L 63,177 L 62,178 L 62,179 L 61,180 L 61,181 L 60,182 L 59,183 L 59,184 L 58,185 L 58,186 L 57,187 L 56,188 L 56,189 L 55,190 L 55,191 L 54,192 L 53,193 L 53,194 L 52,195 L 53,195 L 54,195 L 55,195 L 56,195 L 57,195 L 58,195 L 59,195 L 60,195 L 61,195 L 62,195 L 63,195 L 64,195 L 65,195 L 66,195 L 67,195 L 68,195 L 69,195 L 70,195 L 71,195 L 72,195 L 73,195 L 74,195 L 75,195 L 76,195 L 77,195 L 78,195 L 79,195 L 80,195 L 81,195 L 82,195 L 83,195 L 84,195 L 85,195 L 86,195 L 87,195 L 88,195 L 89,195 L 90,195 L 91,195 L 92,195 L 93,195 L 94,195 L 95,195 L 96,195 L 97,195 L 98,195 L 99,195 L 100,195 L 101,195 L 102,195 L 103,195 L 104,195 L 105,195 L 106,195 L 107,195 L 108,195 L 109,195 L 110,195 L 111,195 L 112,195 L 113,195 L 114,195 L 115,195 L 116,195 L 117,195 L 118,195 L 119,195 L 120,195 L 121,195 L 122,195 L 123,195 L 124,195 L 125,195 L 126,195 L 127,195 L 128,195 L 129,195 L 130,195 L 131,195 L 132,195 L 133,195 L 134,195 L 135,195 L 136,195 L 137,195 L 138,195 L 139,195 L 140,195 L 141,195 L 142,195 L 143,195 L 144,195 L 145,195 L 146,195 L 147,195 L 148,195 L 149,195 L 150,195 L 151,195 L 152,195 L 153,195 L 154,195 L 155,195 L 156,195 L 157,195 L 158,195 L 159,195 L 160,195 L 161,195 L 162,195 L 163,195 L 164,195 L 165,195 L 166,195 L 167,195 L 168,195 L 169,195 L 170,195 L 171,195 L 172,195 L 173,195 L 174,195 L 175,195 L 176,195 L 177,195 L 178,195 L 179,195 L 180,195 L 181,195 L 182,195 L 183,195 L 184,195 L 185,195 L 186,195 L 187,195 L 188,195 L 189,195 L 190,195 L 191,195 L 192,195 L 193,195 L 194,195 L 195,195 L 195,194 L 194,193 L 194,192 L 193,191 L 192,190 L 192,189 L 191,188 L 191,187 L 190,186 L 189,185 L 189,184 L 188,183 L 188,182 L 187,181 L 186,180 L 186,179 L 185,178 L 185,177 L 184,176 L 183,175 L 183,174 L 182,173 L 182,172 L 181,171 L 180,170 L 180,169 L 179,168 L 179,167 L 178,166 L 177,165 L 177,164 L 176,163 L 176,162 L 175,161 L 174,160 L 174,159 L 173,158 L 173,157 L 172,156 L 171,155 L 171,154 L 170,153 L 170,152 L 169,151 L 168,150 L 168,149 L 167,148 L 167,147 L 166,146 L 165,145 L 165,144 L 164,143 L 164,142 L 163,142 L 162,143 L 161,144 L 160,145 L 159,146 L 159,147 L 158,148 L 157,149 L 156,150 L 155,151 L 154,152 L 153,153 L 152,154 L 151,155 L 150,156 L 149,157 L 148,158 L 147,159 L 146,160 L 145,161 L 144,162 L 143,163 L 142,164 L 141,165 L 140,166 L 139,167 L 138,168 L 137,169 L 136,170 L 135,170 L 134,171 L 133,172 L 132,173 L 131,173 L 130,174 L 129,174 L 128,175 L 127,175 L 126,176 L 125,176 L 124,176 L 123,176 L 122,176 L 121,176 L 120,176 L 119,176 L 118,175 L 117,175 L 116,174 L 115,174 L 114,173 L 113,172 L 112,171 L 111,171 L 110,170 L 109,169 L 108,168 L 107,167 L 106,166 L 105,165 L 104,164 L 103,163 L 102,162 L 101,161 L 101,160 L 100,159 L 99,158 L 98,157 L 97,156 L 96,155 L 95,154 L 94,153 L 93,152 L 93,151 L 92,150 L 91,149 L 90,148 L 89,147 L 88,146 L 87,145 L 86,144 L 85,143 L 85,142 Z" stroke="white" fill="white" /><path d="M 98,104 L 98,105 L 98,106 L 99,107 L 99,108 L 100,109 L 100,110 L 100,111 L 101,112 L 101,113 L 102,114 L 102,115 L 102,116 L 103,117 L 103,118 L 104,119 L 104,120 L 104,121 L 105,122 L 105,123 L 106,124 L 106,125 L 106,126 L 107,127 L 107,128 L 108,129 L 108,130 L 108,131 L 109,132 L 109,133 L 110,134 L 110,135 L 110,136 L 111,137 L 111,138 L 112,139 L 112,140 L 112,141 L 113,142 L 113,143 L 114,144 L 114,145 L 114,146 L 115,147 L 115,148 L 116,149 L 116,150 L 116,151 L 117,152 L 117,153 L 118,154 L 118,155 L 118,156 L 119,157 L 119,158 L 120,159 L 120,160 L 120,161 L 121,162 L 121,163 L 122,164 L 122,165 L 122,166 L 123,167 L 123,168 L 124,168 L 124,167 L 125,166 L 125,165 L 125,164 L 126,163 L 126,162 L 127,161 L 127,160 L 127,159 L 128,158 L 128,157 L 129,156 L 129,155 L 129,154 L 130,153 L 130,152 L 131,151 L 131,150 L 131,149 L 132,148 L 132,147 L 133,146 L 133,145 L 133,144 L 134,143 L 134,142 L 135,141 L 135,140 L 135,139 L 136,138 L 136,137 L 137,136 L 137,135 L 137,134 L 138,133 L 138,132 L 139,131 L 139,130 L 139,129 L 140,128 L 140,127 L 141,126 L 141,125 L 141,124 L 142,123 L 142,122 L 143,121 L 143,120 L 143,119 L 144,118 L 144,117 L 145,116 L 145,115 L 145,114 L 146,113 L 146,112 L 147,111 L 147,110 L 147,109 L 148,108 L 148,107 L 149,106 L 149,105 L 149,104 L 148,104 L 147,104 L 146,104 L 145,104 L 144,104 L 143,104 L 142,104 L 141,104 L 140,104 L 139,104 L 138,104 L 137,104 L 136,104 L 135,104 L 134,104 L 133,104 L 132,104 L 131,104 L 130,104 L 129,104 L 128,104 L 127,104 L 126,104 L 125,104 L 124,104 L 123,104 L 122,104 L 121,104 L 120,104 L 119,104 L 118,104 L 117,104 L 116,104 L 115,104 L 114,104 L 113,104 L 112,104 L 111,104 L 110,104 L 109,104 L 108,104 L 107,104 L 106,104 L 105,104 L 104,104 L 103,104 L 102,104 L 101,104 L 100,104 L 99,104 Z" stroke="white" fill="white" /><path d="M 62,50 L 62,51 L 62,52 L 62,53 L 62,54 L 62,55 L 62,56 L 62,57 L 62,58 L 62,59 L 63,59 L 64,59 L 65,59 L 66,59 L 67,59 L 68,59 L 69,59 L 70,59 L 71,59 L 72,59 L 73,59 L 74,59 L 75,59 L 76,59 L 77,59 L 78,59 L 79,59 L 80,59 L 81,59 L 82,59 L 83,59 L 84,59 L 85,59 L 86,59 L 87,59 L 88,59 L 89,59 L 90,59 L 91,59 L 92,59 L 93,59 L 94,59 L 95,59 L 96,59 L 97,59 L 98,59 L 99,59 L 100,59 L 101,59 L 102,59 L 103,59 L 104,59 L 105,59 L 106,59 L 107,59 L 108,59 L 109,59 L 110,59 L 111,59 L 112,59 L 113,59 L 114,59 L 115,59 L 116,59 L 117,59 L 118,59 L 119,59 L 120,59 L 121,59 L 122,59 L 123,59 L 124,59 L 125,59 L 126,59 L 127,59 L 128,59 L 129,59 L 130,59 L 131,59 L 132,59 L 133,59 L 134,59 L 135,59 L 136,59 L 137,59 L 138,59 L 139,59 L 140,59 L 141,59 L 142,59 L 143,59 L 144,59 L 145,59 L 146,59 L 147,59 L 148,59 L 149,59 L 150,59 L 151,59 L 152,59 L 153,59 L 154,59 L 155,59 L 156,59 L 157,59 L 158,59 L 159,59 L 160,59 L 161,59 L 162,59 L 163,59 L 164,59 L 165,60 L 166,60 L 167,60 L 168,60 L 169,61 L 170,61 L 171,62 L 172,63 L 173,64 L 174,65 L 174,66 L 175,67 L 175,68 L 175,69 L 176,70 L 176,71 L 176,72 L 176,73 L 176,74 L 175,75 L 175,76 L 175,77 L 174,78 L 173,79 L 173,80 L 172,81 L 171,82 L 170,82 L 169,83 L 168,84 L 167,84 L 166,84 L 165,84 L 164,84 L 163,85 L 162,85 L 161,85 L 160,85 L 159,85 L 158,85 L 157,85 L 156,85 L 155,85 L 154,85 L 153,85 L 152,85 L 151,85 L 150,85 L 149,85 L 148,85 L 147,85 L 146,85 L 145,85 L 144,85 L 143,85 L 142,85 L 141,85 L 140,85 L 139,85 L 138,85 L 137,85 L 136,85 L 135,85 L 134,85 L 133,85 L 132,85 L 131,85 L 130,85 L 129,85 L 128,85 L 127,85 L 126,85 L 125,85 L 124,85 L 123,85 L 122,85 L 121,85 L 120,85 L 119,85 L 118,85 L 117,85 L 116,85 L 115,85 L 114,85 L 113,85 L 112,85 L 111,85 L 110,85 L 109,85 L 108,85 L 107,85 L 106,85 L 105,85 L 104,85 L 103,85 L 102,85 L 101,85 L 100,85 L 99,85 L 98,85 L 97,85 L 96,85 L 95,85 L 94,85 L 93,85 L 92,85 L 91,85 L 90,85 L 89,85 L 88,85 L 87,85 L 86,85 L 85,85 L 84,85 L 83,85 L 82,85 L 81,85 L 80,85 L 79,85 L 78,85 L 77,85 L 76,84 L 76,83 L 76,82 L 76,81 L 76,80 L 76,79 L 76,78 L 76,77 L 75,78 L 74,78 L 73,79 L 72,80 L 71,81 L 70,82 L 69,83 L 68,84 L 67,85 L 66,86 L 65,87 L 64,88 L 63,89 L 63,90 L 64,91 L 65,92 L 66,93 L 67,94 L 68,95 L 69,96 L 70,97 L 71,98 L 72,99 L 73,100 L 74,101 L 75,102 L 76,103 L 76,102 L 76,101 L 76,100 L 76,99 L 76,98 L 76,97 L 76,96 L 76,95 L 77,94 L 78,94 L 79,94 L 80,94 L 81,94 L 82,94 L 83,94 L 84,94 L 85,94 L 86,94 L 87,94 L 88,94 L 89,94 L 90,94 L 91,94 L 92,94 L 93,94 L 94,94 L 95,94 L 96,94 L 97,94 L 98,94 L 99,94 L 100,94 L 101,94 L 102,94 L 103,94 L 104,94 L 105,94 L 106,94 L 107,94 L 108,94 L 109,94 L 110,94 L 111,94 L 112,94 L 113,94 L 114,94 L 115,94 L 116,94 L 117,94 L 118,94 L 119,94 L 120,94 L 121,94 L 122,94 L 123,94 L 124,94 L 125,94 L 126,94 L 127,94 L 128,94 L 129,94 L 130,94 L 131,94 L 132,94 L 133,94 L 134,94 L 135,94 L 136,94 L 137,94 L 138,94 L 139,94 L 140,94 L 141,94 L 142,94 L 143,94 L 144,94 L 145,94 L 146,94 L 147,94 L 148,94 L 149,94 L 150,94 L 151,94 L 152,94 L 153,94 L 154,94 L 155,94 L 156,94 L 157,94 L 158,94 L 159,94 L 160,94 L 161,94 L 162,94 L 163,94 L 164,94 L 165,94 L 166,94 L 167,94 L 168,94 L 169,94 L 170,94 L 171,93 L 172,93 L 173,93 L 174,92 L 175,91 L 176,91 L 177,90 L 178,89 L 179,89 L 180,88 L 180,87 L 181,86 L 182,85 L 183,84 L 183,83 L 184,82 L 184,81 L 184,80 L 185,79 L 185,78 L 185,77 L 186,76 L 186,75 L 186,74 L 186,73 L 186,72 L 186,71 L 186,70 L 186,69 L 186,68 L 185,67 L 185,66 L 185,65 L 185,64 L 184,63 L 184,62 L 183,61 L 183,60 L 182,59 L 181,58 L 181,57 L 180,56 L 179,55 L 178,54 L 177,54 L 176,53 L 175,52 L 174,52 L 173,51 L 172,51 L 171,51 L 170,50 L 169,50 L 168,50 L 167,50 L 166,50 L 165,50 L 164,50 L 163,50 L 162,50 L 161,50 L 160,50 L 159,50 L 158,50 L 157,50 L 156,50 L 155,50 L 154,50 L 153,50 L 152,50 L 151,50 L 150,50 L 149,50 L 148,50 L 147,50 L 146,50 L 145,50 L 144,50 L 143,50 L 142,50 L 141,50 L 140,50 L 139,50 L 138,50 L 137,50 L 136,50 L 135,50 L 134,50 L 133,50 L 132,50 L 131,50 L 130,50 L 129,50 L 128,50 L 127,50 L 126,50 L 125,50 L 124,50 L 123,50 L 122,50 L 121,50 L 120,50 L 119,50 L 118,50 L 117,50 L 116,50 L 115,50 L 114,50 L 113,50 L 112,50 L 111,50 L 110,50 L 109,50 L 108,50 L 107,50 L 106,50 L 105,50 L 104,50 L 103,50 L 102,50 L 101,50 L 100,50 L 99,50 L 98,50 L 97,50 L 96,50 L 95,50 L 94,50 L 93,50 L 92,50 L 91,50 L 90,50 L 89,50 L 88,50 L 87,50 L 86,50 L 85,50 L 84,50 L 83,50 L 82,50 L 81,50 L 80,50 L 79,50 L 78,50 L 77,50 L 76,50 L 75,50 L 74,50 L 73,50 L 72,50 L 71,50 L 70,50 L 69,50 L 68,50 L 67,50 L 66,50 L 65,50 L 64,50 L 63,50 Z" stroke="white" fill="white" /><path d="M 111,6 L 110,7 L 109,7 L 108,7 L 107,7 L 106,7 L 105,7 L 104,7 L 103,8 L 102,8 L 101,8 L 100,8 L 99,8 L 98,8 L 97,9 L 96,9 L 95,9 L 94,10 L 93,10 L 92,10 L 91,10 L 90,11 L 89,11 L 88,11 L 87,11 L 86,12 L 85,12 L 84,13 L 83,13 L 82,13 L 81,14 L 80,14 L 79,14 L 78,15 L 77,15 L 76,16 L 75,16 L 74,17 L 73,17 L 72,18 L 71,18 L 70,18 L 69,19 L 68,19 L 67,20 L 66,21 L 65,21 L 64,22 L 63,22 L 62,23 L 61,24 L 60,24 L 59,25 L 58,25 L 57,26 L 56,27 L 55,27 L 54,28 L 53,29 L 52,30 L 51,30 L 50,31 L 49,32 L 48,33 L 47,34 L 46,35 L 45,35 L 44,36 L 43,37 L 42,38 L 41,39 L 40,40 L 39,41 L 38,42 L 37,43 L 36,44 L 35,45 L 34,46 L 34,47 L 33,48 L 32,49 L 31,50 L 30,51 L 30,52 L 29,53 L 28,54 L 27,55 L 27,56 L 26,57 L 25,58 L 25,59 L 24,60 L 23,61 L 23,62 L 22,63 L 22,64 L 21,65 L 20,66 L 20,67 L 19,68 L 19,69 L 18,70 L 18,71 L 17,72 L 17,73 L 16,74 L 16,75 L 15,76 L 15,77 L 15,78 L 14,79 L 14,80 L 13,81 L 13,82 L 13,83 L 12,84 L 12,85 L 12,86 L 11,87 L 11,88 L 11,89 L 10,90 L 10,91 L 10,92 L 10,93 L 9,94 L 9,95 L 9,96 L 9,97 L 8,98 L 8,99 L 8,100 L 8,101 L 8,102 L 7,103 L 7,104 L 7,105 L 7,106 L 7,107 L 7,108 L 6,109 L 6,110 L 6,111 L 6,112 L 6,113 L 6,114 L 6,115 L 6,116 L 6,117 L 6,118 L 6,119 L 6,120 L 6,121 L 6,122 L 6,123 L 6,124 L 6,125 L 6,126 L 6,127 L 6,128 L 6,129 L 6,130 L 6,131 L 6,132 L 6,133 L 6,134 L 6,135 L 6,136 L 6,137 L 6,138 L 7,139 L 7,140 L 7,141 L 7,142 L 7,143 L 7,144 L 8,145 L 8,146 L 8,147 L 8,148 L 8,149 L 8,150 L 9,151 L 9,152 L 9,153 L 10,154 L 10,155 L 10,156 L 10,157 L 11,158 L 11,159 L 11,160 L 12,161 L 12,162 L 12,163 L 13,164 L 13,165 L 13,166 L 14,167 L 14,168 L 14,169 L 15,170 L 15,171 L 16,172 L 16,173 L 17,174 L 17,175 L 18,176 L 18,177 L 19,178 L 19,179 L 20,180 L 20,181 L 21,182 L 21,183 L 22,184 L 23,185 L 23,186 L 24,187 L 24,188 L 25,189 L 26,190 L 26,191 L 27,192 L 28,193 L 29,194 L 29,195 L 30,196 L 31,197 L 32,198 L 32,199 L 33,200 L 34,201 L 35,202 L 36,203 L 37,204 L 38,205 L 39,206 L 39,207 L 40,208 L 41,209 L 42,209 L 43,210 L 44,211 L 45,212 L 46,213 L 47,214 L 48,215 L 49,216 L 50,216 L 51,217 L 52,218 L 53,219 L 54,219 L 55,220 L 56,221 L 57,222 L 58,222 L 59,223 L 60,223 L 61,224 L 62,225 L 63,225 L 64,226 L 65,226 L 66,227 L 67,228 L 68,228 L 69,229 L 70,229 L 71,230 L 72,230 L 73,231 L 74,231 L 75,232 L 76,232 L 77,232 L 78,233 L 79,233 L 80,234 L 81,234 L 82,234 L 83,235 L 84,235 L 85,235 L 86,236 L 87,236 L 88,237 L 89,237 L 90,237 L 91,237 L 92,238 L 93,238 L 94,238 L 95,238 L 96,239 L 97,239 L 98,239 L 99,239 L 100,240 L 101,240 L 102,240 L 103,240 L 104,240 L 105,240 L 106,240 L 107,241 L 108,241 L 109,241 L 110,241 L 111,241 L 112,241 L 113,241 L 114,241 L 115,241 L 116,242 L 117,242 L 118,242 L 119,242 L 120,242 L 121,242 L 122,242 L 123,242 L 124,242 L 125,242 L 126,242 L 127,242 L 128,242 L 129,242 L 130,242 L 131,242 L 132,241 L 133,241 L 134,241 L 135,241 L 136,241 L 137,241 L 138,241 L 139,241 L 140,241 L 141,241 L 142,240 L 143,240 L 144,240 L 145,240 L 146,240 L 147,240 L 148,239 L 149,239 L 150,239 L 151,239 L 152,238 L 153,238 L 154,238 L 155,238 L 156,237 L 157,237 L 158,237 L 159,237 L 160,236 L 161,236 L 162,236 L 163,235 L 164,235 L 165,234 L 166,234 L 167,234 L 168,233 L 169,233 L 170,233 L 171,232 L 172,232 L 173,231 L 174,231 L 175,230 L 176,230 L 177,229 L 178,229 L 179,228 L 180,228 L 181,227 L 182,227 L 183,226 L 184,225 L 185,225 L 186,224 L 187,224 L 188,223 L 189,222 L 190,222 L 191,221 L 192,220 L 193,219 L 194,219 L 195,218 L 196,217 L 197,216 L 198,216 L 199,215 L 200,214 L 201,213 L 202,212 L 203,211 L 204,211 L 205,210 L 206,209 L 207,208 L 208,207 L 209,206 L 210,205 L 210,204 L 211,203 L 212,202 L 213,201 L 214,200 L 215,199 L 216,198 L 216,197 L 217,196 L 218,195 L 219,194 L 219,193 L 220,192 L 221,191 L 222,190 L 222,189 L 223,188 L 223,187 L 224,186 L 225,185 L 225,184 L 226,183 L 226,182 L 227,181 L 228,180 L 228,179 L 229,178 L 229,177 L 230,176 L 230,175 L 231,174 L 231,173 L 232,172 L 232,171 L 232,170 L 233,169 L 233,168 L 234,167 L 234,166 L 234,165 L 235,164 L 235,163 L 235,162 L 236,161 L 236,160 L 236,159 L 237,158 L 237,157 L 237,156 L 237,155 L 238,154 L 238,153 L 238,152 L 238,151 L 239,150 L 239,149 L 239,148 L 239,147 L 240,146 L 240,145 L 240,144 L 240,143 L 240,142 L 240,141 L 240,140 L 241,139 L 241,138 L 241,137 L 241,136 L 241,135 L 241,134 L 241,133 L 241,132 L 241,131 L 241,130 L 241,129 L 241,128 L 241,127 L 242,126 L 242,125 L 242,124 L 242,123 L 242,122 L 242,121 L 241,120 L 241,119 L 241,118 L 241,117 L 241,116 L 241,115 L 241,114 L 241,113 L 241,112 L 241,111 L 241,110 L 241,109 L 241,108 L 240,107 L 240,106 L 240,105 L 240,104 L 240,103 L 240,102 L 239,101 L 239,100 L 239,99 L 239,98 L 239,97 L 238,96 L 238,95 L 238,94 L 238,93 L 237,92 L 237,91 L 237,90 L 237,89 L 236,88 L 236,87 L 235,86 L 235,85 L 235,84 L 234,83 L 234,82 L 234,81 L 233,80 L 233,79 L 233,78 L 232,77 L 232,76 L 231,75 L 231,74 L 230,73 L 230,72 L 229,71 L 229,70 L 228,69 L 228,68 L 227,67 L 227,66 L 226,65 L 226,64 L 225,63 L 224,62 L 224,61 L 223,60 L 222,59 L 222,58 L 221,57 L 220,56 L 220,55 L 219,54 L 218,53 L 217,52 L 217,51 L 216,50 L 215,49 L 214,48 L 213,47 L 213,46 L 212,45 L 211,44 L 210,43 L 209,42 L 208,41 L 207,40 L 206,39 L 205,38 L 204,37 L 203,36 L 202,35 L 201,34 L 200,34 L 199,33 L 198,32 L 197,31 L 196,30 L 195,30 L 194,29 L 193,28 L 192,27 L 191,27 L 190,26 L 189,25 L 188,25 L 187,24 L 186,23 L 185,23 L 184,22 L 183,22 L 182,21 L 181,20 L 180,20 L 179,19 L 178,19 L 177,18 L 176,18 L 175,17 L 174,17 L 173,16 L 172,16 L 171,16 L 170,15 L 169,15 L 168,14 L 167,14 L 166,14 L 165,13 L 164,13 L 163,12 L 162,12 L 161,12 L 160,11 L 159,11 L 158,11 L 157,11 L 156,10 L 155,10 L 154,10 L 153,9 L 152,9 L 151,9 L 150,9 L 149,8 L 148,8 L 147,8 L 146,8 L 145,8 L 144,8 L 143,7 L 142,7 L 141,7 L 140,7 L 139,7 L 138,7 L 137,7 L 136,6 L 135,6 L 134,6 L 133,6 L 132,6 L 131,6 L 130,6 L 129,6 L 128,6 L 127,6 L 126,6 L 125,6 L 124,6 L 123,6 L 122,6 L 121,6 L 120,6 L 119,6 L 118,6 L 117,6 L 116,6 L 115,6 L 114,6 L 113,6 L 112,6 Z M 116,19 L 117,18 L 118,18 L 119,18 L 120,18 L 121,18 L 122,18 L 123,18 L 124,18 L 125,18 L 126,18 L 127,18 L 128,18 L 129,18 L 130,18 L 131,19 L 132,19 L 133,19 L 134,19 L 135,19 L 136,19 L 137,19 L 138,19 L 139,19 L 140,20 L 141,20 L 142,20 L 143,20 L 144,20 L 145,20 L 146,21 L 147,21 L 148,21 L 149,21 L 150,22 L 151,22 L 152,22 L 153,22 L 154,23 L 155,23 L 156,23 L 157,24 L 158,24 L 159,25 L 160,25 L 161,25 L 162,26 L 163,26 L 164,26 L 165,27 L 166,27 L 167,28 L 168,28 L 169,29 L 170,29 L 171,30 L 172,30 L 173,31 L 174,31 L 175,32 L 176,32 L 177,33 L 178,34 L 179,34 L 180,35 L 181,35 L 182,36 L 183,37 L 184,37 L 185,38 L 186,39 L 187,40 L 188,41 L 189,41 L 190,42 L 191,43 L 192,44 L 193,45 L 194,46 L 195,47 L 196,47 L 197,48 L 198,49 L 199,50 L 200,51 L 201,52 L 201,53 L 202,54 L 203,55 L 204,56 L 205,57 L 206,58 L 207,59 L 207,60 L 208,61 L 209,62 L 210,63 L 210,64 L 211,65 L 212,66 L 212,67 L 213,68 L 214,69 L 214,70 L 215,71 L 215,72 L 216,73 L 217,74 L 217,75 L 218,76 L 218,77 L 218,78 L 219,79 L 219,80 L 220,81 L 220,82 L 221,83 L 221,84 L 222,85 L 222,86 L 222,87 L 223,88 L 223,89 L 223,90 L 224,91 L 224,92 L 225,93 L 225,94 L 225,95 L 225,96 L 226,97 L 226,98 L 226,99 L 226,100 L 227,101 L 227,102 L 227,103 L 227,104 L 227,105 L 228,106 L 228,107 L 228,108 L 228,109 L 228,110 L 228,111 L 228,112 L 229,113 L 229,114 L 229,115 L 229,116 L 229,117 L 229,118 L 229,119 L 229,120 L 229,121 L 229,122 L 229,123 L 229,124 L 229,125 L 229,126 L 229,127 L 229,128 L 229,129 L 229,130 L 229,131 L 229,132 L 229,133 L 229,134 L 229,135 L 228,136 L 228,137 L 228,138 L 228,139 L 228,140 L 228,141 L 228,142 L 227,143 L 227,144 L 227,145 L 227,146 L 227,147 L 226,148 L 226,149 L 226,150 L 225,151 L 225,152 L 225,153 L 225,154 L 224,155 L 224,156 L 224,157 L 223,158 L 223,159 L 223,160 L 222,161 L 222,162 L 221,163 L 221,164 L 221,165 L 220,166 L 220,167 L 219,168 L 219,169 L 218,170 L 218,171 L 217,172 L 217,173 L 216,174 L 216,175 L 215,176 L 215,177 L 214,178 L 213,179 L 213,180 L 212,181 L 212,182 L 211,183 L 210,184 L 209,185 L 209,186 L 208,187 L 207,188 L 206,189 L 206,190 L 205,191 L 204,192 L 203,193 L 202,194 L 201,195 L 200,196 L 199,197 L 198,198 L 197,199 L 196,200 L 195,201 L 194,202 L 193,203 L 192,204 L 191,205 L 190,206 L 189,206 L 188,207 L 187,208 L 186,209 L 185,209 L 184,210 L 183,211 L 182,212 L 181,212 L 180,213 L 179,213 L 178,214 L 177,215 L 176,215 L 175,216 L 174,216 L 173,217 L 172,217 L 171,218 L 170,218 L 169,219 L 168,219 L 167,220 L 166,220 L 165,221 L 164,221 L 163,222 L 162,222 L 161,222 L 160,223 L 159,223 L 158,223 L 157,224 L 156,224 L 155,225 L 154,225 L 153,225 L 152,225 L 151,226 L 150,226 L 149,226 L 148,226 L 147,227 L 146,227 L 145,227 L 144,227 L 143,228 L 142,228 L 141,228 L 140,228 L 139,228 L 138,228 L 137,228 L 136,229 L 135,229 L 134,229 L 133,229 L 132,229 L 131,229 L 130,229 L 129,229 L 128,229 L 127,229 L 126,229 L 125,229 L 124,229 L 123,229 L 122,229 L 121,229 L 120,229 L 119,229 L 118,229 L 117,229 L 116,229 L 115,229 L 114,229 L 113,229 L 112,229 L 111,229 L 110,228 L 109,228 L 108,228 L 107,228 L 106,228 L 105,228 L 104,228 L 103,227 L 102,227 L 101,227 L 100,227 L 99,226 L 98,226 L 97,226 L 96,226 L 95,225 L 94,225 L 93,225 L 92,225 L 91,224 L 90,224 L 89,223 L 88,223 L 87,223 L 86,222 L 85,222 L 84,222 L 83,221 L 82,221 L 81,220 L 80,220 L 79,219 L 78,219 L 77,218 L 76,218 L 75,217 L 74,217 L 73,216 L 72,216 L 71,215 L 70,215 L 69,214 L 68,213 L 67,213 L 66,212 L 65,211 L 64,211 L 63,210 L 62,209 L 61,208 L 60,208 L 59,207 L 58,206 L 57,206 L 56,205 L 55,204 L 54,203 L 53,202 L 52,201 L 51,200 L 50,199 L 49,198 L 48,197 L 47,196 L 46,195 L 45,194 L 44,193 L 43,192 L 42,191 L 42,190 L 41,189 L 40,188 L 39,187 L 39,186 L 38,185 L 37,184 L 36,183 L 36,182 L 35,181 L 34,180 L 34,179 L 33,178 L 33,177 L 32,176 L 31,175 L 31,174 L 30,173 L 30,172 L 29,171 L 29,170 L 28,169 L 28,168 L 27,167 L 27,166 L 26,165 L 26,164 L 25,163 L 25,162 L 25,161 L 24,160 L 24,159 L 24,158 L 23,157 L 23,156 L 23,155 L 22,154 L 22,153 L 22,152 L 21,151 L 21,150 L 21,149 L 21,148 L 20,147 L 20,146 L 20,145 L 20,144 L 20,143 L 19,142 L 19,141 L 19,140 L 19,139 L 19,138 L 19,137 L 18,136 L 18,135 L 18,134 L 18,133 L 18,132 L 18,131 L 18,130 L 18,129 L 18,128 L 18,127 L 18,126 L 18,125 L 17,124 L 17,123 L 18,122 L 18,121 L 18,120 L 18,119 L 18,118 L 18,117 L 18,116 L 18,115 L 18,114 L 18,113 L 18,112 L 18,111 L 19,110 L 19,109 L 19,108 L 19,107 L 19,106 L 19,105 L 20,104 L 20,103 L 20,102 L 20,101 L 20,100 L 21,99 L 21,98 L 21,97 L 22,96 L 22,95 L 22,94 L 22,93 L 23,92 L 23,91 L 23,90 L 24,89 L 24,88 L 25,87 L 25,86 L 25,85 L 26,84 L 26,83 L 26,82 L 27,81 L 27,80 L 28,79 L 28,78 L 29,77 L 29,76 L 30,75 L 30,74 L 31,73 L 32,72 L 32,71 L 33,70 L 33,69 L 34,68 L 35,67 L 35,66 L 36,65 L 37,64 L 37,63 L 38,62 L 39,61 L 40,60 L 40,59 L 41,58 L 42,57 L 43,56 L 44,55 L 45,54 L 46,53 L 46,52 L 47,51 L 48,50 L 49,49 L 50,48 L 51,47 L 52,47 L 53,46 L 54,45 L 55,44 L 56,43 L 57,42 L 58,41 L 59,41 L 60,40 L 61,39 L 62,38 L 63,38 L 64,37 L 65,36 L 66,35 L 67,35 L 68,34 L 69,34 L 70,33 L 71,32 L 72,32 L 73,31 L 74,31 L 75,30 L 76,30 L 77,29 L 78,29 L 79,28 L 80,28 L 81,27 L 82,27 L 83,26 L 84,26 L 85,26 L 86,25 L 87,25 L 88,25 L 89,24 L 90,24 L 91,23 L 92,23 L 93,23 L 94,23 L 95,22 L 96,22 L 97,22 L 98,21 L 99,21 L 100,21 L 101,21 L 102,20 L 103,20 L 104,20 L 105,20 L 106,20 L 107,20 L 108,19 L 109,19 L 110,19 L 111,19 L 112,19 L 113,19 L 114,19 L 115,19 Z" stroke="white" fill="white" fill_rule="evenodd" /></svg>