<?xml version='1.0' encoding='utf-8'?>
<svg xmlns="http://www.w3.org/2000/svg" version="1.1" width="120" height="120"><path d="M 82,40 L 82,41 L 82,42 L 82,43 L 82,44 L 82,45 L 82,46 L 81,47 L 80,48 L 79,48 L 78,49 L 77,50 L 76,50 L 75,51 L 74,52 L 73,53 L 72,53 L 71,54 L 70,55 L 69,55 L 68,56 L 67,57 L 66,58 L 65,57 L 64,56 L 63,55 L 62,54 L 61,53 L 60,52 L 60,51 L 59,50 L 58,49 L 57,48 L 56,47 L 55,46 L 54,45 L 53,44 L 53,43 L 52,43 L 51,43 L 50,43 L 49,44 L 48,45 L 47,46 L 46,46 L 45,47 L 44,48 L 43,48 L 42,49 L 41,50 L 40,51 L 39,51 L 38,52 L 37,53 L 36,53 L 35,54 L 34,55 L 33,56 L 32,56 L 31,57 L 30,58 L 29,58 L 28,59 L 27,60 L 26,60 L 26,61 L 27,62 L 28,63 L 29,64 L 29,65 L 30,65 L 31,65 L 32,64 L 33,63 L 34,62 L 35,62 L 36,61 L 37,60 L 38,60 L 39,59 L 40,58 L 41,57 L 42,57 L 43,56 L 44,55 L 45,55 L 46,54 L 47,53 L 48,53 L 49,52 L 50,51 L 51,51 L 52,52 L 53,53 L 54,54 L 55,55 L 56,56 L 56,57 L 57,58 L 58,59 L 59,60 L 60,61 L 61,62 L 62,63 L 63,64 L 63,65 L 64,66 L 65,66 L 66,65 L 67,64 L 68,64 L 69,63 L 70,62 L 71,62 L 72,61 L 73,60 L 74,60 L 75,59 L 76,58 L 77,57 L 78,57 L 79,56 L 80,55 L 81,55 L 82,54 L 83,53 L 84,52 L 85,52 L 86,51 L 87,51 L 88,52 L 89,52 L 90,52 L 91,52 L 92,52 L 93,52 L 93,51 L 93,50 L 93,49 L 93,48 L 93,47 L 93,46 L 93,45 L 93,44 L 93,43 L 93,42 L 93,41 L 92,41 L 91,41 L 90,41 L 89,41 L 88,40 L 87,40 L 86,40 L 85,40 L 84,40 L 83,40 Z" stroke="white" fill="white" /><path d="M 57,21 L 57,22 L 57,23 L 57,24 L 56,25 L 55,25 L 54,25 L 53,25 L 52,25 L 51,25 L 50,25 L 49,25 L 48,25 L 47,25 L 46,25 L 45,25 L 44,25 L 43,25 L 42,25 L 41,25 L 40,25 L 39,25 L 38,25 L 37,25 L 36,25 L 35,25 L 34,25 L 33,25 L 32,25 L 31,25 L 30,25 L 29,25 L 28,25 L 27,25 L 26,25 L 25,25 L 24,25 L 23,25 L 22,25 L 21,25 L 20,25 L 19,25 L 18,25 L 17,26 L 17,27 L 17,28 L 17,29 L 17,30 L 17,31 L 17,32 L 17,33 L 17,34 L 17,35 L 17,36 L 17,37 L 17,38 L 17,39 L 17,40 L 17,41 L 17,42 L 17,43 L 17,44 L 17,45 L 17,46 L 17,47 L 17,48 L 17,49 L 17,50 L 17,51 L 17,52 L 17,53 L 17,54 L 17,55 L 17,56 L 17,57 L 17,58 L 17,59 L 17,60 L 17,61 L 17,62 L 17,63 L 17,64 L 17,65 L 17,66 L 17,67 L 17,68 L 17,69 L 17,70 L 17,71 L 17,72 L 17,73 L 17,74 L 17,75 L 17,76 L 17,77 L 17,78 L 17,79 L 17,80 L 18,81 L 19,81 L 20,81 L 21,81 L 22,81 L 23,81 L 24,81 L 25,81 L 26,81 L 27,81 L 28,81 L 29,81 L 30,81 L 31,81 L 32,81 L 33,81 L 34,81 L 35,81 L 36,82 L 36,83 L 36,84 L 36,85 L 35,86 L 35,87 L 35,88 L 35,89 L 34,90 L 34,91 L 34,92 L 33,93 L 33,94 L 33,95 L 33,96 L 32,97 L 32,98 L 32,99 L 32,100 L 33,100 L 34,100 L 35,101 L 36,101 L 37,101 L 38,101 L 38,100 L 38,99 L 39,98 L 39,97 L 39,96 L 39,95 L 40,94 L 40,93 L 40,92 L 40,91 L 41,90 L 41,89 L 41,88 L 41,87 L 42,86 L 42,85 L 42,84 L 43,83 L 43,82 L 44,81 L 45,81 L 46,81 L 47,81 L 48,81 L 49,81 L 50,81 L 51,81 L 52,81 L 53,81 L 54,81 L 55,81 L 56,81 L 57,81 L 58,81 L 59,81 L 60,81 L 61,81 L 62,81 L 63,81 L 64,81 L 65,81 L 66,81 L 67,81 L 68,81 L 69,81 L 70,81 L 71,81 L 72,81 L 73,81 L 74,81 L 75,81 L 76,81 L 77,81 L 78,82 L 78,83 L 79,84 L 79,85 L 79,86 L 79,87 L 80,88 L 80,89 L 80,90 L 81,91 L 81,92 L 81,93 L 81,94 L 82,95 L 82,96 L 82,97 L 82,98 L 83,99 L 83,100 L 83,101 L 84,101 L 85,101 L 86,101 L 87,100 L 88,100 L 89,100 L 89,99 L 89,98 L 88,97 L 88,96 L 88,95 L 88,94 L 87,93 L 87,92 L 87,91 L 87,90 L 86,89 L 86,88 L 86,87 L 86,86 L 85,85 L 85,84 L 85,83 L 85,82 L 86,81 L 87,81 L 88,81 L 89,81 L 90,81 L 91,81 L 92,81 L 93,81 L 94,81 L 95,81 L 96,81 L 97,81 L 98,81 L 99,81 L 100,81 L 101,81 L 102,81 L 103,81 L 103,80 L 103,79 L 103,78 L 103,77 L 103,76 L 103,75 L 103,74 L 103,73 L 103,72 L 103,71 L 103,70 L 103,69 L 103,68 L 103,67 L 103,66 L 103,65 L 103,64 L 103,63 L 103,62 L 103,61 L 103,60 L 103,59 L 103,58 L 103,57 L 103,56 L 103,55 L 103,54 L 103,53 L 103,52 L 103,51 L 103,50 L 103,49 L 103,48 L 103,47 L 103,46 L 103,45 L 103,44 L 103,43 L 103,42 L 103,41 L 103,40 L 103,39 L 103,38 L 103,37 L 103,36 L 103,35 L 103,34 L 103,33 L 103,32 L 103,31 L 103,30 L 103,29 L 103,28 L 103,27 L 103,26 L 103,25 L 102,25 L 101,25 L 100,25 L 99,25 L 98,25 L 97,25 L 96,25 L 95,25 L 94,25 L 93,25 L 92,25 L 91,25 L 90,25 L 89,25 L 88,25 L 87,25 L 86,25 L 85,25 L 84,25 L 83,25 L 82,25 L 81,25 L 80,25 L 79,25 L 78,25 L 77,25 L 76,25 L 75,25 L 74,25 L 73,25 L 72,25 L 71,25 L 70,25 L 69,25 L 68,25 L 67,25 L 66,25 L 65,25 L 64,25 L 63,24 L 63,23 L 63,22 L 63,21 L 62,21 L 61,21 L 60,21 L 59,21 L 58,21 Z M 23,32 L 24,31 L 25,31 L 26,31 L 27,31 L 28,31 L 29,31 L 30,31 L 31,31 L 32,31 L 33,31 L 34,31 L 35,31 L 36,31 L 37,31 L 38,31 L 39,31 L 40,31 L 41,31 L 42,31 L 43,31 L 44,31 L 45,31 L 46,31 L 47,31 L 48,31 L 49,31 L 50,31 L 51,31 L 52,31 L 53,31 L 54,31 L 55,31 L 56,31 L 57,31 L 58,31 L 59,31 L 60,31 L 61,31 L 62,31 L 63,31 L 64,31 L 65,31 L 66,31 L 67,31 L 68,31 L 69,31 L 70,31 L 71,31 L 72,31 L 73,31 L 74,31 L 75,31 L 76,31 L 77,31 L 78,31 L 79,31 L 80,31 L 81,31 L 82,31 L 83,31 L 84,31 L 85,31 L 86,31 L 87,31 L 88,31 L 89,31 L 90,31 L 91,31 L 92,31 L 93,31 L 94,31 L 95,31 L 96,31 L 97,32 L 97,33 L 97,34 L 97,35 L 97,36 L 97,37 L 97,38 L 97,39 L 97,40 L 97,41 L 97,42 L 97,43 L 97,44 L 97,45 L 97,46 L 97,47 L 97,48 L 97,49 L 97,50 L 97,51 L 97,52 L 97,53 L 97,54 L 97,55 L 97,56 L 97,57 L 97,58 L 97,59 L 97,60 L 97,61 L 97,62 L 97,63 L 97,64 L 97,65 L 97,66 L 97,67 L 97,68 L 97,69 L 97,70 L 97,71 L 97,72 L 97,73 L 97,74 L 96,75 L 95,75 L 94,75 L 93,75 L 92,75 L 91,75 L 90,75 L 89,75 L 88,75 L 87,75 L 86,75 L 85,75 L 84,75 L 83,75 L 82,75 L 81,75 L 80,75 L 79,75 L 78,75 L 77,75 L 76,75 L 75,75 L 74,75 L 73,75 L 72,75 L 71,75 L 70,75 L 69,75 L 68,75 L 67,75 L 66,75 L 65,75 L 64,75 L 63,75 L 62,75 L 61,75 L 60,75 L 59,75 L 58,75 L 57,75 L 56,75 L 55,75 L 54,75 L 53,75 L 52,75 L 51,75 L 50,75 L 49,75 L 48,75 L 47,75 L 46,75 L 45,75 L 44,75 L 43,75 L 42,75 L 41,75 L 40,75 L 39,75 L 38,75 L 37,75 L 36,75 L 35,75 L 34,75 L 33,75 L 32,75 L 31,75 L 30,75 L 29,75 L 28,75 L 27,75 L 26,75 L 25,75 L 24,75 L 23,74 L 23,73 L 23,72 L 23,71 L 23,70 L 23,69 L 23,68 L 23,67 L 23,66 L 23,65 L 23,64 L 23,63 L 23,62 L 23,61 L 23,60 L 23,59 L 23,58 L 23,57 L 23,56 L 23,55 L 23,54 L 23,53 L 23,52 L 23,51 L 23,50 L 23,49 L 23,48 L 23,47 L 23,46 L 23,45 L 23,44 L 23,43 L 23,42 L 23,41 L 23,40 L 23,39 L 23,38 L 23,37 L 23,36 L 23,35 L 23,34 L 23,33 Z" stroke="white" fill="white" fill_rule="evenodd" /></svg>