<svg xmlns="http://www.w3.org/2000/svg" width="28.666" height="29.831" viewBox="0 0 28.666 29.831">
  <defs>
    <style>
      .cls-1 {
        fill: #fff;
      }
    </style>
  </defs>
  <g id="组_672" data-name="组 672" transform="translate(-302.63 -5014.783)">
    <path id="路径_2223" data-name="路径 2223" class="cls-1" d="M349.367,5078.871a.582.582,0,0,0-.583.582v3.21a4.895,4.895,0,0,1-4.6,4.918,4.786,4.786,0,0,1-4.955-4.776v-3.352a.583.583,0,0,0-1.165,0v3.352a5.952,5.952,0,0,0,5.362,5.916v3.642h-2.251a.583.583,0,0,0,0,1.166h5.667a.583.583,0,0,0,0-1.166h-2.251v-3.645a6.084,6.084,0,0,0,5.362-6.056v-3.21A.582.582,0,0,0,349.367,5078.871Z" transform="translate(-27.042 -48.915)"/>
    <path id="路径_2224" data-name="路径 2224" class="cls-1" d="M330.387,5028.463v-.256a13.424,13.424,0,1,0-26.848,0v.256a2.973,2.973,0,0,0,2.066,5.113v.185a.534.534,0,0,0,.534.534h1.646a.534.534,0,0,0,.534-.534v-6.32a.534.534,0,0,0-.534-.534h-1.646a.534.534,0,0,0-.534.534v.186a2.973,2.973,0,0,0-.889.135,12.255,12.255,0,0,1,24.495,0,2.971,2.971,0,0,0-.889-.135v-.186a.534.534,0,0,0-.534-.534h-1.646a.534.534,0,0,0-.534.534v6.32a.534.534,0,0,0,.534.534h1.646a.534.534,0,0,0,.534-.534v-.185a2.973,2.973,0,0,0,2.066-5.113Z" transform="translate(0)"/>
    <path id="路径_2225" data-name="路径 2225" class="cls-1" d="M349.682,5060.837h-1.569v1.271h1.569a.583.583,0,0,1,0,1.166h-1.454a3.563,3.563,0,0,0,3.449,2.679h0a3.563,3.563,0,0,0,3.449-2.679h-1.454a.583.583,0,0,1,0-1.166h1.569v-1.271h-1.569a.583.583,0,0,1,0-1.166h1.569V5058.4h-1.569a.583.583,0,1,1,0-1.165h1.569v-1.271h-1.569a.583.583,0,0,1,0-1.166h1.454a3.56,3.56,0,0,0-6.9,0h1.454a.583.583,0,0,1,0,1.166h-1.569v1.271h1.569a.583.583,0,1,1,0,1.165h-1.569v1.272h1.569a.583.583,0,0,1,0,1.166Z" transform="translate(-34.715 -28.497)"/>
  </g>
</svg>
