<?xml version='1.0' encoding='utf-8'?>
<svg xmlns="http://www.w3.org/2000/svg" version="1.1" width="188" height="188"><path d="M 107,11 L 106,12 L 105,12 L 104,12 L 103,12 L 102,13 L 101,13 L 100,13 L 99,14 L 98,14 L 97,15 L 96,15 L 95,16 L 94,16 L 93,17 L 92,17 L 91,18 L 90,19 L 89,20 L 88,21 L 87,22 L 87,23 L 86,24 L 85,25 L 85,26 L 85,27 L 84,28 L 84,29 L 83,30 L 83,31 L 83,32 L 83,33 L 83,34 L 83,35 L 83,36 L 83,37 L 83,38 L 83,39 L 83,40 L 84,41 L 84,42 L 84,43 L 85,44 L 85,45 L 86,46 L 86,47 L 87,48 L 88,49 L 89,50 L 90,51 L 89,52 L 88,52 L 87,53 L 86,53 L 85,53 L 84,54 L 83,54 L 82,54 L 81,54 L 80,55 L 80,56 L 81,57 L 82,58 L 81,59 L 80,60 L 79,61 L 78,62 L 77,62 L 76,63 L 75,64 L 74,65 L 73,66 L 72,67 L 71,68 L 70,69 L 69,70 L 68,71 L 67,72 L 66,72 L 65,73 L 64,74 L 63,74 L 62,74 L 61,73 L 60,73 L 59,72 L 58,72 L 57,71 L 56,71 L 55,71 L 54,70 L 53,70 L 52,70 L 51,70 L 50,70 L 49,69 L 48,69 L 47,69 L 46,69 L 45,69 L 44,69 L 43,69 L 42,69 L 41,69 L 40,69 L 39,69 L 38,70 L 37,70 L 36,70 L 35,70 L 34,70 L 33,71 L 32,71 L 31,71 L 30,72 L 29,72 L 28,73 L 27,73 L 26,74 L 25,74 L 24,75 L 23,76 L 22,77 L 21,78 L 20,79 L 19,80 L 18,81 L 17,82 L 17,83 L 16,84 L 16,85 L 16,86 L 15,87 L 15,88 L 15,89 L 14,90 L 14,91 L 14,92 L 14,93 L 14,94 L 14,95 L 14,96 L 15,97 L 15,98 L 15,99 L 15,100 L 16,101 L 16,102 L 16,103 L 17,104 L 18,105 L 18,106 L 19,107 L 20,108 L 21,109 L 22,110 L 23,111 L 24,112 L 25,112 L 26,113 L 27,114 L 28,114 L 29,115 L 30,115 L 31,115 L 32,116 L 33,116 L 34,116 L 35,117 L 36,117 L 37,117 L 38,117 L 39,117 L 40,117 L 41,117 L 42,118 L 43,118 L 44,118 L 45,118 L 46,118 L 47,118 L 48,117 L 49,117 L 50,117 L 51,117 L 52,117 L 53,117 L 54,116 L 55,116 L 56,116 L 57,115 L 58,115 L 59,115 L 60,114 L 61,114 L 62,113 L 63,112 L 64,113 L 65,113 L 66,114 L 67,115 L 68,116 L 69,117 L 70,118 L 71,119 L 72,120 L 73,121 L 74,122 L 75,122 L 76,123 L 77,124 L 78,125 L 79,126 L 80,127 L 81,128 L 82,129 L 81,130 L 80,131 L 80,132 L 81,132 L 82,133 L 83,133 L 84,133 L 85,133 L 86,134 L 87,134 L 88,134 L 89,134 L 90,135 L 89,136 L 88,137 L 87,138 L 87,139 L 86,140 L 85,141 L 85,142 L 85,143 L 84,144 L 84,145 L 83,146 L 83,147 L 83,148 L 83,149 L 83,150 L 83,151 L 83,152 L 83,153 L 83,154 L 83,155 L 83,156 L 84,157 L 84,158 L 84,159 L 85,160 L 85,161 L 86,162 L 86,163 L 87,164 L 88,165 L 89,166 L 90,167 L 91,168 L 92,169 L 93,170 L 94,170 L 95,171 L 96,172 L 97,172 L 98,173 L 99,173 L 100,173 L 101,174 L 102,174 L 103,174 L 104,175 L 105,175 L 106,175 L 107,175 L 108,175 L 109,175 L 110,175 L 111,176 L 112,176 L 113,176 L 114,176 L 115,175 L 116,175 L 117,175 L 118,175 L 119,175 L 120,175 L 121,175 L 122,174 L 123,174 L 124,174 L 125,174 L 126,173 L 127,173 L 128,172 L 129,172 L 130,171 L 131,171 L 132,170 L 133,169 L 134,169 L 135,168 L 136,167 L 137,166 L 138,165 L 138,164 L 139,163 L 140,162 L 140,161 L 141,160 L 141,159 L 142,158 L 142,157 L 142,156 L 142,155 L 142,154 L 142,153 L 143,152 L 143,151 L 143,150 L 142,149 L 142,148 L 142,147 L 142,146 L 142,145 L 141,144 L 141,143 L 141,142 L 140,141 L 139,140 L 139,139 L 138,138 L 137,137 L 136,136 L 135,135 L 134,134 L 133,133 L 132,133 L 131,132 L 130,131 L 129,131 L 128,130 L 127,130 L 126,129 L 125,129 L 124,129 L 123,128 L 122,128 L 121,128 L 120,128 L 119,127 L 118,127 L 117,127 L 116,127 L 115,127 L 114,127 L 113,127 L 112,127 L 111,127 L 110,127 L 109,127 L 108,127 L 107,127 L 106,128 L 105,128 L 104,128 L 103,128 L 102,129 L 101,129 L 100,129 L 99,130 L 98,130 L 97,131 L 96,131 L 95,132 L 94,132 L 93,133 L 92,132 L 91,131 L 91,130 L 91,129 L 90,128 L 90,127 L 89,126 L 89,125 L 89,124 L 88,123 L 87,123 L 86,124 L 85,125 L 84,124 L 83,123 L 82,122 L 81,122 L 80,121 L 79,120 L 78,119 L 77,118 L 76,117 L 75,116 L 74,115 L 73,114 L 72,114 L 71,113 L 70,112 L 69,111 L 68,110 L 67,109 L 68,108 L 69,107 L 70,106 L 70,105 L 71,104 L 72,103 L 72,102 L 72,101 L 73,100 L 73,99 L 73,98 L 74,97 L 74,96 L 75,95 L 76,95 L 77,95 L 78,95 L 79,95 L 80,95 L 81,95 L 82,95 L 83,95 L 84,95 L 85,95 L 86,95 L 87,95 L 88,95 L 89,95 L 90,95 L 91,95 L 92,95 L 93,95 L 94,95 L 95,95 L 96,95 L 97,95 L 98,95 L 99,95 L 100,95 L 101,96 L 101,97 L 101,98 L 101,99 L 101,100 L 102,99 L 103,99 L 104,98 L 105,98 L 106,97 L 107,97 L 108,96 L 109,96 L 110,95 L 111,95 L 112,96 L 112,97 L 112,98 L 112,99 L 113,100 L 113,101 L 113,102 L 114,103 L 114,104 L 115,105 L 116,106 L 116,107 L 117,108 L 118,109 L 119,110 L 120,111 L 121,111 L 122,112 L 123,113 L 124,113 L 125,114 L 126,114 L 127,115 L 128,115 L 129,116 L 130,116 L 131,116 L 132,116 L 133,117 L 134,117 L 135,117 L 136,117 L 137,117 L 138,117 L 139,117 L 140,118 L 141,118 L 142,118 L 143,118 L 144,117 L 145,117 L 146,117 L 147,117 L 148,117 L 149,117 L 150,117 L 151,116 L 152,116 L 153,116 L 154,115 L 155,115 L 156,115 L 157,114 L 158,114 L 159,113 L 160,113 L 161,112 L 162,111 L 163,111 L 164,110 L 165,109 L 166,108 L 166,107 L 167,106 L 168,105 L 169,104 L 169,103 L 169,102 L 170,101 L 170,100 L 171,99 L 171,98 L 171,97 L 171,96 L 171,95 L 171,94 L 171,93 L 171,92 L 171,91 L 171,90 L 171,89 L 171,88 L 170,87 L 170,86 L 170,85 L 169,84 L 169,83 L 168,82 L 167,81 L 167,80 L 166,79 L 165,78 L 164,77 L 163,76 L 162,75 L 161,75 L 160,74 L 159,73 L 158,73 L 157,72 L 156,72 L 155,72 L 154,71 L 153,71 L 152,71 L 151,70 L 150,70 L 149,70 L 148,69 L 147,69 L 146,69 L 145,69 L 144,69 L 143,69 L 142,69 L 141,69 L 140,69 L 139,69 L 138,69 L 137,69 L 136,69 L 135,69 L 134,70 L 133,70 L 132,70 L 131,70 L 130,71 L 129,71 L 128,72 L 127,72 L 126,72 L 125,73 L 124,73 L 123,74 L 122,75 L 121,75 L 120,76 L 119,77 L 118,78 L 117,79 L 116,80 L 115,81 L 115,82 L 114,83 L 114,84 L 113,85 L 113,86 L 113,87 L 112,88 L 112,89 L 112,90 L 112,91 L 111,92 L 110,92 L 109,91 L 108,91 L 107,90 L 106,90 L 105,89 L 104,89 L 103,88 L 102,88 L 101,87 L 101,88 L 101,89 L 101,90 L 100,91 L 99,91 L 98,91 L 97,91 L 96,91 L 95,91 L 94,91 L 93,91 L 92,91 L 91,91 L 90,91 L 89,91 L 88,91 L 87,91 L 86,91 L 85,91 L 84,91 L 83,91 L 82,91 L 81,91 L 80,91 L 79,91 L 78,91 L 77,91 L 76,91 L 75,91 L 74,90 L 73,89 L 73,88 L 73,87 L 73,86 L 72,85 L 72,84 L 71,83 L 71,82 L 70,81 L 69,80 L 69,79 L 68,78 L 68,77 L 69,76 L 70,75 L 71,74 L 72,73 L 73,72 L 74,71 L 75,71 L 76,70 L 77,69 L 78,68 L 79,67 L 80,66 L 81,65 L 82,64 L 83,63 L 84,62 L 85,62 L 86,62 L 87,63 L 87,64 L 88,64 L 89,63 L 89,62 L 89,61 L 90,60 L 90,59 L 90,58 L 91,57 L 91,56 L 92,55 L 93,54 L 94,54 L 95,55 L 96,56 L 97,56 L 98,57 L 99,57 L 100,57 L 101,58 L 102,58 L 103,58 L 104,59 L 105,59 L 106,59 L 107,59 L 108,59 L 109,59 L 110,59 L 111,60 L 112,60 L 113,60 L 114,60 L 115,59 L 116,59 L 117,59 L 118,59 L 119,59 L 120,59 L 121,59 L 122,58 L 123,58 L 124,58 L 125,58 L 126,57 L 127,57 L 128,56 L 129,56 L 130,55 L 131,55 L 132,54 L 133,53 L 134,53 L 135,52 L 136,51 L 137,50 L 138,49 L 138,48 L 139,47 L 140,46 L 140,45 L 141,44 L 141,43 L 142,42 L 142,41 L 142,40 L 142,39 L 142,38 L 142,37 L 143,36 L 143,35 L 143,34 L 142,33 L 142,32 L 142,31 L 142,30 L 142,29 L 141,28 L 141,27 L 141,26 L 140,25 L 139,24 L 139,23 L 138,22 L 137,21 L 136,20 L 135,19 L 134,18 L 133,17 L 132,17 L 131,16 L 130,15 L 129,15 L 128,14 L 127,14 L 126,13 L 125,13 L 124,13 L 123,12 L 122,12 L 121,12 L 120,12 L 119,11 L 118,11 L 117,11 L 116,11 L 115,11 L 114,11 L 113,11 L 112,11 L 111,11 L 110,11 L 109,11 L 108,11 Z M 107,132 L 108,131 L 109,131 L 110,131 L 111,131 L 112,131 L 113,131 L 114,131 L 115,131 L 116,131 L 117,131 L 118,132 L 119,132 L 120,132 L 121,132 L 122,133 L 123,133 L 124,133 L 125,134 L 126,134 L 127,135 L 128,135 L 129,136 L 130,137 L 131,137 L 132,138 L 133,139 L 134,140 L 135,141 L 135,142 L 136,143 L 137,144 L 137,145 L 137,146 L 138,147 L 138,148 L 138,149 L 138,150 L 138,151 L 138,152 L 138,153 L 138,154 L 138,155 L 138,156 L 137,157 L 137,158 L 136,159 L 136,160 L 135,161 L 134,162 L 133,163 L 132,164 L 131,165 L 130,166 L 129,167 L 128,167 L 127,168 L 126,168 L 125,169 L 124,169 L 123,170 L 122,170 L 121,170 L 120,171 L 119,171 L 118,171 L 117,171 L 116,171 L 115,171 L 114,171 L 113,172 L 112,171 L 111,171 L 110,171 L 109,171 L 108,171 L 107,171 L 106,171 L 105,170 L 104,170 L 103,170 L 102,170 L 101,169 L 100,169 L 99,168 L 98,168 L 97,167 L 96,166 L 95,166 L 94,165 L 93,164 L 92,163 L 91,162 L 90,161 L 90,160 L 89,159 L 89,158 L 88,157 L 88,156 L 87,155 L 87,154 L 87,153 L 87,152 L 87,151 L 87,150 L 87,149 L 87,148 L 88,147 L 88,146 L 88,145 L 89,144 L 90,143 L 90,142 L 91,141 L 92,140 L 93,139 L 94,138 L 95,137 L 96,136 L 97,136 L 98,135 L 99,134 L 100,134 L 101,134 L 102,133 L 103,133 L 104,132 L 105,132 L 106,132 Z" stroke="white" fill="white" fill_rule="evenodd" /><path d="M 136,74 L 137,73 L 138,73 L 139,73 L 140,73 L 141,73 L 142,73 L 143,73 L 144,73 L 145,73 L 146,73 L 147,74 L 148,74 L 149,74 L 150,74 L 151,75 L 152,75 L 153,75 L 154,76 L 155,76 L 156,77 L 157,77 L 158,78 L 159,79 L 160,80 L 161,81 L 162,82 L 163,83 L 164,84 L 165,85 L 165,86 L 166,87 L 166,88 L 167,89 L 167,90 L 167,91 L 167,92 L 167,93 L 167,94 L 167,95 L 167,96 L 167,97 L 166,98 L 166,99 L 166,100 L 165,101 L 164,102 L 164,103 L 163,104 L 162,105 L 161,106 L 160,107 L 159,108 L 158,108 L 157,109 L 156,110 L 155,110 L 154,111 L 153,111 L 152,112 L 151,112 L 150,112 L 149,112 L 148,113 L 147,113 L 146,113 L 145,113 L 144,113 L 143,113 L 142,113 L 141,113 L 140,113 L 139,113 L 138,113 L 137,113 L 136,113 L 135,113 L 134,112 L 133,112 L 132,112 L 131,112 L 130,111 L 129,111 L 128,110 L 127,110 L 126,109 L 125,108 L 124,108 L 123,107 L 122,106 L 121,105 L 120,104 L 119,103 L 119,102 L 118,101 L 117,100 L 117,99 L 117,98 L 116,97 L 116,96 L 116,95 L 116,94 L 116,93 L 116,92 L 116,91 L 116,90 L 116,89 L 117,88 L 117,87 L 118,86 L 118,85 L 119,84 L 120,83 L 121,82 L 122,81 L 123,80 L 124,79 L 125,78 L 126,77 L 127,77 L 128,76 L 129,76 L 130,75 L 131,75 L 132,75 L 133,74 L 134,74 L 135,74 Z" stroke="white" fill="white" /><path d="M 39,74 L 40,73 L 41,73 L 42,73 L 43,73 L 44,73 L 45,73 L 46,73 L 47,73 L 48,73 L 49,74 L 50,74 L 51,74 L 52,74 L 53,75 L 54,75 L 55,75 L 56,76 L 57,76 L 58,77 L 59,77 L 60,78 L 61,79 L 62,79 L 63,80 L 64,81 L 65,82 L 66,83 L 67,84 L 67,85 L 68,86 L 68,87 L 69,88 L 69,89 L 69,90 L 70,91 L 70,92 L 70,93 L 70,94 L 70,95 L 69,96 L 69,97 L 69,98 L 69,99 L 68,100 L 68,101 L 67,102 L 66,103 L 66,104 L 65,105 L 64,106 L 63,107 L 62,108 L 61,108 L 60,109 L 59,110 L 58,110 L 57,111 L 56,111 L 55,111 L 54,112 L 53,112 L 52,112 L 51,113 L 50,113 L 49,113 L 48,113 L 47,113 L 46,113 L 45,114 L 44,114 L 43,114 L 42,113 L 41,113 L 40,113 L 39,113 L 38,113 L 37,113 L 36,112 L 35,112 L 34,112 L 33,111 L 32,111 L 31,111 L 30,110 L 29,110 L 28,109 L 27,108 L 26,108 L 25,107 L 24,106 L 23,105 L 22,104 L 22,103 L 21,102 L 20,101 L 20,100 L 19,99 L 19,98 L 19,97 L 19,96 L 18,95 L 18,94 L 18,93 L 18,92 L 19,91 L 19,90 L 19,89 L 19,88 L 20,87 L 20,86 L 21,85 L 22,84 L 22,83 L 23,82 L 24,81 L 25,80 L 26,79 L 27,79 L 28,78 L 29,77 L 30,77 L 31,76 L 32,76 L 33,75 L 34,75 L 35,75 L 36,74 L 37,74 L 38,74 Z" stroke="white" fill="white" /><path d="M 107,16 L 108,15 L 109,15 L 110,15 L 111,15 L 112,15 L 113,15 L 114,15 L 115,15 L 116,15 L 117,15 L 118,16 L 119,16 L 120,16 L 121,16 L 122,17 L 123,17 L 124,17 L 125,18 L 126,18 L 127,19 L 128,19 L 129,20 L 130,21 L 131,21 L 132,22 L 133,23 L 134,24 L 135,25 L 135,26 L 136,27 L 137,28 L 137,29 L 137,30 L 138,31 L 138,32 L 138,33 L 138,34 L 138,35 L 138,36 L 138,37 L 138,38 L 138,39 L 138,40 L 137,41 L 137,42 L 136,43 L 136,44 L 135,45 L 134,46 L 133,47 L 132,48 L 131,49 L 130,50 L 129,51 L 128,51 L 127,52 L 126,52 L 125,53 L 124,53 L 123,54 L 122,54 L 121,54 L 120,55 L 119,55 L 118,55 L 117,55 L 116,55 L 115,55 L 114,55 L 113,56 L 112,55 L 111,55 L 110,55 L 109,55 L 108,55 L 107,55 L 106,55 L 105,54 L 104,54 L 103,54 L 102,54 L 101,53 L 100,53 L 99,52 L 98,52 L 97,51 L 96,50 L 95,50 L 94,49 L 93,48 L 92,47 L 91,46 L 90,45 L 90,44 L 89,43 L 89,42 L 88,41 L 88,40 L 87,39 L 87,38 L 87,37 L 87,36 L 87,35 L 87,34 L 87,33 L 87,32 L 88,31 L 88,30 L 88,29 L 89,28 L 90,27 L 90,26 L 91,25 L 92,24 L 93,23 L 94,22 L 95,21 L 96,20 L 97,20 L 98,19 L 99,18 L 100,18 L 101,18 L 102,17 L 103,17 L 104,16 L 105,16 L 106,16 Z" stroke="white" fill="white" /><path d="M 27,2 L 26,3 L 25,3 L 24,3 L 23,4 L 22,4 L 21,4 L 20,5 L 19,5 L 18,6 L 17,7 L 16,7 L 15,8 L 14,9 L 13,9 L 12,10 L 11,11 L 10,12 L 10,13 L 9,14 L 8,15 L 7,16 L 7,17 L 6,18 L 6,19 L 5,20 L 4,21 L 4,22 L 4,23 L 3,24 L 3,25 L 3,26 L 3,27 L 2,28 L 2,29 L 2,30 L 2,31 L 2,32 L 2,33 L 2,34 L 2,35 L 2,36 L 2,37 L 2,38 L 2,39 L 2,40 L 2,41 L 2,42 L 2,43 L 2,44 L 2,45 L 2,46 L 2,47 L 2,48 L 2,49 L 2,50 L 2,51 L 2,52 L 2,53 L 2,54 L 2,55 L 2,56 L 2,57 L 2,58 L 2,59 L 2,60 L 2,61 L 2,62 L 2,63 L 2,64 L 2,65 L 2,66 L 2,67 L 2,68 L 2,69 L 2,70 L 2,71 L 2,72 L 2,73 L 2,74 L 2,75 L 2,76 L 2,77 L 2,78 L 2,79 L 2,80 L 2,81 L 2,82 L 2,83 L 2,84 L 2,85 L 2,86 L 2,87 L 2,88 L 2,89 L 2,90 L 2,91 L 2,92 L 2,93 L 2,94 L 2,95 L 2,96 L 2,97 L 2,98 L 2,99 L 2,100 L 2,101 L 2,102 L 2,103 L 2,104 L 2,105 L 2,106 L 2,107 L 2,108 L 2,109 L 2,110 L 2,111 L 2,112 L 2,113 L 2,114 L 2,115 L 2,116 L 2,117 L 2,118 L 2,119 L 2,120 L 2,121 L 2,122 L 2,123 L 2,124 L 2,125 L 2,126 L 2,127 L 2,128 L 2,129 L 2,130 L 2,131 L 2,132 L 2,133 L 2,134 L 2,135 L 2,136 L 2,137 L 2,138 L 2,139 L 2,140 L 2,141 L 2,142 L 2,143 L 2,144 L 2,145 L 2,146 L 2,147 L 2,148 L 2,149 L 2,150 L 2,151 L 2,152 L 2,153 L 2,154 L 2,155 L 2,156 L 2,157 L 2,158 L 2,159 L 3,160 L 3,161 L 3,162 L 4,163 L 4,164 L 4,165 L 5,166 L 5,167 L 6,168 L 6,169 L 7,170 L 7,171 L 8,172 L 9,173 L 10,174 L 11,175 L 12,176 L 13,177 L 14,178 L 15,179 L 16,180 L 17,180 L 18,181 L 19,181 L 20,182 L 21,182 L 22,183 L 23,183 L 24,183 L 25,184 L 26,184 L 27,184 L 28,184 L 29,184 L 30,185 L 31,185 L 32,185 L 33,185 L 34,185 L 35,185 L 36,185 L 37,185 L 38,185 L 39,185 L 40,185 L 41,185 L 42,185 L 43,185 L 44,185 L 45,185 L 46,185 L 47,185 L 48,185 L 49,185 L 50,185 L 51,185 L 52,185 L 53,185 L 54,185 L 55,185 L 56,185 L 57,185 L 58,185 L 59,185 L 60,185 L 61,185 L 62,185 L 63,185 L 64,185 L 65,185 L 66,185 L 67,185 L 68,185 L 69,185 L 70,185 L 71,185 L 72,185 L 73,185 L 74,185 L 75,185 L 76,185 L 77,185 L 78,185 L 79,185 L 80,185 L 81,185 L 82,185 L 83,185 L 84,185 L 85,185 L 86,185 L 87,185 L 88,185 L 89,185 L 90,185 L 91,185 L 92,185 L 93,185 L 94,185 L 95,185 L 96,185 L 97,185 L 98,185 L 99,185 L 100,185 L 101,185 L 102,185 L 103,185 L 104,185 L 105,185 L 106,185 L 107,185 L 108,185 L 109,185 L 110,185 L 111,185 L 112,185 L 113,185 L 114,185 L 115,185 L 116,185 L 117,185 L 118,185 L 119,185 L 120,185 L 121,185 L 122,185 L 123,185 L 124,185 L 125,185 L 126,185 L 127,185 L 128,185 L 129,185 L 130,185 L 131,185 L 132,185 L 133,185 L 134,185 L 135,185 L 136,185 L 137,185 L 138,185 L 139,185 L 140,185 L 141,185 L 142,185 L 143,185 L 144,185 L 145,185 L 146,185 L 147,185 L 148,185 L 149,185 L 150,185 L 151,185 L 152,185 L 153,185 L 154,185 L 155,185 L 156,185 L 157,185 L 158,184 L 159,184 L 160,184 L 161,184 L 162,184 L 163,183 L 164,183 L 165,183 L 166,182 L 167,182 L 168,181 L 169,181 L 170,180 L 171,179 L 172,179 L 173,178 L 174,177 L 175,176 L 176,175 L 177,174 L 178,173 L 179,172 L 180,171 L 180,170 L 181,169 L 181,168 L 182,167 L 182,166 L 183,165 L 183,164 L 183,163 L 184,162 L 184,161 L 184,160 L 184,159 L 185,158 L 185,157 L 185,156 L 185,155 L 185,154 L 185,153 L 185,152 L 185,151 L 185,150 L 185,149 L 185,148 L 185,147 L 185,146 L 185,145 L 185,144 L 185,143 L 185,142 L 185,141 L 185,140 L 185,139 L 185,138 L 185,137 L 185,136 L 185,135 L 185,134 L 185,133 L 185,132 L 185,131 L 185,130 L 185,129 L 185,128 L 185,127 L 185,126 L 185,125 L 185,124 L 185,123 L 185,122 L 185,121 L 185,120 L 185,119 L 185,118 L 185,117 L 185,116 L 185,115 L 185,114 L 185,113 L 185,112 L 185,111 L 185,110 L 185,109 L 185,108 L 185,107 L 185,106 L 185,105 L 185,104 L 185,103 L 185,102 L 185,101 L 185,100 L 185,99 L 185,98 L 185,97 L 185,96 L 185,95 L 185,94 L 185,93 L 185,92 L 185,91 L 185,90 L 185,89 L 185,88 L 185,87 L 185,86 L 185,85 L 185,84 L 185,83 L 185,82 L 185,81 L 185,80 L 185,79 L 185,78 L 185,77 L 185,76 L 185,75 L 185,74 L 185,73 L 185,72 L 185,71 L 185,70 L 185,69 L 185,68 L 185,67 L 185,66 L 185,65 L 185,64 L 185,63 L 185,62 L 185,61 L 185,60 L 185,59 L 185,58 L 185,57 L 185,56 L 185,55 L 185,54 L 185,53 L 185,52 L 185,51 L 185,50 L 185,49 L 185,48 L 185,47 L 185,46 L 185,45 L 185,44 L 185,43 L 185,42 L 185,41 L 185,40 L 185,39 L 185,38 L 185,37 L 185,36 L 185,35 L 185,34 L 185,33 L 185,32 L 185,31 L 185,30 L 185,29 L 185,28 L 184,27 L 184,26 L 184,25 L 183,24 L 183,23 L 183,22 L 182,21 L 182,20 L 181,19 L 181,18 L 180,17 L 180,16 L 179,15 L 178,14 L 177,13 L 177,12 L 176,11 L 175,10 L 174,10 L 173,9 L 172,8 L 171,7 L 170,7 L 169,6 L 168,6 L 167,5 L 166,4 L 165,4 L 164,4 L 163,3 L 162,3 L 161,3 L 160,2 L 159,2 L 158,2 L 157,2 L 156,2 L 155,2 L 154,2 L 153,2 L 152,2 L 151,2 L 150,2 L 149,2 L 148,2 L 147,2 L 146,2 L 145,2 L 144,2 L 143,2 L 142,2 L 141,2 L 140,2 L 139,2 L 138,2 L 137,2 L 136,2 L 135,2 L 134,2 L 133,2 L 132,2 L 131,2 L 130,2 L 129,2 L 128,2 L 127,2 L 126,2 L 125,2 L 124,2 L 123,2 L 122,2 L 121,2 L 120,2 L 119,2 L 118,2 L 117,2 L 116,2 L 115,2 L 114,2 L 113,2 L 112,2 L 111,2 L 110,2 L 109,2 L 108,2 L 107,2 L 106,2 L 105,2 L 104,2 L 103,2 L 102,2 L 101,2 L 100,2 L 99,2 L 98,2 L 97,2 L 96,2 L 95,2 L 94,2 L 93,2 L 92,2 L 91,2 L 90,2 L 89,2 L 88,2 L 87,2 L 86,2 L 85,2 L 84,2 L 83,2 L 82,2 L 81,2 L 80,2 L 79,2 L 78,2 L 77,2 L 76,2 L 75,2 L 74,2 L 73,2 L 72,2 L 71,2 L 70,2 L 69,2 L 68,2 L 67,2 L 66,2 L 65,2 L 64,2 L 63,2 L 62,2 L 61,2 L 60,2 L 59,2 L 58,2 L 57,2 L 56,2 L 55,2 L 54,2 L 53,2 L 52,2 L 51,2 L 50,2 L 49,2 L 48,2 L 47,2 L 46,2 L 45,2 L 44,2 L 43,2 L 42,2 L 41,2 L 40,2 L 39,2 L 38,2 L 37,2 L 36,2 L 35,2 L 34,2 L 33,2 L 32,2 L 31,2 L 30,2 L 29,2 L 28,2 Z M 28,9 L 29,8 L 30,8 L 31,8 L 32,8 L 33,8 L 34,8 L 35,8 L 36,8 L 37,8 L 38,8 L 39,8 L 40,8 L 41,8 L 42,8 L 43,8 L 44,8 L 45,8 L 46,8 L 47,8 L 48,8 L 49,8 L 50,8 L 51,8 L 52,8 L 53,8 L 54,8 L 55,8 L 56,8 L 57,8 L 58,8 L 59,8 L 60,8 L 61,8 L 62,8 L 63,8 L 64,8 L 65,8 L 66,8 L 67,8 L 68,8 L 69,8 L 70,8 L 71,8 L 72,8 L 73,8 L 74,8 L 75,8 L 76,8 L 77,8 L 78,8 L 79,8 L 80,8 L 81,8 L 82,8 L 83,8 L 84,8 L 85,8 L 86,8 L 87,8 L 88,8 L 89,8 L 90,8 L 91,8 L 92,8 L 93,8 L 94,8 L 95,8 L 96,8 L 97,8 L 98,8 L 99,8 L 100,8 L 101,8 L 102,8 L 103,8 L 104,8 L 105,8 L 106,8 L 107,8 L 108,8 L 109,8 L 110,8 L 111,8 L 112,8 L 113,8 L 114,8 L 115,8 L 116,8 L 117,8 L 118,8 L 119,8 L 120,8 L 121,8 L 122,8 L 123,8 L 124,8 L 125,8 L 126,8 L 127,8 L 128,8 L 129,8 L 130,8 L 131,8 L 132,8 L 133,8 L 134,8 L 135,8 L 136,8 L 137,8 L 138,8 L 139,8 L 140,8 L 141,8 L 142,8 L 143,8 L 144,8 L 145,8 L 146,8 L 147,8 L 148,8 L 149,8 L 150,8 L 151,8 L 152,8 L 153,8 L 154,8 L 155,8 L 156,8 L 157,8 L 158,9 L 159,9 L 160,9 L 161,9 L 162,10 L 163,10 L 164,11 L 165,11 L 166,12 L 167,12 L 168,13 L 169,14 L 170,15 L 171,16 L 172,17 L 173,18 L 174,19 L 174,20 L 175,21 L 176,22 L 176,23 L 177,24 L 177,25 L 177,26 L 178,27 L 178,28 L 178,29 L 178,30 L 179,31 L 179,32 L 179,33 L 179,34 L 179,35 L 179,36 L 179,37 L 179,38 L 179,39 L 179,40 L 179,41 L 179,42 L 179,43 L 179,44 L 179,45 L 179,46 L 179,47 L 179,48 L 179,49 L 179,50 L 179,51 L 179,52 L 179,53 L 179,54 L 179,55 L 179,56 L 179,57 L 179,58 L 179,59 L 179,60 L 179,61 L 179,62 L 179,63 L 179,64 L 179,65 L 179,66 L 179,67 L 179,68 L 179,69 L 179,70 L 179,71 L 179,72 L 179,73 L 179,74 L 179,75 L 179,76 L 179,77 L 179,78 L 179,79 L 179,80 L 179,81 L 179,82 L 179,83 L 179,84 L 179,85 L 179,86 L 179,87 L 179,88 L 179,89 L 179,90 L 179,91 L 179,92 L 179,93 L 179,94 L 179,95 L 179,96 L 179,97 L 179,98 L 179,99 L 179,100 L 179,101 L 179,102 L 179,103 L 179,104 L 179,105 L 179,106 L 179,107 L 179,108 L 179,109 L 179,110 L 179,111 L 179,112 L 179,113 L 179,114 L 179,115 L 179,116 L 179,117 L 179,118 L 179,119 L 179,120 L 179,121 L 179,122 L 179,123 L 179,124 L 179,125 L 179,126 L 179,127 L 179,128 L 179,129 L 179,130 L 179,131 L 179,132 L 179,133 L 179,134 L 179,135 L 179,136 L 179,137 L 179,138 L 179,139 L 179,140 L 179,141 L 179,142 L 179,143 L 179,144 L 179,145 L 179,146 L 179,147 L 179,148 L 179,149 L 179,150 L 179,151 L 179,152 L 179,153 L 179,154 L 179,155 L 179,156 L 178,157 L 178,158 L 178,159 L 178,160 L 177,161 L 177,162 L 176,163 L 176,164 L 175,165 L 175,166 L 174,167 L 173,168 L 173,169 L 172,170 L 171,171 L 170,172 L 169,173 L 168,173 L 167,174 L 166,175 L 165,175 L 164,176 L 163,176 L 162,177 L 161,177 L 160,177 L 159,178 L 158,178 L 157,178 L 156,178 L 155,179 L 154,179 L 153,179 L 152,179 L 151,179 L 150,179 L 149,179 L 148,179 L 147,179 L 146,179 L 145,179 L 144,179 L 143,179 L 142,179 L 141,179 L 140,179 L 139,179 L 138,179 L 137,179 L 136,179 L 135,179 L 134,179 L 133,179 L 132,179 L 131,179 L 130,179 L 129,179 L 128,179 L 127,179 L 126,179 L 125,179 L 124,179 L 123,179 L 122,179 L 121,179 L 120,179 L 119,179 L 118,179 L 117,179 L 116,179 L 115,179 L 114,179 L 113,179 L 112,179 L 111,179 L 110,179 L 109,179 L 108,179 L 107,179 L 106,179 L 105,179 L 104,179 L 103,179 L 102,179 L 101,179 L 100,179 L 99,179 L 98,179 L 97,179 L 96,179 L 95,179 L 94,179 L 93,179 L 92,179 L 91,179 L 90,179 L 89,179 L 88,179 L 87,179 L 86,179 L 85,179 L 84,179 L 83,179 L 82,179 L 81,179 L 80,179 L 79,179 L 78,179 L 77,179 L 76,179 L 75,179 L 74,179 L 73,179 L 72,179 L 71,179 L 70,179 L 69,179 L 68,179 L 67,179 L 66,179 L 65,179 L 64,179 L 63,179 L 62,179 L 61,179 L 60,179 L 59,179 L 58,179 L 57,179 L 56,179 L 55,179 L 54,179 L 53,179 L 52,179 L 51,179 L 50,179 L 49,179 L 48,179 L 47,179 L 46,179 L 45,179 L 44,179 L 43,179 L 42,179 L 41,179 L 40,179 L 39,179 L 38,179 L 37,179 L 36,179 L 35,179 L 34,179 L 33,179 L 32,179 L 31,178 L 30,178 L 29,178 L 28,178 L 27,178 L 26,177 L 25,177 L 24,176 L 23,176 L 22,175 L 21,175 L 20,174 L 19,173 L 18,173 L 17,172 L 16,171 L 15,170 L 14,169 L 13,168 L 13,167 L 12,166 L 12,165 L 11,164 L 10,163 L 10,162 L 10,161 L 9,160 L 9,159 L 9,158 L 8,157 L 8,156 L 8,155 L 8,154 L 8,153 L 8,152 L 8,151 L 8,150 L 8,149 L 8,148 L 8,147 L 8,146 L 8,145 L 8,144 L 8,143 L 8,142 L 8,141 L 8,140 L 8,139 L 8,138 L 8,137 L 8,136 L 8,135 L 8,134 L 8,133 L 8,132 L 8,131 L 8,130 L 8,129 L 8,128 L 8,127 L 8,126 L 8,125 L 8,124 L 8,123 L 8,122 L 8,121 L 8,120 L 8,119 L 8,118 L 8,117 L 8,116 L 8,115 L 8,114 L 8,113 L 8,112 L 8,111 L 8,110 L 8,109 L 8,108 L 8,107 L 8,106 L 8,105 L 8,104 L 8,103 L 8,102 L 8,101 L 8,100 L 8,99 L 8,98 L 8,97 L 8,96 L 8,95 L 8,94 L 8,93 L 8,92 L 8,91 L 8,90 L 8,89 L 8,88 L 8,87 L 8,86 L 8,85 L 8,84 L 8,83 L 8,82 L 8,81 L 8,80 L 8,79 L 8,78 L 8,77 L 8,76 L 8,75 L 8,74 L 8,73 L 8,72 L 8,71 L 8,70 L 8,69 L 8,68 L 8,67 L 8,66 L 8,65 L 8,64 L 8,63 L 8,62 L 8,61 L 8,60 L 8,59 L 8,58 L 8,57 L 8,56 L 8,55 L 8,54 L 8,53 L 8,52 L 8,51 L 8,50 L 8,49 L 8,48 L 8,47 L 8,46 L 8,45 L 8,44 L 8,43 L 8,42 L 8,41 L 8,40 L 8,39 L 8,38 L 8,37 L 8,36 L 8,35 L 8,34 L 8,33 L 8,32 L 8,31 L 8,30 L 9,29 L 9,28 L 9,27 L 10,26 L 10,25 L 10,24 L 11,23 L 11,22 L 12,21 L 12,20 L 13,19 L 14,18 L 15,17 L 16,16 L 17,15 L 18,14 L 19,13 L 20,12 L 21,12 L 22,11 L 23,11 L 24,10 L 25,10 L 26,9 L 27,9 Z" stroke="white" fill="white" fill_rule="evenodd" /></svg>