<?xml version='1.0' encoding='utf-8'?>
<svg xmlns="http://www.w3.org/2000/svg" version="1.1" width="120" height="120"><path d="M 69,66 L 69,67 L 69,68 L 69,69 L 69,70 L 69,71 L 69,72 L 69,73 L 69,74 L 69,75 L 69,76 L 69,77 L 69,78 L 69,79 L 69,80 L 69,81 L 69,82 L 69,83 L 69,84 L 69,85 L 69,86 L 69,87 L 69,88 L 69,89 L 69,90 L 69,91 L 70,91 L 71,91 L 72,91 L 73,91 L 74,91 L 75,91 L 76,91 L 77,91 L 78,91 L 79,91 L 80,91 L 81,91 L 82,91 L 83,91 L 84,91 L 85,91 L 86,91 L 87,91 L 88,91 L 89,91 L 90,91 L 91,91 L 92,91 L 93,91 L 94,91 L 94,90 L 94,89 L 94,88 L 94,87 L 94,86 L 94,85 L 94,84 L 94,83 L 94,82 L 94,81 L 94,80 L 94,79 L 94,78 L 94,77 L 94,76 L 94,75 L 94,74 L 94,73 L 94,72 L 94,71 L 94,70 L 94,69 L 94,68 L 94,67 L 94,66 L 93,66 L 92,66 L 91,66 L 90,66 L 89,66 L 88,66 L 87,66 L 86,66 L 85,66 L 84,66 L 83,66 L 82,66 L 81,66 L 80,66 L 79,66 L 78,66 L 77,66 L 76,66 L 75,66 L 74,66 L 73,66 L 72,66 L 71,66 L 70,66 Z M 75,73 L 76,72 L 77,72 L 78,72 L 79,72 L 80,72 L 81,72 L 82,72 L 83,72 L 84,72 L 85,72 L 86,72 L 87,72 L 88,73 L 88,74 L 88,75 L 88,76 L 88,77 L 88,78 L 88,79 L 88,80 L 88,81 L 88,82 L 88,83 L 88,84 L 87,85 L 86,85 L 85,85 L 84,85 L 83,85 L 82,85 L 81,85 L 80,85 L 79,85 L 78,85 L 77,85 L 76,85 L 75,84 L 75,83 L 75,82 L 75,81 L 75,80 L 75,79 L 75,78 L 75,77 L 75,76 L 75,75 L 75,74 Z" stroke="white" fill="white" fill_rule="evenodd" /><path d="M 27,66 L 27,67 L 27,68 L 27,69 L 27,70 L 27,71 L 27,72 L 27,73 L 27,74 L 27,75 L 27,76 L 27,77 L 27,78 L 27,79 L 27,80 L 27,81 L 27,82 L 27,83 L 27,84 L 27,85 L 27,86 L 27,87 L 27,88 L 27,89 L 27,90 L 27,91 L 28,91 L 29,91 L 30,91 L 31,91 L 32,91 L 33,91 L 34,91 L 35,91 L 36,91 L 37,91 L 38,91 L 39,91 L 40,91 L 41,91 L 42,91 L 43,91 L 44,91 L 45,91 L 46,91 L 47,91 L 48,91 L 49,91 L 50,91 L 51,91 L 51,90 L 51,89 L 51,88 L 51,87 L 51,86 L 51,85 L 51,84 L 51,83 L 51,82 L 51,81 L 51,80 L 51,79 L 51,78 L 51,77 L 51,76 L 51,75 L 51,74 L 51,73 L 51,72 L 51,71 L 51,70 L 51,69 L 51,68 L 51,67 L 51,66 L 50,66 L 49,66 L 48,66 L 47,66 L 46,66 L 45,66 L 44,66 L 43,66 L 42,66 L 41,66 L 40,66 L 39,66 L 38,66 L 37,66 L 36,66 L 35,66 L 34,66 L 33,66 L 32,66 L 31,66 L 30,66 L 29,66 L 28,66 Z M 33,73 L 34,72 L 35,72 L 36,72 L 37,72 L 38,72 L 39,72 L 40,72 L 41,72 L 42,72 L 43,72 L 44,72 L 45,73 L 45,74 L 45,75 L 45,76 L 45,77 L 45,78 L 45,79 L 45,80 L 45,81 L 45,82 L 45,83 L 45,84 L 44,85 L 43,85 L 42,85 L 41,85 L 40,85 L 39,85 L 38,85 L 37,85 L 36,85 L 35,85 L 34,85 L 33,84 L 33,83 L 33,82 L 33,81 L 33,80 L 33,79 L 33,78 L 33,77 L 33,76 L 33,75 L 33,74 Z" stroke="white" fill="white" fill_rule="evenodd" /><path d="M 69,28 L 69,29 L 69,30 L 69,31 L 69,32 L 69,33 L 69,34 L 69,35 L 69,36 L 69,37 L 69,38 L 69,39 L 69,40 L 69,41 L 69,42 L 69,43 L 69,44 L 69,45 L 69,46 L 69,47 L 69,48 L 69,49 L 69,50 L 69,51 L 69,52 L 69,53 L 70,53 L 71,53 L 72,53 L 73,53 L 74,53 L 75,53 L 76,53 L 77,53 L 78,53 L 79,53 L 80,53 L 81,53 L 82,53 L 83,53 L 84,53 L 85,53 L 86,53 L 87,53 L 88,53 L 89,53 L 90,53 L 91,53 L 92,53 L 93,53 L 94,53 L 94,52 L 94,51 L 94,50 L 94,49 L 94,48 L 94,47 L 94,46 L 94,45 L 94,44 L 94,43 L 94,42 L 94,41 L 94,40 L 94,39 L 94,38 L 94,37 L 94,36 L 94,35 L 94,34 L 94,33 L 94,32 L 94,31 L 94,30 L 94,29 L 94,28 L 93,28 L 92,28 L 91,28 L 90,28 L 89,28 L 88,28 L 87,28 L 86,28 L 85,28 L 84,28 L 83,28 L 82,28 L 81,28 L 80,28 L 79,28 L 78,28 L 77,28 L 76,28 L 75,28 L 74,28 L 73,28 L 72,28 L 71,28 L 70,28 Z M 75,35 L 76,34 L 77,34 L 78,34 L 79,34 L 80,34 L 81,34 L 82,34 L 83,34 L 84,34 L 85,34 L 86,34 L 87,34 L 88,35 L 88,36 L 88,37 L 88,38 L 88,39 L 88,40 L 88,41 L 88,42 L 88,43 L 88,44 L 88,45 L 88,46 L 87,47 L 86,47 L 85,47 L 84,47 L 83,47 L 82,47 L 81,47 L 80,47 L 79,47 L 78,47 L 77,47 L 76,47 L 75,46 L 75,45 L 75,44 L 75,43 L 75,42 L 75,41 L 75,40 L 75,39 L 75,38 L 75,37 L 75,36 Z" stroke="white" fill="white" fill_rule="evenodd" /><path d="M 27,28 L 27,29 L 27,30 L 27,31 L 27,32 L 27,33 L 27,34 L 27,35 L 27,36 L 27,37 L 27,38 L 27,39 L 27,40 L 27,41 L 27,42 L 27,43 L 27,44 L 27,45 L 27,46 L 27,47 L 27,48 L 27,49 L 27,50 L 27,51 L 27,52 L 27,53 L 28,53 L 29,53 L 30,53 L 31,53 L 32,53 L 33,53 L 34,53 L 35,53 L 36,53 L 37,53 L 38,53 L 39,53 L 40,53 L 41,53 L 42,53 L 43,53 L 44,53 L 45,53 L 46,53 L 47,53 L 48,53 L 49,53 L 50,53 L 51,53 L 51,52 L 51,51 L 51,50 L 51,49 L 51,48 L 51,47 L 51,46 L 51,45 L 51,44 L 51,43 L 51,42 L 51,41 L 51,40 L 51,39 L 51,38 L 51,37 L 51,36 L 51,35 L 51,34 L 51,33 L 51,32 L 51,31 L 51,30 L 51,29 L 51,28 L 50,28 L 49,28 L 48,28 L 47,28 L 46,28 L 45,28 L 44,28 L 43,28 L 42,28 L 41,28 L 40,28 L 39,28 L 38,28 L 37,28 L 36,28 L 35,28 L 34,28 L 33,28 L 32,28 L 31,28 L 30,28 L 29,28 L 28,28 Z M 33,35 L 34,34 L 35,34 L 36,34 L 37,34 L 38,34 L 39,34 L 40,34 L 41,34 L 42,34 L 43,34 L 44,34 L 45,35 L 45,36 L 45,37 L 45,38 L 45,39 L 45,40 L 45,41 L 45,42 L 45,43 L 45,44 L 45,45 L 45,46 L 44,47 L 43,47 L 42,47 L 41,47 L 40,47 L 39,47 L 38,47 L 37,47 L 36,47 L 35,47 L 34,47 L 33,46 L 33,45 L 33,44 L 33,43 L 33,42 L 33,41 L 33,40 L 33,39 L 33,38 L 33,37 L 33,36 Z" stroke="white" fill="white" fill_rule="evenodd" /><path d="M 23,6 L 22,7 L 21,7 L 20,7 L 19,8 L 18,8 L 17,9 L 16,9 L 15,10 L 14,11 L 13,12 L 12,13 L 11,14 L 10,15 L 9,16 L 9,17 L 8,18 L 8,19 L 7,20 L 7,21 L 7,22 L 6,23 L 6,24 L 6,25 L 6,26 L 6,27 L 6,28 L 6,29 L 6,30 L 6,31 L 6,32 L 6,33 L 6,34 L 6,35 L 6,36 L 6,37 L 6,38 L 6,39 L 6,40 L 6,41 L 6,42 L 6,43 L 6,44 L 6,45 L 6,46 L 6,47 L 6,48 L 6,49 L 6,50 L 6,51 L 6,52 L 6,53 L 6,54 L 6,55 L 6,56 L 6,57 L 6,58 L 6,59 L 6,60 L 6,61 L 6,62 L 6,63 L 6,64 L 6,65 L 6,66 L 6,67 L 6,68 L 6,69 L 6,70 L 6,71 L 6,72 L 6,73 L 6,74 L 6,75 L 6,76 L 6,77 L 6,78 L 6,79 L 6,80 L 6,81 L 6,82 L 6,83 L 6,84 L 6,85 L 6,86 L 6,87 L 6,88 L 6,89 L 6,90 L 6,91 L 6,92 L 6,93 L 6,94 L 6,95 L 6,96 L 7,97 L 7,98 L 7,99 L 8,100 L 8,101 L 9,102 L 9,103 L 10,104 L 11,105 L 12,106 L 13,107 L 14,108 L 15,109 L 16,110 L 17,110 L 18,111 L 19,111 L 20,112 L 21,112 L 22,112 L 23,113 L 24,113 L 25,113 L 26,113 L 27,113 L 28,113 L 29,113 L 30,113 L 31,113 L 32,113 L 33,113 L 34,113 L 35,113 L 36,113 L 37,113 L 38,113 L 39,113 L 40,113 L 41,113 L 42,113 L 43,113 L 44,113 L 45,113 L 46,113 L 47,113 L 48,113 L 49,113 L 50,113 L 51,113 L 52,113 L 53,113 L 54,113 L 55,113 L 56,113 L 57,113 L 58,113 L 59,113 L 60,113 L 61,113 L 62,113 L 63,113 L 64,113 L 65,113 L 66,113 L 67,113 L 68,113 L 69,113 L 70,113 L 71,113 L 72,113 L 73,113 L 74,113 L 75,113 L 76,113 L 77,113 L 78,113 L 79,113 L 80,113 L 81,113 L 82,113 L 83,113 L 84,113 L 85,113 L 86,113 L 87,113 L 88,113 L 89,113 L 90,113 L 91,113 L 92,113 L 93,113 L 94,113 L 95,113 L 96,113 L 97,112 L 98,112 L 99,112 L 100,111 L 101,111 L 102,110 L 103,109 L 104,109 L 105,108 L 106,107 L 107,106 L 108,105 L 109,104 L 109,103 L 110,102 L 111,101 L 111,100 L 112,99 L 112,98 L 112,97 L 113,96 L 113,95 L 113,94 L 113,93 L 113,92 L 113,91 L 113,90 L 113,89 L 113,88 L 113,87 L 113,86 L 113,85 L 113,84 L 113,83 L 113,82 L 113,81 L 113,80 L 113,79 L 113,78 L 113,77 L 113,76 L 113,75 L 113,74 L 113,73 L 113,72 L 113,71 L 113,70 L 113,69 L 113,68 L 113,67 L 113,66 L 113,65 L 113,64 L 113,63 L 113,62 L 113,61 L 113,60 L 113,59 L 113,58 L 113,57 L 113,56 L 113,55 L 113,54 L 113,53 L 113,52 L 113,51 L 113,50 L 113,49 L 113,48 L 113,47 L 113,46 L 113,45 L 113,44 L 113,43 L 113,42 L 113,41 L 113,40 L 113,39 L 113,38 L 113,37 L 113,36 L 113,35 L 113,34 L 113,33 L 113,32 L 113,31 L 113,30 L 113,29 L 113,28 L 113,27 L 113,26 L 113,25 L 113,24 L 113,23 L 112,22 L 112,21 L 112,20 L 111,19 L 111,18 L 110,17 L 110,16 L 109,15 L 108,14 L 107,13 L 106,12 L 105,11 L 104,10 L 103,9 L 102,9 L 101,8 L 100,8 L 99,7 L 98,7 L 97,7 L 96,6 L 95,6 L 94,6 L 93,6 L 92,6 L 91,6 L 90,6 L 89,6 L 88,6 L 87,6 L 86,6 L 85,6 L 84,6 L 83,6 L 82,6 L 81,6 L 80,6 L 79,6 L 78,6 L 77,6 L 76,6 L 75,6 L 74,6 L 73,6 L 72,6 L 71,6 L 70,6 L 69,6 L 68,6 L 67,6 L 66,6 L 65,6 L 64,6 L 63,6 L 62,6 L 61,6 L 60,6 L 59,6 L 58,6 L 57,6 L 56,6 L 55,6 L 54,6 L 53,6 L 52,6 L 51,6 L 50,6 L 49,6 L 48,6 L 47,6 L 46,6 L 45,6 L 44,6 L 43,6 L 42,6 L 41,6 L 40,6 L 39,6 L 38,6 L 37,6 L 36,6 L 35,6 L 34,6 L 33,6 L 32,6 L 31,6 L 30,6 L 29,6 L 28,6 L 27,6 L 26,6 L 25,6 L 24,6 Z M 28,12 L 29,11 L 30,11 L 31,11 L 32,11 L 33,11 L 34,11 L 35,11 L 36,11 L 37,11 L 38,11 L 39,11 L 40,11 L 41,11 L 42,11 L 43,11 L 44,11 L 45,11 L 46,11 L 47,11 L 48,11 L 49,11 L 50,11 L 51,11 L 52,11 L 53,11 L 54,11 L 55,11 L 56,11 L 57,11 L 58,11 L 59,11 L 60,11 L 61,11 L 62,11 L 63,11 L 64,11 L 65,11 L 66,11 L 67,11 L 68,11 L 69,11 L 70,11 L 71,11 L 72,11 L 73,11 L 74,11 L 75,11 L 76,11 L 77,11 L 78,11 L 79,11 L 80,11 L 81,11 L 82,11 L 83,11 L 84,11 L 85,11 L 86,11 L 87,11 L 88,11 L 89,11 L 90,11 L 91,12 L 92,12 L 93,12 L 94,12 L 95,12 L 96,13 L 97,13 L 98,14 L 99,14 L 100,15 L 101,16 L 102,17 L 103,18 L 104,19 L 105,20 L 105,21 L 106,22 L 106,23 L 107,24 L 107,25 L 107,26 L 107,27 L 107,28 L 108,29 L 108,30 L 108,31 L 108,32 L 108,33 L 108,34 L 108,35 L 108,36 L 108,37 L 108,38 L 108,39 L 108,40 L 108,41 L 108,42 L 108,43 L 108,44 L 108,45 L 108,46 L 108,47 L 108,48 L 108,49 L 108,50 L 108,51 L 108,52 L 108,53 L 108,54 L 108,55 L 108,56 L 108,57 L 108,58 L 108,59 L 108,60 L 108,61 L 108,62 L 108,63 L 108,64 L 108,65 L 108,66 L 108,67 L 108,68 L 108,69 L 108,70 L 108,71 L 108,72 L 108,73 L 108,74 L 108,75 L 108,76 L 108,77 L 108,78 L 108,79 L 108,80 L 108,81 L 108,82 L 108,83 L 108,84 L 108,85 L 108,86 L 108,87 L 108,88 L 108,89 L 108,90 L 107,91 L 107,92 L 107,93 L 107,94 L 107,95 L 106,96 L 106,97 L 105,98 L 105,99 L 104,100 L 103,101 L 102,102 L 101,103 L 100,104 L 99,105 L 98,105 L 97,106 L 96,106 L 95,107 L 94,107 L 93,107 L 92,107 L 91,107 L 90,108 L 89,108 L 88,108 L 87,108 L 86,108 L 85,108 L 84,108 L 83,108 L 82,108 L 81,108 L 80,108 L 79,108 L 78,108 L 77,108 L 76,108 L 75,108 L 74,108 L 73,108 L 72,108 L 71,108 L 70,108 L 69,108 L 68,108 L 67,108 L 66,108 L 65,108 L 64,108 L 63,108 L 62,108 L 61,108 L 60,108 L 59,108 L 58,108 L 57,108 L 56,108 L 55,108 L 54,108 L 53,108 L 52,108 L 51,108 L 50,108 L 49,108 L 48,108 L 47,108 L 46,108 L 45,108 L 44,108 L 43,108 L 42,108 L 41,108 L 40,108 L 39,108 L 38,108 L 37,108 L 36,108 L 35,108 L 34,108 L 33,108 L 32,108 L 31,108 L 30,108 L 29,108 L 28,107 L 27,107 L 26,107 L 25,107 L 24,107 L 23,106 L 22,106 L 21,105 L 20,105 L 19,104 L 18,103 L 17,102 L 16,101 L 15,100 L 14,99 L 14,98 L 13,97 L 13,96 L 12,95 L 12,94 L 12,93 L 12,92 L 12,91 L 11,90 L 11,89 L 11,88 L 11,87 L 11,86 L 11,85 L 11,84 L 11,83 L 11,82 L 11,81 L 11,80 L 11,79 L 11,78 L 11,77 L 11,76 L 11,75 L 11,74 L 11,73 L 11,72 L 11,71 L 11,70 L 11,69 L 11,68 L 11,67 L 11,66 L 11,65 L 11,64 L 11,63 L 11,62 L 11,61 L 11,60 L 11,59 L 11,58 L 11,57 L 11,56 L 11,55 L 11,54 L 11,53 L 11,52 L 11,51 L 11,50 L 11,49 L 11,48 L 11,47 L 11,46 L 11,45 L 11,44 L 11,43 L 11,42 L 11,41 L 11,40 L 11,39 L 11,38 L 11,37 L 11,36 L 11,35 L 11,34 L 11,33 L 11,32 L 11,31 L 11,30 L 11,29 L 12,28 L 12,27 L 12,26 L 12,25 L 12,24 L 13,23 L 13,22 L 14,21 L 14,20 L 15,19 L 16,18 L 17,17 L 18,16 L 19,15 L 20,14 L 21,14 L 22,13 L 23,13 L 24,12 L 25,12 L 26,12 L 27,12 Z" stroke="white" fill="white" fill_rule="evenodd" /></svg>