<?xml version='1.0' encoding='utf-8'?>
<svg xmlns="http://www.w3.org/2000/svg" version="1.1" width="120" height="120"><path d="M 25,70 L 24,71 L 24,72 L 24,73 L 24,74 L 24,75 L 25,76 L 26,76 L 27,76 L 28,76 L 29,76 L 30,76 L 31,76 L 32,76 L 33,76 L 34,76 L 35,76 L 36,76 L 37,76 L 38,76 L 39,76 L 40,76 L 41,76 L 42,76 L 43,76 L 44,76 L 45,76 L 46,76 L 47,76 L 48,76 L 49,76 L 50,76 L 51,76 L 52,76 L 53,76 L 54,76 L 55,76 L 56,76 L 57,76 L 58,76 L 59,76 L 60,76 L 61,76 L 62,76 L 63,76 L 64,76 L 65,76 L 65,75 L 65,74 L 65,73 L 65,72 L 65,71 L 65,70 L 64,70 L 63,70 L 62,70 L 61,70 L 60,70 L 59,70 L 58,70 L 57,70 L 56,70 L 55,70 L 54,70 L 53,70 L 52,70 L 51,70 L 50,70 L 49,70 L 48,70 L 47,70 L 46,70 L 45,70 L 44,70 L 43,70 L 42,70 L 41,70 L 40,70 L 39,70 L 38,70 L 37,70 L 36,70 L 35,70 L 34,70 L 33,70 L 32,70 L 31,70 L 30,70 L 29,70 L 28,70 L 27,70 L 26,70 Z" stroke="white" fill="white" /><path d="M 25,55 L 24,56 L 24,57 L 24,58 L 24,59 L 24,60 L 25,61 L 26,61 L 27,61 L 28,61 L 29,61 L 30,61 L 31,61 L 32,61 L 33,61 L 34,61 L 35,61 L 36,61 L 37,61 L 38,61 L 39,61 L 40,61 L 41,61 L 42,61 L 43,61 L 44,61 L 45,61 L 46,61 L 47,61 L 48,61 L 49,61 L 50,61 L 51,61 L 52,61 L 53,61 L 54,61 L 55,61 L 56,61 L 57,61 L 58,61 L 59,61 L 60,61 L 61,61 L 62,61 L 63,61 L 64,61 L 65,61 L 66,61 L 67,61 L 68,61 L 69,61 L 70,61 L 71,61 L 72,61 L 73,61 L 74,61 L 75,61 L 76,61 L 77,61 L 78,61 L 79,61 L 80,61 L 81,61 L 82,61 L 83,61 L 84,61 L 85,61 L 86,61 L 87,61 L 88,61 L 89,61 L 90,61 L 91,61 L 92,61 L 93,61 L 94,61 L 95,61 L 95,60 L 95,59 L 95,58 L 95,57 L 95,56 L 95,55 L 94,55 L 93,55 L 92,55 L 91,55 L 90,55 L 89,55 L 88,55 L 87,55 L 86,55 L 85,55 L 84,55 L 83,55 L 82,55 L 81,55 L 80,55 L 79,55 L 78,55 L 77,55 L 76,55 L 75,55 L 74,55 L 73,55 L 72,55 L 71,55 L 70,55 L 69,55 L 68,55 L 67,55 L 66,55 L 65,55 L 64,55 L 63,55 L 62,55 L 61,55 L 60,55 L 59,55 L 58,55 L 57,55 L 56,55 L 55,55 L 54,55 L 53,55 L 52,55 L 51,55 L 50,55 L 49,55 L 48,55 L 47,55 L 46,55 L 45,55 L 44,55 L 43,55 L 42,55 L 41,55 L 40,55 L 39,55 L 38,55 L 37,55 L 36,55 L 35,55 L 34,55 L 33,55 L 32,55 L 31,55 L 30,55 L 29,55 L 28,55 L 27,55 L 26,55 Z" stroke="white" fill="white" /><path d="M 25,41 L 24,42 L 24,43 L 24,44 L 24,45 L 24,46 L 25,47 L 26,47 L 27,47 L 28,47 L 29,47 L 30,47 L 31,47 L 32,47 L 33,47 L 34,47 L 35,47 L 36,47 L 37,47 L 38,47 L 39,47 L 40,47 L 41,47 L 42,47 L 43,47 L 44,47 L 45,47 L 46,47 L 47,47 L 48,47 L 49,47 L 50,47 L 51,47 L 52,47 L 53,47 L 54,47 L 55,47 L 56,47 L 57,47 L 58,47 L 59,47 L 60,47 L 61,47 L 62,47 L 63,47 L 64,47 L 65,47 L 66,47 L 67,47 L 68,47 L 69,47 L 70,47 L 71,47 L 72,47 L 73,47 L 74,47 L 75,47 L 76,47 L 77,47 L 78,47 L 79,47 L 80,47 L 81,47 L 82,47 L 83,47 L 84,47 L 85,47 L 86,47 L 87,47 L 88,47 L 89,47 L 90,47 L 91,47 L 92,47 L 93,47 L 94,47 L 95,47 L 95,46 L 95,45 L 95,44 L 95,43 L 95,42 L 95,41 L 94,41 L 93,41 L 92,41 L 91,41 L 90,41 L 89,41 L 88,41 L 87,41 L 86,41 L 85,41 L 84,41 L 83,41 L 82,41 L 81,41 L 80,41 L 79,41 L 78,41 L 77,41 L 76,41 L 75,41 L 74,41 L 73,41 L 72,41 L 71,41 L 70,41 L 69,41 L 68,41 L 67,41 L 66,41 L 65,41 L 64,41 L 63,41 L 62,41 L 61,41 L 60,41 L 59,41 L 58,41 L 57,41 L 56,41 L 55,41 L 54,41 L 53,41 L 52,41 L 51,41 L 50,41 L 49,41 L 48,41 L 47,41 L 46,41 L 45,41 L 44,41 L 43,41 L 42,41 L 41,41 L 40,41 L 39,41 L 38,41 L 37,41 L 36,41 L 35,41 L 34,41 L 33,41 L 32,41 L 31,41 L 30,41 L 29,41 L 28,41 L 27,41 L 26,41 Z" stroke="white" fill="white" /><path d="M 25,26 L 24,27 L 24,28 L 24,29 L 24,30 L 24,31 L 25,32 L 26,32 L 27,32 L 28,32 L 29,32 L 30,32 L 31,32 L 32,32 L 33,32 L 34,32 L 35,32 L 36,32 L 37,32 L 38,32 L 39,32 L 40,32 L 41,32 L 42,32 L 43,32 L 44,32 L 45,32 L 46,32 L 47,32 L 48,32 L 49,32 L 50,32 L 51,32 L 52,32 L 53,32 L 54,32 L 55,32 L 56,32 L 57,32 L 58,32 L 59,32 L 60,32 L 61,32 L 62,32 L 63,32 L 64,32 L 65,32 L 66,32 L 67,32 L 68,32 L 69,32 L 70,32 L 71,32 L 72,32 L 73,32 L 74,32 L 75,32 L 76,32 L 77,32 L 78,32 L 79,32 L 80,32 L 81,32 L 82,32 L 83,32 L 84,32 L 85,32 L 86,32 L 87,32 L 88,32 L 89,32 L 90,32 L 91,32 L 92,32 L 93,32 L 94,32 L 95,32 L 95,31 L 95,30 L 95,29 L 95,28 L 95,27 L 95,26 L 94,26 L 93,26 L 92,26 L 91,26 L 90,26 L 89,26 L 88,26 L 87,26 L 86,26 L 85,26 L 84,26 L 83,26 L 82,26 L 81,26 L 80,26 L 79,26 L 78,26 L 77,26 L 76,26 L 75,26 L 74,26 L 73,26 L 72,26 L 71,26 L 70,26 L 69,26 L 68,26 L 67,26 L 66,26 L 65,26 L 64,26 L 63,26 L 62,26 L 61,26 L 60,26 L 59,26 L 58,26 L 57,26 L 56,26 L 55,26 L 54,26 L 53,26 L 52,26 L 51,26 L 50,26 L 49,26 L 48,26 L 47,26 L 46,26 L 45,26 L 44,26 L 43,26 L 42,26 L 41,26 L 40,26 L 39,26 L 38,26 L 37,26 L 36,26 L 35,26 L 34,26 L 33,26 L 32,26 L 31,26 L 30,26 L 29,26 L 28,26 L 27,26 L 26,26 Z" stroke="white" fill="white" /><path d="M 13,6 L 12,7 L 11,7 L 10,8 L 9,9 L 8,10 L 7,11 L 7,12 L 6,13 L 6,14 L 6,15 L 6,16 L 6,17 L 5,18 L 5,19 L 5,20 L 5,21 L 5,22 L 5,23 L 5,24 L 5,25 L 5,26 L 5,27 L 5,28 L 5,29 L 5,30 L 5,31 L 5,32 L 5,33 L 5,34 L 5,35 L 5,36 L 5,37 L 5,38 L 5,39 L 5,40 L 5,41 L 5,42 L 5,43 L 5,44 L 5,45 L 5,46 L 5,47 L 5,48 L 5,49 L 5,50 L 5,51 L 5,52 L 5,53 L 5,54 L 5,55 L 5,56 L 5,57 L 5,58 L 5,59 L 5,60 L 5,61 L 5,62 L 5,63 L 5,64 L 5,65 L 5,66 L 5,67 L 5,68 L 5,69 L 5,70 L 5,71 L 5,72 L 5,73 L 5,74 L 5,75 L 5,76 L 5,77 L 5,78 L 5,79 L 5,80 L 5,81 L 5,82 L 5,83 L 5,84 L 5,85 L 5,86 L 6,87 L 6,88 L 6,89 L 6,90 L 6,91 L 7,92 L 7,93 L 8,94 L 9,95 L 9,96 L 10,96 L 11,97 L 12,97 L 13,98 L 14,98 L 15,98 L 16,99 L 17,99 L 18,99 L 19,99 L 20,99 L 21,100 L 21,101 L 22,102 L 22,103 L 22,104 L 22,105 L 23,106 L 23,107 L 24,108 L 24,109 L 25,110 L 26,111 L 27,112 L 28,113 L 29,114 L 29,113 L 29,112 L 29,111 L 30,110 L 30,109 L 30,108 L 31,107 L 31,106 L 32,105 L 32,104 L 33,103 L 34,102 L 35,101 L 36,100 L 37,99 L 38,99 L 39,99 L 40,99 L 41,99 L 42,99 L 43,99 L 44,99 L 45,99 L 46,99 L 47,99 L 48,99 L 49,99 L 50,99 L 51,99 L 52,99 L 53,99 L 54,99 L 55,99 L 56,99 L 57,99 L 58,99 L 59,99 L 60,99 L 61,99 L 62,99 L 63,99 L 64,99 L 65,99 L 66,99 L 67,99 L 68,99 L 69,99 L 70,99 L 71,99 L 72,99 L 73,99 L 74,99 L 75,99 L 76,99 L 77,99 L 78,99 L 79,99 L 80,99 L 81,99 L 82,99 L 83,99 L 84,99 L 85,99 L 86,99 L 87,99 L 88,99 L 89,99 L 90,99 L 91,99 L 92,99 L 93,99 L 94,99 L 95,99 L 96,99 L 97,99 L 98,99 L 99,99 L 100,99 L 101,99 L 102,99 L 103,99 L 104,98 L 105,98 L 106,98 L 107,98 L 108,97 L 109,97 L 110,96 L 111,95 L 112,94 L 112,93 L 113,92 L 113,91 L 113,90 L 114,89 L 114,88 L 114,87 L 114,86 L 114,85 L 114,84 L 114,83 L 114,82 L 114,81 L 114,80 L 114,79 L 114,78 L 114,77 L 114,76 L 114,75 L 114,74 L 114,73 L 114,72 L 114,71 L 114,70 L 114,69 L 114,68 L 114,67 L 114,66 L 114,65 L 114,64 L 114,63 L 114,62 L 114,61 L 114,60 L 114,59 L 114,58 L 114,57 L 114,56 L 114,55 L 114,54 L 114,53 L 114,52 L 114,51 L 114,50 L 114,49 L 114,48 L 114,47 L 114,46 L 114,45 L 114,44 L 114,43 L 114,42 L 114,41 L 114,40 L 114,39 L 114,38 L 114,37 L 114,36 L 114,35 L 114,34 L 114,33 L 114,32 L 114,31 L 114,30 L 114,29 L 114,28 L 114,27 L 114,26 L 114,25 L 114,24 L 114,23 L 114,22 L 114,21 L 114,20 L 114,19 L 114,18 L 114,17 L 114,16 L 113,15 L 113,14 L 113,13 L 113,12 L 112,11 L 111,10 L 110,9 L 110,8 L 109,8 L 108,7 L 107,7 L 106,6 L 105,6 L 104,6 L 103,6 L 102,6 L 101,6 L 100,6 L 99,6 L 98,6 L 97,6 L 96,6 L 95,6 L 94,6 L 93,6 L 92,6 L 91,6 L 90,6 L 89,6 L 88,6 L 87,6 L 86,6 L 85,6 L 84,6 L 83,6 L 82,6 L 81,6 L 80,6 L 79,6 L 78,6 L 77,6 L 76,6 L 75,6 L 74,6 L 73,6 L 72,6 L 71,6 L 70,6 L 69,6 L 68,6 L 67,6 L 66,6 L 65,6 L 64,6 L 63,6 L 62,6 L 61,6 L 60,6 L 59,6 L 58,6 L 57,6 L 56,6 L 55,6 L 54,6 L 53,6 L 52,6 L 51,6 L 50,6 L 49,6 L 48,6 L 47,6 L 46,6 L 45,6 L 44,6 L 43,6 L 42,6 L 41,6 L 40,6 L 39,6 L 38,6 L 37,6 L 36,6 L 35,6 L 34,6 L 33,6 L 32,6 L 31,6 L 30,6 L 29,6 L 28,6 L 27,6 L 26,6 L 25,6 L 24,6 L 23,6 L 22,6 L 21,6 L 20,6 L 19,6 L 18,6 L 17,6 L 16,6 L 15,6 L 14,6 Z M 14,11 L 15,10 L 16,10 L 17,10 L 18,10 L 19,10 L 20,10 L 21,10 L 22,10 L 23,10 L 24,10 L 25,10 L 26,10 L 27,10 L 28,10 L 29,10 L 30,10 L 31,10 L 32,10 L 33,10 L 34,10 L 35,10 L 36,10 L 37,10 L 38,10 L 39,10 L 40,10 L 41,10 L 42,10 L 43,10 L 44,10 L 45,10 L 46,10 L 47,10 L 48,10 L 49,10 L 50,10 L 51,10 L 52,10 L 53,10 L 54,10 L 55,10 L 56,10 L 57,10 L 58,10 L 59,10 L 60,10 L 61,10 L 62,10 L 63,10 L 64,10 L 65,10 L 66,10 L 67,10 L 68,10 L 69,10 L 70,10 L 71,10 L 72,10 L 73,10 L 74,10 L 75,10 L 76,10 L 77,10 L 78,10 L 79,10 L 80,10 L 81,10 L 82,10 L 83,10 L 84,10 L 85,10 L 86,10 L 87,10 L 88,10 L 89,10 L 90,10 L 91,10 L 92,10 L 93,10 L 94,10 L 95,10 L 96,10 L 97,10 L 98,10 L 99,10 L 100,10 L 101,10 L 102,10 L 103,10 L 104,10 L 105,11 L 106,11 L 107,12 L 108,13 L 108,14 L 109,15 L 109,16 L 109,17 L 109,18 L 109,19 L 109,20 L 109,21 L 109,22 L 109,23 L 109,24 L 109,25 L 109,26 L 109,27 L 109,28 L 109,29 L 109,30 L 109,31 L 109,32 L 109,33 L 109,34 L 109,35 L 109,36 L 109,37 L 109,38 L 109,39 L 109,40 L 109,41 L 109,42 L 109,43 L 109,44 L 109,45 L 109,46 L 109,47 L 109,48 L 109,49 L 109,50 L 109,51 L 109,52 L 109,53 L 109,54 L 109,55 L 109,56 L 109,57 L 109,58 L 109,59 L 109,60 L 109,61 L 109,62 L 109,63 L 109,64 L 109,65 L 109,66 L 109,67 L 109,68 L 109,69 L 109,70 L 109,71 L 109,72 L 109,73 L 109,74 L 109,75 L 109,76 L 109,77 L 109,78 L 109,79 L 109,80 L 109,81 L 109,82 L 109,83 L 109,84 L 109,85 L 109,86 L 109,87 L 109,88 L 109,89 L 109,90 L 108,91 L 107,92 L 106,93 L 105,94 L 104,94 L 103,94 L 102,94 L 101,94 L 100,94 L 99,94 L 98,94 L 97,94 L 96,94 L 95,94 L 94,94 L 93,94 L 92,94 L 91,94 L 90,94 L 89,94 L 88,94 L 87,94 L 86,94 L 85,94 L 84,94 L 83,94 L 82,94 L 81,94 L 80,94 L 79,94 L 78,94 L 77,94 L 76,94 L 75,94 L 74,94 L 73,94 L 72,94 L 71,94 L 70,94 L 69,94 L 68,94 L 67,94 L 66,94 L 65,94 L 64,94 L 63,94 L 62,94 L 61,94 L 60,94 L 59,94 L 58,94 L 57,94 L 56,94 L 55,94 L 54,94 L 53,94 L 52,94 L 51,94 L 50,94 L 49,94 L 48,94 L 47,94 L 46,94 L 45,94 L 44,94 L 43,94 L 42,94 L 41,94 L 40,94 L 39,94 L 38,94 L 37,94 L 36,94 L 35,94 L 34,95 L 33,96 L 32,97 L 31,98 L 30,99 L 29,100 L 29,101 L 28,102 L 28,103 L 27,104 L 26,103 L 26,102 L 26,101 L 26,100 L 26,99 L 26,98 L 26,97 L 26,96 L 26,95 L 26,94 L 25,94 L 24,94 L 23,94 L 22,94 L 21,94 L 20,94 L 19,94 L 18,94 L 17,94 L 16,94 L 15,94 L 14,93 L 13,93 L 12,92 L 11,91 L 11,90 L 10,89 L 10,88 L 10,87 L 10,86 L 10,85 L 10,84 L 10,83 L 10,82 L 10,81 L 10,80 L 10,79 L 10,78 L 10,77 L 10,76 L 10,75 L 10,74 L 10,73 L 10,72 L 10,71 L 10,70 L 10,69 L 10,68 L 10,67 L 10,66 L 10,65 L 10,64 L 10,63 L 10,62 L 10,61 L 10,60 L 10,59 L 10,58 L 10,57 L 10,56 L 10,55 L 10,54 L 10,53 L 10,52 L 10,51 L 10,50 L 10,49 L 10,48 L 10,47 L 10,46 L 10,45 L 10,44 L 10,43 L 10,42 L 10,41 L 10,40 L 10,39 L 10,38 L 10,37 L 10,36 L 10,35 L 10,34 L 10,33 L 10,32 L 10,31 L 10,30 L 10,29 L 10,28 L 10,27 L 10,26 L 10,25 L 10,24 L 10,23 L 10,22 L 10,21 L 10,20 L 10,19 L 10,18 L 10,17 L 10,16 L 10,15 L 11,14 L 12,13 L 13,12 Z" stroke="white" fill="white" fill_rule="evenodd" /></svg>