<?xml version='1.0' encoding='utf-8'?>
<svg xmlns="http://www.w3.org/2000/svg" version="1.1" width="188" height="188"><path d="M 93,123 L 92,124 L 91,124 L 90,124 L 89,124 L 88,125 L 87,125 L 86,126 L 85,127 L 84,128 L 84,129 L 83,130 L 83,131 L 83,132 L 83,133 L 83,134 L 83,135 L 83,136 L 83,137 L 84,138 L 84,139 L 85,140 L 86,141 L 87,142 L 88,142 L 89,143 L 90,143 L 91,143 L 92,144 L 93,144 L 94,144 L 95,144 L 96,144 L 97,143 L 98,143 L 99,143 L 100,142 L 101,141 L 102,141 L 103,140 L 103,139 L 104,138 L 104,137 L 105,136 L 105,135 L 105,134 L 105,133 L 105,132 L 105,131 L 104,130 L 104,129 L 103,128 L 102,127 L 102,126 L 101,126 L 100,125 L 99,124 L 98,124 L 97,124 L 96,124 L 95,123 L 94,123 Z" stroke="white" fill="white" /><path d="M 84,48 L 84,49 L 84,50 L 84,51 L 84,52 L 84,53 L 84,54 L 84,55 L 84,56 L 84,57 L 84,58 L 84,59 L 84,60 L 84,61 L 84,62 L 84,63 L 85,64 L 85,65 L 85,66 L 85,67 L 85,68 L 85,69 L 85,70 L 85,71 L 85,72 L 85,73 L 85,74 L 85,75 L 85,76 L 85,77 L 85,78 L 85,79 L 85,80 L 85,81 L 85,82 L 85,83 L 85,84 L 85,85 L 85,86 L 85,87 L 85,88 L 85,89 L 85,90 L 85,91 L 85,92 L 85,93 L 85,94 L 86,95 L 86,96 L 86,97 L 86,98 L 86,99 L 86,100 L 86,101 L 86,102 L 86,103 L 86,104 L 86,105 L 86,106 L 86,107 L 86,108 L 86,109 L 86,110 L 86,111 L 86,112 L 86,113 L 87,113 L 88,113 L 89,113 L 90,113 L 91,113 L 92,113 L 93,113 L 94,113 L 95,113 L 96,113 L 97,113 L 98,113 L 99,113 L 100,113 L 101,113 L 101,112 L 101,111 L 101,110 L 101,109 L 101,108 L 101,107 L 102,106 L 102,105 L 102,104 L 102,103 L 102,102 L 102,101 L 102,100 L 102,99 L 102,98 L 102,97 L 102,96 L 102,95 L 102,94 L 102,93 L 102,92 L 102,91 L 102,90 L 102,89 L 102,88 L 102,87 L 102,86 L 102,85 L 102,84 L 102,83 L 102,82 L 102,81 L 102,80 L 102,79 L 102,78 L 102,77 L 103,76 L 103,75 L 103,74 L 103,73 L 103,72 L 103,71 L 103,70 L 103,69 L 103,68 L 103,67 L 103,66 L 103,65 L 103,64 L 103,63 L 103,62 L 103,61 L 103,60 L 103,59 L 103,58 L 103,57 L 103,56 L 103,55 L 103,54 L 103,53 L 103,52 L 103,51 L 103,50 L 103,49 L 103,48 L 102,48 L 101,48 L 100,48 L 99,48 L 98,48 L 97,48 L 96,48 L 95,48 L 94,48 L 93,48 L 92,48 L 91,48 L 90,48 L 89,48 L 88,48 L 87,48 L 86,48 L 85,48 Z" stroke="white" fill="white" /><path d="M 89,1 L 88,2 L 87,2 L 86,2 L 85,2 L 84,2 L 83,2 L 82,2 L 81,2 L 80,2 L 79,2 L 78,3 L 77,3 L 76,3 L 75,3 L 74,3 L 73,3 L 72,4 L 71,4 L 70,4 L 69,5 L 68,5 L 67,5 L 66,5 L 65,6 L 64,6 L 63,6 L 62,7 L 61,7 L 60,7 L 59,8 L 58,8 L 57,9 L 56,9 L 55,9 L 54,10 L 53,10 L 52,11 L 51,11 L 50,12 L 49,12 L 48,13 L 47,14 L 46,14 L 45,15 L 44,15 L 43,16 L 42,17 L 41,17 L 40,18 L 39,19 L 38,20 L 37,20 L 36,21 L 35,22 L 34,23 L 33,23 L 32,24 L 31,25 L 30,26 L 29,27 L 28,28 L 27,29 L 26,30 L 25,31 L 24,32 L 23,33 L 23,34 L 22,35 L 21,36 L 20,37 L 20,38 L 19,39 L 18,40 L 17,41 L 17,42 L 16,43 L 15,44 L 15,45 L 14,46 L 14,47 L 13,48 L 12,49 L 12,50 L 11,51 L 11,52 L 10,53 L 10,54 L 9,55 L 9,56 L 9,57 L 8,58 L 8,59 L 7,60 L 7,61 L 7,62 L 6,63 L 6,64 L 6,65 L 5,66 L 5,67 L 5,68 L 5,69 L 4,70 L 4,71 L 4,72 L 3,73 L 3,74 L 3,75 L 3,76 L 3,77 L 3,78 L 2,79 L 2,80 L 2,81 L 2,82 L 2,83 L 2,84 L 2,85 L 2,86 L 2,87 L 2,88 L 1,89 L 1,90 L 1,91 L 1,92 L 1,93 L 1,94 L 1,95 L 1,96 L 1,97 L 1,98 L 2,99 L 2,100 L 2,101 L 2,102 L 2,103 L 2,104 L 2,105 L 2,106 L 2,107 L 2,108 L 3,109 L 3,110 L 3,111 L 3,112 L 3,113 L 4,114 L 4,115 L 4,116 L 4,117 L 5,118 L 5,119 L 5,120 L 5,121 L 6,122 L 6,123 L 6,124 L 7,125 L 7,126 L 8,127 L 8,128 L 8,129 L 9,130 L 9,131 L 10,132 L 10,133 L 11,134 L 11,135 L 12,136 L 12,137 L 12,138 L 13,139 L 14,140 L 14,141 L 15,142 L 16,143 L 16,144 L 17,145 L 17,146 L 18,147 L 19,148 L 20,149 L 20,150 L 21,151 L 22,152 L 23,153 L 24,154 L 25,155 L 25,156 L 26,157 L 27,158 L 28,159 L 29,160 L 30,161 L 31,162 L 32,162 L 33,163 L 34,164 L 35,165 L 36,166 L 37,167 L 38,167 L 39,168 L 40,169 L 41,169 L 42,170 L 43,171 L 44,171 L 45,172 L 46,173 L 47,173 L 48,174 L 49,174 L 50,175 L 51,175 L 52,176 L 53,176 L 54,177 L 55,177 L 56,178 L 57,178 L 58,179 L 59,179 L 60,179 L 61,180 L 62,180 L 63,180 L 64,181 L 65,181 L 66,182 L 67,182 L 68,182 L 69,182 L 70,183 L 71,183 L 72,183 L 73,183 L 74,184 L 75,184 L 76,184 L 77,184 L 78,184 L 79,184 L 80,185 L 81,185 L 82,185 L 83,185 L 84,185 L 85,185 L 86,185 L 87,185 L 88,185 L 89,185 L 90,185 L 91,185 L 92,186 L 93,186 L 94,186 L 95,186 L 96,185 L 97,185 L 98,185 L 99,185 L 100,185 L 101,185 L 102,185 L 103,185 L 104,185 L 105,185 L 106,185 L 107,185 L 108,184 L 109,184 L 110,184 L 111,184 L 112,184 L 113,184 L 114,183 L 115,183 L 116,183 L 117,183 L 118,182 L 119,182 L 120,182 L 121,182 L 122,181 L 123,181 L 124,180 L 125,180 L 126,180 L 127,179 L 128,179 L 129,179 L 130,178 L 131,178 L 132,177 L 133,177 L 134,176 L 135,176 L 136,175 L 137,175 L 138,174 L 139,174 L 140,173 L 141,173 L 142,172 L 143,171 L 144,171 L 145,170 L 146,169 L 147,169 L 148,168 L 149,167 L 150,166 L 151,166 L 152,165 L 153,164 L 154,163 L 155,162 L 156,161 L 157,160 L 158,160 L 159,159 L 160,158 L 160,157 L 161,156 L 162,155 L 163,154 L 164,153 L 165,152 L 166,151 L 166,150 L 167,149 L 168,148 L 169,147 L 169,146 L 170,145 L 171,144 L 171,143 L 172,142 L 173,141 L 173,140 L 174,139 L 174,138 L 175,137 L 175,136 L 176,135 L 176,134 L 177,133 L 177,132 L 178,131 L 178,130 L 179,129 L 179,128 L 179,127 L 180,126 L 180,125 L 180,124 L 181,123 L 181,122 L 182,121 L 182,120 L 182,119 L 182,118 L 183,117 L 183,116 L 183,115 L 183,114 L 184,113 L 184,112 L 184,111 L 184,110 L 184,109 L 184,108 L 185,107 L 185,106 L 185,105 L 185,104 L 185,103 L 185,102 L 185,101 L 185,100 L 185,99 L 185,98 L 185,97 L 185,96 L 186,95 L 186,94 L 186,93 L 186,92 L 185,91 L 185,90 L 185,89 L 185,88 L 185,87 L 185,86 L 185,85 L 185,84 L 185,83 L 185,82 L 185,81 L 185,80 L 184,79 L 184,78 L 184,77 L 184,76 L 184,75 L 184,74 L 183,73 L 183,72 L 183,71 L 183,70 L 182,69 L 182,68 L 182,67 L 182,66 L 181,65 L 181,64 L 180,63 L 180,62 L 180,61 L 179,60 L 179,59 L 179,58 L 178,57 L 178,56 L 177,55 L 177,54 L 176,53 L 176,52 L 175,51 L 175,50 L 174,49 L 174,48 L 173,47 L 173,46 L 172,45 L 171,44 L 171,43 L 170,42 L 169,41 L 169,40 L 168,39 L 167,38 L 167,37 L 166,36 L 165,35 L 164,34 L 163,33 L 162,32 L 162,31 L 161,30 L 160,29 L 159,28 L 158,27 L 157,26 L 156,25 L 155,25 L 154,24 L 153,23 L 152,22 L 151,21 L 150,20 L 149,20 L 148,19 L 147,18 L 146,17 L 145,17 L 144,16 L 143,16 L 142,15 L 141,14 L 140,14 L 139,13 L 138,12 L 137,12 L 136,12 L 135,11 L 134,11 L 133,10 L 132,10 L 131,9 L 130,9 L 129,8 L 128,8 L 127,8 L 126,7 L 125,7 L 124,6 L 123,6 L 122,6 L 121,5 L 120,5 L 119,5 L 118,5 L 117,4 L 116,4 L 115,4 L 114,4 L 113,3 L 112,3 L 111,3 L 110,3 L 109,3 L 108,2 L 107,2 L 106,2 L 105,2 L 104,2 L 103,2 L 102,2 L 101,2 L 100,2 L 99,2 L 98,1 L 97,1 L 96,1 L 95,1 L 94,1 L 93,1 L 92,1 L 91,1 L 90,1 Z M 92,9 L 93,8 L 94,8 L 95,9 L 96,9 L 97,9 L 98,9 L 99,9 L 100,9 L 101,9 L 102,9 L 103,9 L 104,9 L 105,9 L 106,10 L 107,10 L 108,10 L 109,10 L 110,10 L 111,10 L 112,11 L 113,11 L 114,11 L 115,11 L 116,12 L 117,12 L 118,12 L 119,13 L 120,13 L 121,13 L 122,14 L 123,14 L 124,14 L 125,15 L 126,15 L 127,16 L 128,16 L 129,17 L 130,17 L 131,17 L 132,18 L 133,18 L 134,19 L 135,20 L 136,20 L 137,21 L 138,21 L 139,22 L 140,23 L 141,23 L 142,24 L 143,25 L 144,26 L 145,26 L 146,27 L 147,28 L 148,29 L 149,30 L 150,31 L 151,31 L 152,32 L 153,33 L 154,34 L 155,35 L 156,36 L 156,37 L 157,38 L 158,39 L 159,40 L 160,41 L 161,42 L 161,43 L 162,44 L 163,45 L 164,46 L 164,47 L 165,48 L 166,49 L 166,50 L 167,51 L 167,52 L 168,53 L 168,54 L 169,55 L 169,56 L 170,57 L 170,58 L 171,59 L 171,60 L 172,61 L 172,62 L 173,63 L 173,64 L 173,65 L 174,66 L 174,67 L 174,68 L 175,69 L 175,70 L 175,71 L 175,72 L 176,73 L 176,74 L 176,75 L 176,76 L 177,77 L 177,78 L 177,79 L 177,80 L 177,81 L 178,82 L 178,83 L 178,84 L 178,85 L 178,86 L 178,87 L 178,88 L 178,89 L 178,90 L 178,91 L 178,92 L 178,93 L 178,94 L 178,95 L 178,96 L 178,97 L 178,98 L 178,99 L 178,100 L 178,101 L 178,102 L 178,103 L 178,104 L 177,105 L 177,106 L 177,107 L 177,108 L 177,109 L 177,110 L 176,111 L 176,112 L 176,113 L 176,114 L 175,115 L 175,116 L 175,117 L 175,118 L 174,119 L 174,120 L 174,121 L 173,122 L 173,123 L 173,124 L 172,125 L 172,126 L 171,127 L 171,128 L 170,129 L 170,130 L 169,131 L 169,132 L 168,133 L 168,134 L 167,135 L 167,136 L 166,137 L 165,138 L 165,139 L 164,140 L 164,141 L 163,142 L 162,143 L 161,144 L 161,145 L 160,146 L 159,147 L 158,148 L 157,149 L 156,150 L 155,151 L 155,152 L 154,153 L 153,154 L 152,155 L 151,155 L 150,156 L 149,157 L 148,158 L 147,159 L 146,160 L 145,161 L 144,161 L 143,162 L 142,163 L 141,164 L 140,164 L 139,165 L 138,165 L 137,166 L 136,167 L 135,167 L 134,168 L 133,168 L 132,169 L 131,169 L 130,170 L 129,170 L 128,171 L 127,171 L 126,172 L 125,172 L 124,173 L 123,173 L 122,173 L 121,174 L 120,174 L 119,174 L 118,175 L 117,175 L 116,175 L 115,175 L 114,176 L 113,176 L 112,176 L 111,176 L 110,177 L 109,177 L 108,177 L 107,177 L 106,177 L 105,177 L 104,178 L 103,178 L 102,178 L 101,178 L 100,178 L 99,178 L 98,178 L 97,178 L 96,178 L 95,178 L 94,178 L 93,178 L 92,178 L 91,178 L 90,178 L 89,178 L 88,178 L 87,178 L 86,178 L 85,178 L 84,178 L 83,178 L 82,178 L 81,177 L 80,177 L 79,177 L 78,177 L 77,177 L 76,176 L 75,176 L 74,176 L 73,176 L 72,175 L 71,175 L 70,175 L 69,175 L 68,174 L 67,174 L 66,174 L 65,173 L 64,173 L 63,173 L 62,172 L 61,172 L 60,171 L 59,171 L 58,170 L 57,170 L 56,169 L 55,169 L 54,168 L 53,168 L 52,167 L 51,167 L 50,166 L 49,166 L 48,165 L 47,164 L 46,164 L 45,163 L 44,162 L 43,161 L 42,161 L 41,160 L 40,159 L 39,158 L 38,157 L 37,156 L 36,156 L 35,155 L 34,154 L 33,153 L 32,152 L 31,151 L 31,150 L 30,149 L 29,148 L 28,147 L 27,146 L 26,145 L 26,144 L 25,143 L 24,142 L 23,141 L 23,140 L 22,139 L 21,138 L 21,137 L 20,136 L 20,135 L 19,134 L 18,133 L 18,132 L 17,131 L 17,130 L 17,129 L 16,128 L 16,127 L 15,126 L 15,125 L 14,124 L 14,123 L 14,122 L 13,121 L 13,120 L 13,119 L 12,118 L 12,117 L 12,116 L 11,115 L 11,114 L 11,113 L 11,112 L 10,111 L 10,110 L 10,109 L 10,108 L 10,107 L 10,106 L 9,105 L 9,104 L 9,103 L 9,102 L 9,101 L 9,100 L 9,99 L 9,98 L 9,97 L 9,96 L 9,95 L 8,94 L 8,93 L 9,92 L 9,91 L 9,90 L 9,89 L 9,88 L 9,87 L 9,86 L 9,85 L 9,84 L 9,83 L 9,82 L 9,81 L 10,80 L 10,79 L 10,78 L 10,77 L 10,76 L 11,75 L 11,74 L 11,73 L 11,72 L 12,71 L 12,70 L 12,69 L 12,68 L 13,67 L 13,66 L 14,65 L 14,64 L 14,63 L 15,62 L 15,61 L 16,60 L 16,59 L 16,58 L 17,57 L 17,56 L 18,55 L 18,54 L 19,53 L 20,52 L 20,51 L 21,50 L 21,49 L 22,48 L 23,47 L 23,46 L 24,45 L 25,44 L 25,43 L 26,42 L 27,41 L 28,40 L 29,39 L 29,38 L 30,37 L 31,36 L 32,35 L 33,34 L 34,33 L 35,32 L 36,31 L 37,30 L 38,29 L 39,29 L 40,28 L 41,27 L 42,26 L 43,25 L 44,25 L 45,24 L 46,23 L 47,23 L 48,22 L 49,21 L 50,21 L 51,20 L 52,20 L 53,19 L 54,18 L 55,18 L 56,17 L 57,17 L 58,16 L 59,16 L 60,16 L 61,15 L 62,15 L 63,14 L 64,14 L 65,14 L 66,13 L 67,13 L 68,12 L 69,12 L 70,12 L 71,12 L 72,11 L 73,11 L 74,11 L 75,11 L 76,10 L 77,10 L 78,10 L 79,10 L 80,10 L 81,9 L 82,9 L 83,9 L 84,9 L 85,9 L 86,9 L 87,9 L 88,9 L 89,9 L 90,9 L 91,9 Z" stroke="white" fill="white" fill_rule="evenodd" /></svg>