<svg xmlns="http://www.w3.org/2000/svg" width="29.283" height="27.283" viewBox="0 0 29.283 27.283">
  <defs>
    <style>
      .cls-1 {
        fill: none;
        stroke: #fff;
        stroke-linejoin: round;
        stroke-width: 2px;
      }
    </style>
  </defs>
  <g id="组_8765" data-name="组 8765" transform="translate(-924.319 -8548.047)">
    <line id="直线_2306" data-name="直线 2306" class="cls-1" y2="15.874" transform="translate(928.452 8559.456)"/>
    <line id="直线_2307" data-name="直线 2307" class="cls-1" y2="5.542" transform="translate(928.452 8548.047)"/>
    <line id="直线_2308" data-name="直线 2308" class="cls-1" y2="8.783" transform="translate(935.458 8566.547)"/>
    <line id="直线_2309" data-name="直线 2309" class="cls-1" y2="12.732" transform="translate(935.458 8548.047)"/>
    <line id="直线_2310" data-name="直线 2310" class="cls-1" y2="15.029" transform="translate(942.463 8560.301)"/>
    <line id="直线_2311" data-name="直线 2311" class="cls-1" y2="6.44" transform="translate(942.463 8548.047)"/>
    <line id="直线_2312" data-name="直线 2312" class="cls-1" y2="4.904" transform="translate(949.469 8570.427)"/>
    <line id="直线_2313" data-name="直线 2313" class="cls-1" y2="16.229" transform="translate(949.469 8548.047)"/>
    <path id="路径_4423" data-name="路径 4423" class="cls-1" d="M931.586,8560.566a3.133,3.133,0,1,1-3.134-3.133A3.133,3.133,0,0,1,931.586,8560.566Z" transform="translate(0 -4.051)"/>
    <path id="路径_4424" data-name="路径 4424" class="cls-1" d="M943.911,8573.178a3.133,3.133,0,1,1-3.133-3.133A3.133,3.133,0,0,1,943.911,8573.178Z" transform="translate(-5.32 -9.495)"/>
    <path id="路径_4425" data-name="路径 4425" class="cls-1" d="M956.236,8562.152a3.133,3.133,0,1,1-3.134-3.133A3.133,3.133,0,0,1,956.236,8562.152Z" transform="translate(-10.64 -4.736)"/>
    <path id="路径_4426" data-name="路径 4426" class="cls-1" d="M968.561,8580.111a3.133,3.133,0,1,1-3.132-3.133A3.132,3.132,0,0,1,968.561,8580.111Z" transform="translate(-15.959 -12.487)"/>
  </g>
</svg>
