<svg xmlns="http://www.w3.org/2000/svg" width="29.11" height="29.261" viewBox="0 0 29.11 29.261">
  <defs>
    <style>
      .cls-1 {
        fill: #fff;
      }
    </style>
  </defs>
  <g id="组_9755" data-name="组 9755" transform="translate(-300.864 -12314.268)">
    <path id="路径_5753" data-name="路径 5753" class="cls-1" d="M328.743,12316.939v24.9h-25.47v-24.9h25.47m.911-1.171h-27.29v27.24h27.29v-27.24Z" transform="translate(-0.59 -0.591)"/>
    <g id="组_9746" data-name="组 9746" transform="translate(327.333 12314.268)">
      <rect id="矩形_3417" data-name="矩形 3417" class="cls-1" width="2.64" height="2.64" transform="translate(0)"/>
      <path id="路径_5754" data-name="路径 5754" class="cls-1" d="M346.24,12315.179v.817h-.819v-.817h.819m.911-.911H344.51v2.64h2.641v-2.64Z" transform="translate(-344.51 -12314.268)"/>
    </g>
    <g id="组_9747" data-name="组 9747" transform="translate(327.333 12340.889)">
      <rect id="矩形_3418" data-name="矩形 3418" class="cls-1" width="2.64" height="2.64" transform="translate(0 0)"/>
      <path id="路径_5755" data-name="路径 5755" class="cls-1" d="M346.24,12349.105v.817h-.819v-.817h.819m.911-.91H344.51v2.639h2.641v-2.639Z" transform="translate(-344.51 -12348.194)"/>
    </g>
    <g id="组_9748" data-name="组 9748" transform="translate(300.864 12314.268)">
      <rect id="矩形_3419" data-name="矩形 3419" class="cls-1" width="2.639" height="2.64"/>
      <path id="路径_5756" data-name="路径 5756" class="cls-1" d="M302.592,12315.179v.817h-.818v-.817h.818m.911-.911h-2.639v2.64H303.5v-2.64Z" transform="translate(-300.864 -12314.268)"/>
    </g>
    <g id="组_9749" data-name="组 9749" transform="translate(300.864 12340.889)">
      <rect id="矩形_3420" data-name="矩形 3420" class="cls-1" width="2.639" height="2.64" transform="translate(0 0)"/>
      <path id="路径_5757" data-name="路径 5757" class="cls-1" d="M302.592,12349.105v.817h-.818v-.817h.818m.911-.91h-2.639v2.639H303.5v-2.639Z" transform="translate(-300.864 -12348.194)"/>
    </g>
    <g id="组_9750" data-name="组 9750" transform="translate(314.098 12314.268)">
      <rect id="矩形_3421" data-name="矩形 3421" class="cls-1" width="2.64" height="2.64" transform="translate(0)"/>
      <path id="路径_5758" data-name="路径 5758" class="cls-1" d="M324.416,12315.179v.817H323.6v-.817h.819m.911-.911h-2.64v2.64h2.64v-2.64Z" transform="translate(-322.686 -12314.268)"/>
    </g>
    <g id="组_9751" data-name="组 9751" transform="translate(327.333 12327.449)">
      <rect id="矩形_3422" data-name="矩形 3422" class="cls-1" width="2.64" height="2.64" transform="translate(0)"/>
      <path id="路径_5759" data-name="路径 5759" class="cls-1" d="M346.24,12331.978v.817h-.819v-.817h.819m.911-.911H344.51v2.639h2.641v-2.639Z" transform="translate(-344.51 -12331.065)"/>
    </g>
    <g id="组_9752" data-name="组 9752" transform="translate(300.864 12327.449)">
      <rect id="矩形_3423" data-name="矩形 3423" class="cls-1" width="2.639" height="2.64"/>
      <path id="路径_5760" data-name="路径 5760" class="cls-1" d="M302.592,12331.978v.817h-.818v-.817h.818m.911-.911h-2.639v2.639H303.5v-2.639Z" transform="translate(-300.864 -12331.065)"/>
    </g>
    <g id="组_9753" data-name="组 9753" transform="translate(314.098 12340.889)">
      <rect id="矩形_3424" data-name="矩形 3424" class="cls-1" width="2.64" height="2.64" transform="translate(0 0)"/>
      <path id="路径_5761" data-name="路径 5761" class="cls-1" d="M324.416,12349.105v.817H323.6v-.817h.819m.911-.91h-2.64v2.639h2.64v-2.639Z" transform="translate(-322.686 -12348.194)"/>
    </g>
    <g id="组_9754" data-name="组 9754" transform="translate(314.098 12327.449)">
      <rect id="矩形_3425" data-name="矩形 3425" class="cls-1" width="2.64" height="2.64" transform="translate(0)"/>
      <path id="路径_5762" data-name="路径 5762" class="cls-1" d="M324.416,12331.978v.817H323.6v-.817h.819m.911-.911h-2.64v2.639h2.64v-2.639Z" transform="translate(-322.686 -12331.065)"/>
    </g>
  </g>
</svg>
