<?xml version='1.0' encoding='utf-8'?>
<svg xmlns="http://www.w3.org/2000/svg" version="1.1" width="120" height="120"><path d="M 30,84 L 29,85 L 28,86 L 28,87 L 28,88 L 28,89 L 29,90 L 30,90 L 31,90 L 32,90 L 33,90 L 34,90 L 35,90 L 36,90 L 37,90 L 38,90 L 39,90 L 40,90 L 41,90 L 42,90 L 43,90 L 44,90 L 45,90 L 46,90 L 47,90 L 48,90 L 49,90 L 50,90 L 51,90 L 52,90 L 53,90 L 54,90 L 55,90 L 56,90 L 57,90 L 58,90 L 59,90 L 60,90 L 61,90 L 62,90 L 63,90 L 64,90 L 65,90 L 66,90 L 67,90 L 68,90 L 69,90 L 70,90 L 71,90 L 72,89 L 72,88 L 72,87 L 72,86 L 71,85 L 70,84 L 69,84 L 68,84 L 67,84 L 66,84 L 65,84 L 64,84 L 63,84 L 62,84 L 61,84 L 60,84 L 59,84 L 58,84 L 57,84 L 56,84 L 55,84 L 54,84 L 53,84 L 52,84 L 51,84 L 50,84 L 49,84 L 48,84 L 47,84 L 46,84 L 45,84 L 44,84 L 43,84 L 42,84 L 41,84 L 40,84 L 39,84 L 38,84 L 37,84 L 36,84 L 35,84 L 34,84 L 33,84 L 32,84 L 31,84 Z" stroke="white" fill="white" /><path d="M 66,19 L 65,20 L 64,20 L 63,20 L 62,21 L 61,22 L 60,23 L 59,24 L 58,25 L 58,26 L 58,27 L 57,28 L 57,29 L 57,30 L 57,31 L 57,32 L 57,33 L 57,34 L 57,35 L 58,36 L 58,37 L 59,38 L 60,39 L 60,40 L 61,41 L 62,41 L 63,42 L 64,42 L 65,43 L 66,43 L 67,43 L 68,43 L 69,43 L 70,43 L 71,43 L 72,43 L 73,43 L 74,42 L 75,42 L 76,41 L 77,41 L 78,40 L 79,39 L 79,38 L 80,37 L 80,36 L 81,35 L 81,34 L 81,33 L 81,32 L 81,31 L 81,30 L 81,29 L 81,28 L 81,27 L 80,26 L 80,25 L 79,24 L 78,23 L 77,22 L 76,21 L 75,20 L 74,20 L 73,20 L 72,19 L 71,19 L 70,19 L 69,19 L 68,19 L 67,19 Z M 66,26 L 67,25 L 68,25 L 69,25 L 70,25 L 71,25 L 72,26 L 73,27 L 74,28 L 75,29 L 75,30 L 75,31 L 75,32 L 75,33 L 74,34 L 74,35 L 73,36 L 72,36 L 71,37 L 70,37 L 69,37 L 68,37 L 67,37 L 66,36 L 65,36 L 64,35 L 64,34 L 63,33 L 63,32 L 63,31 L 63,30 L 63,29 L 64,28 L 65,27 Z" stroke="white" fill="white" fill_rule="evenodd" /><path d="M 31,15 L 30,16 L 29,16 L 28,17 L 27,18 L 26,18 L 25,19 L 24,20 L 24,21 L 23,22 L 23,23 L 22,24 L 22,25 L 21,26 L 21,27 L 21,28 L 21,29 L 21,30 L 21,31 L 21,32 L 21,33 L 21,34 L 22,35 L 22,36 L 22,37 L 23,38 L 24,39 L 24,40 L 25,41 L 26,42 L 27,43 L 28,43 L 29,44 L 30,44 L 31,45 L 30,46 L 29,46 L 28,46 L 27,46 L 26,46 L 25,46 L 24,46 L 23,46 L 22,46 L 21,46 L 20,46 L 19,46 L 18,46 L 17,46 L 16,47 L 15,47 L 14,47 L 13,48 L 12,49 L 12,50 L 12,51 L 12,52 L 12,53 L 12,54 L 12,55 L 12,56 L 12,57 L 12,58 L 12,59 L 12,60 L 12,61 L 12,62 L 12,63 L 12,64 L 12,65 L 12,66 L 12,67 L 12,68 L 12,69 L 12,70 L 12,71 L 12,72 L 12,73 L 12,74 L 12,75 L 12,76 L 12,77 L 12,78 L 12,79 L 12,80 L 12,81 L 12,82 L 12,83 L 12,84 L 12,85 L 12,86 L 12,87 L 12,88 L 12,89 L 12,90 L 12,91 L 12,92 L 12,93 L 12,94 L 12,95 L 12,96 L 12,97 L 12,98 L 12,99 L 12,100 L 13,101 L 13,102 L 14,102 L 15,103 L 16,103 L 17,103 L 18,103 L 19,103 L 20,103 L 21,103 L 22,103 L 23,103 L 24,103 L 25,103 L 26,103 L 27,103 L 28,103 L 29,103 L 30,103 L 31,103 L 32,103 L 33,103 L 34,103 L 35,103 L 36,103 L 37,103 L 38,103 L 39,103 L 40,103 L 41,103 L 42,103 L 43,103 L 44,103 L 45,103 L 46,103 L 47,103 L 48,103 L 49,103 L 50,103 L 51,103 L 52,103 L 53,103 L 54,103 L 55,103 L 56,103 L 57,103 L 58,103 L 59,103 L 60,103 L 61,103 L 62,103 L 63,103 L 64,103 L 65,103 L 66,103 L 67,103 L 68,103 L 69,103 L 70,103 L 71,103 L 72,103 L 73,103 L 74,103 L 75,103 L 76,103 L 77,103 L 78,103 L 79,103 L 80,103 L 81,103 L 82,103 L 83,103 L 84,103 L 85,103 L 86,102 L 87,102 L 87,101 L 88,100 L 88,99 L 88,98 L 88,97 L 88,96 L 88,95 L 88,94 L 88,93 L 88,92 L 89,91 L 90,91 L 91,92 L 92,92 L 93,93 L 94,93 L 95,94 L 96,94 L 97,95 L 98,95 L 99,96 L 100,97 L 101,97 L 102,98 L 103,98 L 104,99 L 105,99 L 106,99 L 107,99 L 108,99 L 109,99 L 109,98 L 109,97 L 109,96 L 109,95 L 109,94 L 109,93 L 109,92 L 109,91 L 109,90 L 109,89 L 109,88 L 109,87 L 109,86 L 109,85 L 109,84 L 109,83 L 109,82 L 109,81 L 109,80 L 109,79 L 109,78 L 109,77 L 109,76 L 109,75 L 109,74 L 109,73 L 109,72 L 109,71 L 109,70 L 109,69 L 109,68 L 109,67 L 109,66 L 109,65 L 109,64 L 109,63 L 109,62 L 109,61 L 109,60 L 109,59 L 109,58 L 109,57 L 109,56 L 109,55 L 109,54 L 109,53 L 109,52 L 109,51 L 108,50 L 107,50 L 106,50 L 105,50 L 104,51 L 103,51 L 102,52 L 101,53 L 100,53 L 99,54 L 98,54 L 97,55 L 96,55 L 95,56 L 94,57 L 93,57 L 92,58 L 91,58 L 90,59 L 89,59 L 88,58 L 88,57 L 88,56 L 88,55 L 88,54 L 88,53 L 88,52 L 88,51 L 88,50 L 88,49 L 87,48 L 86,47 L 85,47 L 84,47 L 83,46 L 82,46 L 81,46 L 80,46 L 79,46 L 78,46 L 77,46 L 76,46 L 75,46 L 74,46 L 73,46 L 72,46 L 71,46 L 70,46 L 69,46 L 68,46 L 67,46 L 66,46 L 65,46 L 64,46 L 63,46 L 62,46 L 61,46 L 60,46 L 59,46 L 58,46 L 57,46 L 56,46 L 55,46 L 54,46 L 53,46 L 52,46 L 51,46 L 50,46 L 49,46 L 48,46 L 47,46 L 46,46 L 45,46 L 44,46 L 43,46 L 42,45 L 43,44 L 44,44 L 45,43 L 46,43 L 47,42 L 48,41 L 49,40 L 49,39 L 50,38 L 50,37 L 51,36 L 51,35 L 52,34 L 52,33 L 52,32 L 52,31 L 52,30 L 52,29 L 52,28 L 52,27 L 51,26 L 51,25 L 51,24 L 50,23 L 50,22 L 49,21 L 48,20 L 48,19 L 47,18 L 46,18 L 45,17 L 44,16 L 43,16 L 42,16 L 41,15 L 40,15 L 39,15 L 38,15 L 37,15 L 36,15 L 35,15 L 34,15 L 33,15 L 32,15 Z M 102,59 L 103,58 L 104,59 L 104,60 L 104,61 L 104,62 L 104,63 L 104,64 L 104,65 L 104,66 L 104,67 L 104,68 L 104,69 L 104,70 L 104,71 L 104,72 L 104,73 L 104,74 L 104,75 L 104,76 L 104,77 L 104,78 L 104,79 L 104,80 L 104,81 L 104,82 L 104,83 L 104,84 L 104,85 L 104,86 L 104,87 L 104,88 L 104,89 L 104,90 L 103,91 L 102,91 L 101,90 L 100,90 L 99,89 L 98,89 L 97,88 L 96,87 L 95,87 L 94,86 L 93,86 L 92,85 L 91,85 L 90,84 L 89,84 L 88,83 L 88,82 L 88,81 L 88,80 L 88,79 L 88,78 L 88,77 L 88,76 L 88,75 L 88,74 L 88,73 L 88,72 L 88,71 L 88,70 L 88,69 L 88,68 L 88,67 L 89,66 L 90,66 L 91,65 L 92,65 L 93,64 L 94,64 L 95,63 L 96,62 L 97,62 L 98,61 L 99,61 L 100,60 L 101,60 Z" stroke="white" fill="white" fill_rule="evenodd" /><path d="M 17,53 L 18,52 L 19,52 L 20,52 L 21,52 L 22,52 L 23,52 L 24,52 L 25,52 L 26,52 L 27,52 L 28,52 L 29,52 L 30,52 L 31,52 L 32,52 L 33,52 L 34,52 L 35,52 L 36,52 L 37,52 L 38,52 L 39,52 L 40,52 L 41,52 L 42,52 L 43,52 L 44,52 L 45,52 L 46,52 L 47,52 L 48,52 L 49,52 L 50,52 L 51,52 L 52,52 L 53,52 L 54,52 L 55,52 L 56,52 L 57,52 L 58,52 L 59,52 L 60,52 L 61,52 L 62,52 L 63,52 L 64,52 L 65,52 L 66,52 L 67,52 L 68,52 L 69,52 L 70,52 L 71,52 L 72,52 L 73,52 L 74,52 L 75,52 L 76,52 L 77,52 L 78,52 L 79,52 L 80,52 L 81,52 L 82,52 L 83,53 L 83,54 L 83,55 L 83,56 L 83,57 L 83,58 L 83,59 L 83,60 L 83,61 L 83,62 L 83,63 L 83,64 L 83,65 L 83,66 L 83,67 L 83,68 L 83,69 L 83,70 L 83,71 L 83,72 L 83,73 L 83,74 L 83,75 L 83,76 L 83,77 L 83,78 L 83,79 L 83,80 L 83,81 L 83,82 L 83,83 L 83,84 L 83,85 L 83,86 L 83,87 L 83,88 L 83,89 L 83,90 L 83,91 L 83,92 L 83,93 L 83,94 L 83,95 L 83,96 L 82,97 L 81,97 L 80,97 L 79,97 L 78,97 L 77,97 L 76,97 L 75,97 L 74,97 L 73,97 L 72,97 L 71,97 L 70,97 L 69,97 L 68,97 L 67,97 L 66,97 L 65,97 L 64,97 L 63,97 L 62,97 L 61,97 L 60,97 L 59,97 L 58,97 L 57,97 L 56,97 L 55,97 L 54,97 L 53,97 L 52,97 L 51,97 L 50,97 L 49,97 L 48,97 L 47,97 L 46,97 L 45,97 L 44,97 L 43,97 L 42,97 L 41,97 L 40,97 L 39,97 L 38,97 L 37,97 L 36,97 L 35,97 L 34,97 L 33,97 L 32,97 L 31,97 L 30,97 L 29,97 L 28,97 L 27,97 L 26,97 L 25,97 L 24,97 L 23,97 L 22,97 L 21,97 L 20,97 L 19,97 L 18,97 L 17,96 L 17,95 L 17,94 L 17,93 L 17,92 L 17,91 L 17,90 L 17,89 L 17,88 L 17,87 L 17,86 L 17,85 L 17,84 L 17,83 L 17,82 L 17,81 L 17,80 L 17,79 L 17,78 L 17,77 L 17,76 L 17,75 L 17,74 L 17,73 L 17,72 L 17,71 L 17,70 L 17,69 L 17,68 L 17,67 L 17,66 L 17,65 L 17,64 L 17,63 L 17,62 L 17,61 L 17,60 L 17,59 L 17,58 L 17,57 L 17,56 L 17,55 L 17,54 Z" stroke="white" fill="white" /><path d="M 32,22 L 33,21 L 34,21 L 35,21 L 36,21 L 37,21 L 38,21 L 39,21 L 40,21 L 41,22 L 42,23 L 43,23 L 44,24 L 44,25 L 45,26 L 46,27 L 46,28 L 46,29 L 46,30 L 46,31 L 46,32 L 46,33 L 45,34 L 44,35 L 44,36 L 43,37 L 42,38 L 41,38 L 40,39 L 39,39 L 38,39 L 37,40 L 36,40 L 35,39 L 34,39 L 33,39 L 32,38 L 31,38 L 30,37 L 29,36 L 29,35 L 28,34 L 27,33 L 27,32 L 27,31 L 27,30 L 27,29 L 27,28 L 27,27 L 28,26 L 29,25 L 29,24 L 30,23 L 31,23 Z" stroke="white" fill="white" /></svg>