<?xml version='1.0' encoding='utf-8'?>
<svg xmlns="http://www.w3.org/2000/svg" version="1.1" width="249" height="249">
	<path
		d="M 173,126 L 172,127 L 171,127 L 170,127 L 170,128 L 169,129 L 168,129 L 167,129 L 166,130 L 165,131 L 164,132 L 164,133 L 163,134 L 162,134 L 161,135 L 161,136 L 160,137 L 160,138 L 160,139 L 159,140 L 158,140 L 158,141 L 158,142 L 158,143 L 158,144 L 158,145 L 158,146 L 159,146 L 160,147 L 159,148 L 158,148 L 158,149 L 158,150 L 158,151 L 158,152 L 158,153 L 158,154 L 159,154 L 160,155 L 159,156 L 159,157 L 159,158 L 160,159 L 160,160 L 161,161 L 162,161 L 163,161 L 164,162 L 164,163 L 164,164 L 165,165 L 166,166 L 167,167 L 168,167 L 169,166 L 170,167 L 170,168 L 170,169 L 171,169 L 172,169 L 173,170 L 174,170 L 175,170 L 176,170 L 176,169 L 177,168 L 178,169 L 178,170 L 178,171 L 179,171 L 180,171 L 181,171 L 182,171 L 183,171 L 183,170 L 183,169 L 184,168 L 185,169 L 185,170 L 185,171 L 186,171 L 187,171 L 188,171 L 189,170 L 190,170 L 191,170 L 191,169 L 191,168 L 191,167 L 192,166 L 193,167 L 194,167 L 195,167 L 196,166 L 197,165 L 198,164 L 198,163 L 197,162 L 198,161 L 199,161 L 200,161 L 201,160 L 201,159 L 202,158 L 202,157 L 202,156 L 201,155 L 200,154 L 201,153 L 202,153 L 203,153 L 204,153 L 204,152 L 204,151 L 204,150 L 204,149 L 204,148 L 203,148 L 202,148 L 201,147 L 202,146 L 203,146 L 204,146 L 204,145 L 204,144 L 204,143 L 204,142 L 204,141 L 203,141 L 202,141 L 201,141 L 200,141 L 199,140 L 200,139 L 201,139 L 202,138 L 202,137 L 202,136 L 201,135 L 201,134 L 200,133 L 199,133 L 198,133 L 197,132 L 197,131 L 196,130 L 195,129 L 194,128 L 193,128 L 192,128 L 191,127 L 190,127 L 189,127 L 188,126 L 187,126 L 186,126 L 185,126 L 185,127 L 184,128 L 183,127 L 183,126 L 182,126 L 181,126 L 180,126 L 179,126 L 178,126 L 178,127 L 177,128 L 176,127 L 176,126 L 175,126 L 174,126 Z M 177,135 L 178,134 L 179,134 L 180,134 L 181,134 L 182,134 L 183,134 L 184,135 L 185,135 L 186,135 L 187,136 L 188,136 L 189,137 L 190,138 L 191,139 L 192,140 L 193,141 L 193,142 L 194,143 L 194,144 L 194,145 L 195,146 L 195,147 L 195,148 L 195,149 L 195,150 L 194,151 L 194,152 L 194,153 L 193,154 L 193,155 L 192,156 L 191,157 L 190,158 L 189,159 L 188,160 L 187,160 L 186,161 L 185,161 L 184,162 L 183,162 L 182,162 L 181,162 L 180,162 L 179,162 L 178,162 L 177,162 L 176,161 L 175,161 L 174,161 L 173,160 L 172,159 L 171,158 L 170,157 L 169,156 L 168,155 L 168,154 L 167,153 L 167,152 L 167,151 L 167,150 L 167,149 L 166,148 L 167,147 L 167,146 L 167,145 L 167,144 L 167,143 L 168,142 L 168,141 L 169,140 L 170,139 L 171,138 L 172,137 L 173,136 L 174,136 L 175,135 L 176,135 Z"
		stroke="white" fill="white" fill_rule="evenodd" />
	<path
		d="M 58,119 L 57,120 L 56,120 L 55,120 L 55,121 L 55,122 L 54,123 L 53,122 L 52,122 L 51,122 L 50,123 L 49,124 L 48,125 L 47,126 L 47,127 L 46,128 L 45,128 L 44,128 L 43,129 L 43,130 L 42,131 L 42,132 L 41,133 L 41,134 L 41,135 L 42,135 L 43,136 L 42,137 L 41,137 L 40,137 L 39,137 L 39,138 L 39,139 L 39,140 L 39,141 L 39,142 L 39,143 L 39,144 L 40,144 L 41,144 L 42,145 L 41,146 L 40,146 L 39,146 L 39,147 L 39,148 L 39,149 L 39,150 L 39,151 L 39,152 L 39,153 L 39,154 L 40,154 L 41,154 L 42,155 L 41,156 L 41,157 L 41,158 L 42,159 L 42,160 L 43,161 L 43,162 L 44,162 L 45,162 L 46,161 L 47,162 L 48,163 L 47,164 L 46,165 L 46,166 L 47,167 L 48,168 L 49,169 L 50,170 L 51,170 L 52,170 L 53,169 L 54,170 L 54,171 L 54,172 L 54,173 L 55,173 L 56,174 L 57,174 L 58,175 L 59,175 L 60,175 L 61,175 L 61,174 L 62,173 L 63,172 L 64,173 L 64,174 L 64,175 L 65,175 L 66,175 L 67,175 L 68,175 L 69,175 L 70,175 L 71,175 L 71,174 L 71,173 L 72,172 L 73,173 L 73,174 L 73,175 L 74,175 L 75,175 L 76,175 L 77,174 L 78,174 L 79,174 L 80,173 L 81,173 L 81,172 L 81,171 L 80,170 L 80,169 L 81,168 L 82,169 L 83,170 L 84,170 L 85,170 L 86,169 L 87,168 L 88,167 L 89,166 L 89,165 L 88,164 L 87,163 L 88,162 L 89,162 L 90,163 L 91,163 L 92,163 L 93,162 L 93,161 L 94,160 L 94,159 L 95,158 L 95,157 L 95,156 L 94,156 L 93,155 L 92,154 L 93,153 L 94,153 L 95,153 L 96,153 L 96,152 L 96,151 L 97,150 L 97,149 L 97,148 L 97,147 L 97,146 L 96,146 L 95,146 L 94,146 L 93,145 L 94,144 L 95,144 L 96,144 L 97,144 L 97,143 L 97,142 L 97,141 L 97,140 L 96,139 L 96,138 L 96,137 L 95,137 L 94,137 L 93,137 L 92,137 L 91,136 L 92,135 L 93,135 L 94,134 L 94,133 L 94,132 L 93,131 L 92,130 L 92,129 L 91,128 L 90,128 L 89,128 L 88,127 L 88,126 L 88,125 L 87,124 L 86,124 L 85,123 L 84,122 L 83,122 L 82,122 L 81,123 L 80,122 L 80,121 L 80,120 L 79,120 L 78,120 L 77,119 L 76,119 L 75,119 L 74,119 L 73,119 L 73,120 L 72,121 L 71,120 L 71,119 L 70,119 L 69,119 L 68,119 L 67,119 L 66,119 L 65,119 L 64,119 L 64,120 L 64,121 L 63,122 L 62,121 L 62,120 L 62,119 L 61,119 L 60,119 L 59,119 Z M 53,169 L 54,168 L 55,169 L 54,170 Z"
		stroke="white" fill="white" fill_rule="evenodd" />
	<path
		d="M 63,130 L 64,129 L 65,129 L 66,129 L 67,129 L 68,129 L 69,129 L 70,129 L 71,129 L 72,130 L 73,130 L 74,130 L 75,131 L 76,131 L 77,132 L 78,133 L 79,134 L 80,135 L 81,136 L 82,137 L 83,138 L 83,139 L 84,140 L 84,141 L 84,142 L 85,143 L 85,144 L 85,145 L 85,146 L 85,147 L 85,148 L 85,149 L 85,150 L 84,151 L 84,152 L 84,153 L 83,154 L 83,155 L 82,156 L 81,157 L 81,158 L 80,159 L 79,160 L 78,160 L 77,161 L 76,162 L 75,162 L 74,163 L 73,163 L 72,163 L 71,164 L 70,164 L 69,164 L 68,164 L 67,164 L 66,164 L 65,164 L 64,164 L 63,164 L 62,163 L 61,163 L 60,162 L 59,162 L 58,161 L 57,161 L 56,160 L 55,159 L 54,158 L 53,157 L 52,156 L 52,155 L 51,154 L 51,153 L 51,152 L 50,151 L 50,150 L 50,149 L 50,148 L 50,147 L 50,146 L 50,145 L 50,144 L 50,143 L 50,142 L 51,141 L 51,140 L 51,139 L 52,138 L 53,137 L 53,136 L 54,135 L 55,134 L 56,133 L 57,132 L 58,132 L 59,131 L 60,131 L 61,130 L 62,130 Z"
		stroke="white" fill="white" />
	<path d="M 87,128 L 88,127 L 89,128 L 88,129 Z" stroke="white" fill="white" />
	<path
		d="M 116,58 L 115,59 L 114,59 L 113,59 L 112,60 L 111,60 L 110,61 L 109,61 L 108,61 L 108,62 L 108,63 L 108,64 L 107,65 L 106,64 L 105,63 L 104,63 L 103,63 L 102,64 L 101,65 L 100,66 L 99,67 L 98,68 L 97,69 L 97,70 L 97,71 L 98,72 L 97,73 L 96,73 L 95,72 L 94,72 L 93,72 L 92,73 L 92,74 L 91,75 L 91,76 L 90,77 L 89,78 L 89,79 L 88,80 L 88,81 L 88,82 L 89,82 L 90,83 L 91,83 L 92,84 L 91,85 L 90,85 L 89,85 L 88,85 L 87,85 L 86,85 L 86,86 L 86,87 L 86,88 L 86,89 L 85,90 L 85,91 L 85,92 L 85,93 L 85,94 L 85,95 L 85,96 L 86,96 L 87,96 L 88,96 L 89,96 L 90,97 L 90,98 L 89,99 L 88,99 L 87,99 L 86,99 L 85,99 L 85,100 L 85,101 L 85,102 L 85,103 L 85,104 L 85,105 L 86,106 L 86,107 L 86,108 L 86,109 L 86,110 L 87,110 L 88,110 L 89,110 L 90,110 L 91,111 L 91,112 L 90,113 L 89,113 L 88,114 L 87,114 L 87,115 L 87,116 L 88,117 L 88,118 L 89,119 L 90,120 L 90,121 L 91,122 L 91,123 L 92,124 L 93,124 L 94,124 L 95,123 L 96,123 L 97,123 L 98,124 L 98,125 L 97,126 L 96,127 L 96,128 L 96,129 L 97,130 L 98,131 L 99,132 L 100,132 L 101,133 L 102,134 L 103,135 L 104,135 L 105,135 L 106,134 L 107,133 L 108,133 L 109,134 L 108,135 L 108,136 L 108,137 L 108,138 L 108,139 L 109,139 L 110,140 L 111,140 L 112,140 L 113,141 L 114,141 L 115,141 L 116,142 L 117,142 L 118,142 L 119,142 L 119,141 L 119,140 L 120,139 L 120,138 L 121,137 L 122,137 L 123,138 L 123,139 L 123,140 L 123,141 L 123,142 L 123,143 L 124,143 L 125,143 L 126,143 L 127,143 L 128,143 L 129,143 L 130,143 L 131,143 L 132,143 L 133,143 L 133,142 L 133,141 L 133,140 L 133,139 L 133,138 L 134,137 L 135,137 L 136,138 L 136,139 L 137,140 L 137,141 L 137,142 L 138,142 L 139,142 L 140,142 L 141,141 L 142,141 L 143,141 L 144,140 L 145,140 L 146,140 L 147,139 L 148,139 L 148,138 L 148,137 L 148,136 L 147,135 L 147,134 L 147,133 L 148,132 L 149,133 L 149,134 L 150,135 L 151,136 L 152,136 L 153,135 L 154,135 L 155,134 L 156,133 L 157,132 L 158,131 L 159,130 L 160,129 L 160,128 L 160,127 L 159,126 L 158,125 L 158,124 L 158,123 L 159,122 L 160,123 L 161,123 L 162,124 L 163,124 L 164,124 L 165,123 L 165,122 L 166,121 L 167,120 L 167,119 L 168,118 L 169,117 L 169,116 L 169,115 L 168,114 L 167,114 L 166,113 L 165,112 L 164,111 L 165,110 L 166,110 L 167,110 L 168,110 L 169,110 L 170,110 L 171,110 L 171,109 L 171,108 L 171,107 L 171,106 L 172,105 L 172,104 L 172,103 L 172,102 L 172,101 L 172,100 L 172,99 L 171,99 L 170,99 L 169,99 L 168,99 L 167,98 L 167,97 L 168,96 L 169,96 L 170,96 L 171,96 L 172,96 L 172,95 L 172,94 L 172,93 L 172,92 L 172,91 L 172,90 L 171,89 L 171,88 L 171,87 L 171,86 L 171,85 L 170,85 L 169,85 L 168,85 L 167,85 L 166,85 L 165,85 L 164,86 L 163,85 L 163,84 L 164,83 L 165,83 L 166,82 L 167,82 L 168,81 L 168,80 L 168,79 L 167,78 L 167,77 L 166,76 L 165,75 L 165,74 L 164,73 L 164,72 L 163,71 L 162,71 L 161,71 L 160,72 L 159,72 L 158,71 L 159,70 L 159,69 L 159,68 L 158,67 L 157,66 L 156,66 L 155,65 L 154,64 L 153,63 L 152,62 L 151,62 L 150,62 L 149,63 L 148,64 L 147,63 L 147,62 L 147,61 L 147,60 L 146,60 L 145,60 L 144,59 L 143,59 L 142,59 L 141,59 L 140,58 L 139,58 L 138,58 L 137,58 L 136,58 L 136,59 L 136,60 L 135,61 L 134,62 L 133,61 L 133,60 L 133,59 L 133,58 L 132,58 L 131,58 L 130,58 L 129,58 L 128,58 L 127,58 L 126,58 L 125,58 L 124,58 L 123,58 L 122,58 L 122,59 L 122,60 L 122,61 L 121,62 L 120,61 L 120,60 L 119,59 L 119,58 L 118,58 L 117,58 Z M 125,74 L 126,73 L 127,73 L 128,73 L 129,73 L 130,74 L 131,74 L 132,74 L 133,74 L 134,74 L 135,74 L 136,75 L 137,75 L 138,75 L 139,76 L 140,77 L 141,77 L 142,78 L 143,78 L 144,79 L 145,80 L 146,81 L 147,82 L 148,83 L 149,84 L 150,85 L 150,86 L 151,87 L 151,88 L 152,89 L 153,90 L 153,91 L 153,92 L 154,93 L 154,94 L 154,95 L 154,96 L 154,97 L 154,98 L 155,99 L 155,100 L 155,101 L 154,102 L 154,103 L 154,104 L 154,105 L 154,106 L 153,107 L 153,108 L 153,109 L 152,110 L 152,111 L 151,112 L 151,113 L 150,114 L 149,115 L 148,116 L 148,117 L 147,118 L 146,119 L 145,120 L 144,120 L 143,121 L 142,122 L 141,122 L 140,123 L 139,124 L 138,124 L 137,124 L 136,125 L 135,125 L 134,125 L 133,126 L 132,126 L 131,126 L 130,126 L 129,126 L 128,126 L 127,126 L 126,126 L 125,126 L 124,126 L 123,126 L 122,125 L 121,125 L 120,125 L 119,125 L 118,124 L 117,124 L 116,123 L 115,123 L 114,122 L 113,122 L 112,121 L 111,120 L 110,119 L 109,118 L 108,117 L 107,116 L 106,115 L 105,114 L 105,113 L 104,112 L 104,111 L 103,110 L 103,109 L 102,108 L 102,107 L 102,106 L 101,105 L 101,104 L 101,103 L 101,102 L 101,101 L 101,100 L 101,99 L 101,98 L 101,97 L 101,96 L 101,95 L 101,94 L 102,93 L 102,92 L 102,91 L 103,90 L 103,89 L 104,88 L 104,87 L 105,86 L 106,85 L 107,84 L 107,83 L 108,82 L 109,81 L 110,80 L 111,80 L 112,79 L 113,78 L 114,77 L 115,77 L 116,76 L 117,76 L 118,75 L 119,75 L 120,75 L 121,74 L 122,74 L 123,74 L 124,74 Z"
		stroke="white" fill="white" fill_rule="evenodd" />
	<path d="M 97,73 L 98,72 L 99,73 L 98,74 Z" stroke="white" fill="white" />
	<path d="M 157,72 L 158,71 L 159,72 L 158,73 Z" stroke="white" fill="white" />
	<path d="M 146,65 L 147,64 L 148,65 L 147,66 Z" stroke="white" fill="white" />
	<path d="M 107,65 L 108,64 L 109,65 L 108,66 Z" stroke="white" fill="white" />
	<path
		d="M 129,18 L 128,19 L 127,20 L 126,21 L 126,22 L 125,23 L 124,24 L 123,25 L 122,26 L 122,27 L 121,28 L 120,29 L 119,30 L 118,31 L 118,32 L 117,33 L 116,34 L 115,35 L 114,36 L 114,37 L 113,38 L 112,39 L 111,39 L 110,39 L 109,39 L 108,39 L 107,39 L 106,39 L 105,39 L 104,39 L 103,39 L 102,39 L 101,39 L 100,39 L 99,39 L 98,39 L 97,39 L 96,39 L 95,39 L 94,39 L 93,39 L 92,39 L 91,39 L 90,39 L 89,39 L 88,39 L 87,39 L 86,39 L 85,39 L 84,39 L 83,39 L 82,39 L 81,39 L 80,39 L 79,39 L 78,39 L 77,39 L 76,39 L 75,39 L 74,39 L 73,39 L 72,39 L 71,39 L 70,39 L 69,39 L 68,39 L 67,39 L 66,39 L 65,39 L 64,39 L 63,39 L 62,39 L 61,39 L 60,39 L 59,39 L 58,39 L 57,39 L 56,39 L 55,39 L 54,39 L 53,39 L 52,39 L 51,39 L 50,39 L 49,39 L 48,39 L 47,39 L 46,39 L 45,39 L 44,39 L 43,39 L 42,39 L 41,39 L 40,39 L 39,39 L 38,39 L 37,39 L 36,39 L 35,39 L 34,39 L 33,39 L 32,39 L 31,39 L 30,39 L 29,39 L 28,39 L 27,39 L 26,39 L 25,39 L 24,39 L 23,39 L 22,39 L 21,39 L 20,39 L 19,39 L 18,39 L 18,40 L 18,41 L 18,42 L 18,43 L 18,44 L 18,45 L 18,46 L 18,47 L 18,48 L 18,49 L 18,50 L 18,51 L 18,52 L 18,53 L 18,54 L 18,55 L 18,56 L 18,57 L 18,58 L 18,59 L 18,60 L 18,61 L 18,62 L 18,63 L 18,64 L 18,65 L 18,66 L 18,67 L 18,68 L 18,69 L 18,70 L 18,71 L 18,72 L 18,73 L 18,74 L 18,75 L 18,76 L 18,77 L 18,78 L 18,79 L 18,80 L 18,81 L 18,82 L 18,83 L 18,84 L 18,85 L 18,86 L 18,87 L 18,88 L 18,89 L 18,90 L 18,91 L 18,92 L 18,93 L 18,94 L 18,95 L 18,96 L 18,97 L 18,98 L 18,99 L 18,100 L 18,101 L 18,102 L 18,103 L 18,104 L 18,105 L 18,106 L 18,107 L 18,108 L 18,109 L 18,110 L 18,111 L 18,112 L 18,113 L 18,114 L 18,115 L 18,116 L 18,117 L 18,118 L 18,119 L 18,120 L 18,121 L 18,122 L 18,123 L 18,124 L 18,125 L 18,126 L 18,127 L 18,128 L 18,129 L 18,130 L 18,131 L 18,132 L 18,133 L 18,134 L 18,135 L 18,136 L 18,137 L 18,138 L 18,139 L 18,140 L 18,141 L 18,142 L 18,143 L 18,144 L 18,145 L 18,146 L 18,147 L 18,148 L 18,149 L 18,150 L 18,151 L 18,152 L 18,153 L 18,154 L 18,155 L 18,156 L 18,157 L 18,158 L 18,159 L 18,160 L 18,161 L 18,162 L 18,163 L 18,164 L 18,165 L 18,166 L 18,167 L 18,168 L 18,169 L 18,170 L 18,171 L 18,172 L 18,173 L 18,174 L 18,175 L 18,176 L 18,177 L 18,178 L 18,179 L 18,180 L 18,181 L 18,182 L 18,183 L 18,184 L 18,185 L 18,186 L 18,187 L 18,188 L 18,189 L 18,190 L 18,191 L 18,192 L 19,192 L 20,192 L 21,192 L 22,192 L 23,192 L 24,192 L 25,192 L 26,192 L 27,192 L 28,192 L 29,192 L 30,192 L 31,192 L 32,192 L 33,192 L 34,192 L 35,192 L 36,192 L 37,192 L 38,192 L 39,192 L 40,192 L 41,192 L 42,192 L 43,192 L 44,192 L 45,192 L 46,192 L 47,192 L 48,192 L 49,192 L 50,192 L 51,192 L 52,192 L 53,192 L 54,192 L 55,192 L 56,192 L 57,192 L 58,192 L 59,192 L 60,192 L 61,192 L 62,192 L 63,192 L 64,192 L 65,192 L 66,192 L 67,192 L 68,192 L 69,192 L 70,192 L 71,192 L 72,192 L 73,192 L 74,192 L 75,193 L 74,194 L 74,195 L 73,196 L 72,197 L 71,198 L 70,199 L 70,200 L 69,201 L 68,202 L 67,203 L 66,204 L 66,205 L 66,206 L 67,207 L 68,208 L 69,209 L 70,209 L 71,210 L 72,211 L 73,212 L 74,213 L 75,213 L 76,213 L 77,212 L 78,211 L 79,210 L 79,209 L 80,208 L 81,207 L 82,206 L 83,205 L 83,204 L 84,203 L 85,202 L 86,201 L 87,200 L 87,199 L 88,198 L 89,197 L 90,196 L 91,195 L 91,194 L 92,193 L 93,192 L 94,192 L 95,192 L 96,192 L 97,192 L 98,192 L 99,192 L 100,192 L 101,192 L 102,192 L 103,192 L 104,192 L 105,192 L 106,192 L 107,192 L 108,192 L 109,192 L 110,192 L 111,192 L 112,192 L 113,192 L 114,192 L 115,192 L 116,192 L 117,192 L 118,192 L 119,192 L 120,192 L 121,192 L 122,192 L 123,192 L 124,192 L 125,192 L 126,192 L 127,192 L 128,192 L 129,192 L 130,192 L 131,192 L 132,192 L 133,192 L 134,192 L 135,192 L 136,192 L 137,192 L 138,192 L 139,192 L 140,192 L 141,192 L 142,192 L 143,192 L 144,192 L 145,192 L 146,192 L 147,192 L 148,192 L 149,192 L 150,192 L 151,192 L 152,192 L 153,192 L 154,192 L 155,192 L 156,192 L 157,193 L 158,194 L 158,195 L 159,196 L 160,197 L 161,198 L 162,199 L 162,200 L 163,201 L 164,202 L 165,203 L 166,204 L 166,205 L 167,206 L 168,207 L 169,208 L 170,209 L 170,210 L 171,211 L 172,212 L 173,213 L 174,213 L 175,213 L 176,212 L 177,211 L 178,210 L 179,209 L 180,209 L 181,208 L 182,207 L 183,206 L 183,205 L 183,204 L 182,203 L 181,202 L 180,201 L 179,200 L 179,199 L 178,198 L 177,197 L 176,196 L 175,195 L 175,194 L 174,193 L 175,192 L 176,192 L 177,192 L 178,192 L 179,192 L 180,192 L 181,192 L 182,192 L 183,192 L 184,192 L 185,192 L 186,192 L 187,192 L 188,192 L 189,192 L 190,192 L 191,192 L 192,192 L 193,192 L 194,192 L 195,192 L 196,192 L 197,192 L 198,192 L 199,192 L 200,192 L 201,192 L 202,192 L 203,192 L 204,192 L 205,192 L 206,192 L 207,192 L 208,192 L 209,192 L 210,192 L 211,192 L 212,192 L 213,192 L 214,192 L 215,192 L 216,192 L 217,192 L 218,192 L 219,192 L 220,192 L 221,192 L 222,192 L 223,192 L 224,192 L 225,192 L 226,192 L 227,192 L 228,192 L 229,192 L 230,192 L 230,191 L 230,190 L 230,189 L 230,188 L 230,187 L 230,186 L 230,185 L 230,184 L 230,183 L 230,182 L 230,181 L 230,180 L 230,179 L 230,178 L 230,177 L 230,176 L 230,175 L 230,174 L 230,173 L 230,172 L 230,171 L 230,170 L 230,169 L 230,168 L 230,167 L 230,166 L 230,165 L 230,164 L 230,163 L 230,162 L 230,161 L 230,160 L 230,159 L 230,158 L 230,157 L 230,156 L 230,155 L 230,154 L 230,153 L 230,152 L 230,151 L 230,150 L 230,149 L 230,148 L 230,147 L 230,146 L 230,145 L 230,144 L 230,143 L 230,142 L 230,141 L 230,140 L 230,139 L 230,138 L 230,137 L 230,136 L 230,135 L 230,134 L 230,133 L 230,132 L 230,131 L 230,130 L 230,129 L 230,128 L 230,127 L 230,126 L 230,125 L 230,124 L 230,123 L 230,122 L 230,121 L 230,120 L 230,119 L 230,118 L 230,117 L 230,116 L 230,115 L 230,114 L 230,113 L 230,112 L 230,111 L 230,110 L 230,109 L 230,108 L 230,107 L 230,106 L 230,105 L 230,104 L 230,103 L 230,102 L 230,101 L 230,100 L 230,99 L 230,98 L 230,97 L 230,96 L 230,95 L 230,94 L 230,93 L 230,92 L 230,91 L 230,90 L 230,89 L 230,88 L 230,87 L 230,86 L 230,85 L 230,84 L 230,83 L 230,82 L 230,81 L 230,80 L 230,79 L 230,78 L 230,77 L 230,76 L 230,75 L 230,74 L 230,73 L 230,72 L 230,71 L 230,70 L 230,69 L 230,68 L 230,67 L 230,66 L 230,65 L 230,64 L 230,63 L 230,62 L 230,61 L 230,60 L 230,59 L 230,58 L 230,57 L 230,56 L 230,55 L 230,54 L 230,53 L 230,52 L 230,51 L 230,50 L 230,49 L 230,48 L 230,47 L 230,46 L 230,45 L 230,44 L 230,43 L 230,42 L 230,41 L 230,40 L 230,39 L 229,39 L 228,39 L 227,39 L 226,39 L 225,39 L 224,39 L 223,39 L 222,39 L 221,39 L 220,39 L 219,39 L 218,39 L 217,39 L 216,39 L 215,39 L 214,39 L 213,39 L 212,39 L 211,39 L 210,39 L 209,39 L 208,39 L 207,39 L 206,39 L 205,39 L 204,39 L 203,39 L 202,39 L 201,39 L 200,39 L 199,39 L 198,39 L 197,39 L 196,39 L 195,39 L 194,39 L 193,39 L 192,39 L 191,39 L 190,39 L 189,39 L 188,39 L 187,39 L 186,39 L 185,39 L 184,39 L 183,39 L 182,39 L 181,39 L 180,39 L 179,39 L 178,39 L 177,39 L 176,39 L 175,39 L 174,39 L 173,39 L 172,39 L 171,39 L 170,39 L 169,39 L 168,39 L 167,39 L 166,39 L 165,39 L 164,39 L 163,39 L 162,39 L 161,39 L 160,39 L 159,39 L 158,39 L 157,39 L 156,39 L 155,39 L 154,39 L 153,39 L 152,39 L 151,39 L 150,39 L 149,39 L 148,39 L 147,39 L 146,39 L 145,39 L 144,39 L 143,39 L 142,39 L 141,39 L 140,39 L 139,39 L 138,39 L 137,39 L 136,39 L 135,39 L 134,39 L 133,39 L 132,39 L 131,39 L 130,39 L 129,38 L 130,37 L 130,36 L 131,35 L 132,34 L 133,33 L 134,32 L 134,31 L 135,30 L 136,29 L 137,28 L 138,27 L 138,26 L 138,25 L 137,24 L 136,23 L 135,22 L 134,21 L 133,20 L 132,19 L 131,19 L 130,18 Z M 30,53 L 31,52 L 32,52 L 33,52 L 34,52 L 35,52 L 36,52 L 37,52 L 38,52 L 39,52 L 40,52 L 41,52 L 42,52 L 43,52 L 44,52 L 45,52 L 46,52 L 47,52 L 48,52 L 49,52 L 50,52 L 51,52 L 52,52 L 53,52 L 54,52 L 55,52 L 56,52 L 57,52 L 58,52 L 59,52 L 60,52 L 61,52 L 62,52 L 63,52 L 64,52 L 65,52 L 66,52 L 67,52 L 68,52 L 69,52 L 70,52 L 71,52 L 72,52 L 73,52 L 74,52 L 75,52 L 76,52 L 77,52 L 78,52 L 79,52 L 80,52 L 81,52 L 82,52 L 83,52 L 84,52 L 85,52 L 86,52 L 87,52 L 88,52 L 89,52 L 90,52 L 91,52 L 92,52 L 93,52 L 94,52 L 95,52 L 96,52 L 97,52 L 98,52 L 99,52 L 100,52 L 101,52 L 102,52 L 103,52 L 104,52 L 105,52 L 106,52 L 107,52 L 108,52 L 109,52 L 110,52 L 111,52 L 112,52 L 113,52 L 114,52 L 115,52 L 116,52 L 117,52 L 118,52 L 119,52 L 120,52 L 121,52 L 122,52 L 123,52 L 124,52 L 125,52 L 126,52 L 127,52 L 128,52 L 129,52 L 130,52 L 131,52 L 132,52 L 133,52 L 134,52 L 135,52 L 136,52 L 137,52 L 138,52 L 139,52 L 140,52 L 141,52 L 142,52 L 143,52 L 144,52 L 145,52 L 146,52 L 147,52 L 148,52 L 149,52 L 150,52 L 151,52 L 152,52 L 153,52 L 154,52 L 155,52 L 156,52 L 157,52 L 158,52 L 159,52 L 160,52 L 161,52 L 162,52 L 163,52 L 164,52 L 165,52 L 166,52 L 167,52 L 168,52 L 169,52 L 170,52 L 171,52 L 172,52 L 173,52 L 174,52 L 175,52 L 176,52 L 177,52 L 178,52 L 179,52 L 180,52 L 181,52 L 182,52 L 183,52 L 184,52 L 185,52 L 186,52 L 187,52 L 188,52 L 189,52 L 190,52 L 191,52 L 192,52 L 193,52 L 194,52 L 195,52 L 196,52 L 197,52 L 198,52 L 199,52 L 200,52 L 201,52 L 202,52 L 203,52 L 204,52 L 205,52 L 206,52 L 207,52 L 208,52 L 209,52 L 210,52 L 211,52 L 212,52 L 213,52 L 214,52 L 215,52 L 216,52 L 217,53 L 217,54 L 217,55 L 217,56 L 217,57 L 217,58 L 217,59 L 217,60 L 217,61 L 217,62 L 217,63 L 217,64 L 217,65 L 217,66 L 217,67 L 217,68 L 217,69 L 217,70 L 217,71 L 217,72 L 217,73 L 217,74 L 217,75 L 217,76 L 217,77 L 217,78 L 217,79 L 217,80 L 217,81 L 217,82 L 217,83 L 217,84 L 217,85 L 217,86 L 217,87 L 217,88 L 217,89 L 217,90 L 217,91 L 217,92 L 217,93 L 217,94 L 217,95 L 217,96 L 217,97 L 217,98 L 217,99 L 217,100 L 217,101 L 217,102 L 217,103 L 217,104 L 217,105 L 217,106 L 217,107 L 217,108 L 217,109 L 217,110 L 217,111 L 217,112 L 217,113 L 217,114 L 217,115 L 217,116 L 217,117 L 217,118 L 217,119 L 217,120 L 217,121 L 217,122 L 217,123 L 217,124 L 217,125 L 217,126 L 217,127 L 217,128 L 217,129 L 217,130 L 217,131 L 217,132 L 217,133 L 217,134 L 217,135 L 217,136 L 217,137 L 217,138 L 217,139 L 217,140 L 217,141 L 217,142 L 217,143 L 217,144 L 217,145 L 217,146 L 217,147 L 217,148 L 217,149 L 217,150 L 217,151 L 217,152 L 217,153 L 217,154 L 217,155 L 217,156 L 217,157 L 217,158 L 217,159 L 217,160 L 217,161 L 217,162 L 217,163 L 217,164 L 217,165 L 217,166 L 217,167 L 217,168 L 217,169 L 217,170 L 217,171 L 217,172 L 217,173 L 217,174 L 217,175 L 217,176 L 217,177 L 217,178 L 217,179 L 216,180 L 215,180 L 214,180 L 213,180 L 212,180 L 211,180 L 210,180 L 209,180 L 208,180 L 207,180 L 206,180 L 205,180 L 204,180 L 203,180 L 202,180 L 201,180 L 200,180 L 199,180 L 198,180 L 197,180 L 196,180 L 195,180 L 194,180 L 193,180 L 192,180 L 191,180 L 190,180 L 189,180 L 188,180 L 187,180 L 186,180 L 185,180 L 184,180 L 183,180 L 182,180 L 181,180 L 180,180 L 179,180 L 178,180 L 177,180 L 176,180 L 175,180 L 174,180 L 173,180 L 172,180 L 171,180 L 170,180 L 169,180 L 168,180 L 167,180 L 166,180 L 165,180 L 164,180 L 163,180 L 162,180 L 161,180 L 160,180 L 159,180 L 158,180 L 157,180 L 156,180 L 155,180 L 154,180 L 153,180 L 152,180 L 151,180 L 150,180 L 149,180 L 148,180 L 147,180 L 146,180 L 145,180 L 144,180 L 143,180 L 142,180 L 141,180 L 140,180 L 139,180 L 138,180 L 137,180 L 136,180 L 135,180 L 134,180 L 133,180 L 132,180 L 131,180 L 130,180 L 129,180 L 128,180 L 127,180 L 126,180 L 125,180 L 124,180 L 123,180 L 122,180 L 121,180 L 120,180 L 119,180 L 118,180 L 117,180 L 116,180 L 115,180 L 114,180 L 113,180 L 112,180 L 111,180 L 110,180 L 109,180 L 108,180 L 107,180 L 106,180 L 105,180 L 104,180 L 103,180 L 102,180 L 101,180 L 100,180 L 99,180 L 98,180 L 97,180 L 96,180 L 95,180 L 94,180 L 93,180 L 92,180 L 91,180 L 90,180 L 89,180 L 88,180 L 87,180 L 86,180 L 85,180 L 84,180 L 83,180 L 82,180 L 81,180 L 80,180 L 79,180 L 78,180 L 77,180 L 76,180 L 75,180 L 74,180 L 73,180 L 72,180 L 71,180 L 70,180 L 69,180 L 68,180 L 67,180 L 66,180 L 65,180 L 64,180 L 63,180 L 62,180 L 61,180 L 60,180 L 59,180 L 58,180 L 57,180 L 56,180 L 55,180 L 54,180 L 53,180 L 52,180 L 51,180 L 50,180 L 49,180 L 48,180 L 47,180 L 46,180 L 45,180 L 44,180 L 43,180 L 42,180 L 41,180 L 40,180 L 39,180 L 38,180 L 37,180 L 36,180 L 35,180 L 34,180 L 33,180 L 32,180 L 31,180 L 30,179 L 30,178 L 30,177 L 30,176 L 30,175 L 30,174 L 30,173 L 30,172 L 30,171 L 30,170 L 30,169 L 30,168 L 30,167 L 30,166 L 30,165 L 30,164 L 30,163 L 30,162 L 30,161 L 30,160 L 30,159 L 30,158 L 30,157 L 30,156 L 30,155 L 30,154 L 30,153 L 30,152 L 30,151 L 30,150 L 30,149 L 30,148 L 30,147 L 30,146 L 30,145 L 30,144 L 30,143 L 30,142 L 30,141 L 30,140 L 30,139 L 30,138 L 30,137 L 30,136 L 30,135 L 30,134 L 30,133 L 30,132 L 30,131 L 30,130 L 30,129 L 30,128 L 30,127 L 30,126 L 30,125 L 30,124 L 30,123 L 30,122 L 30,121 L 30,120 L 30,119 L 30,118 L 30,117 L 30,116 L 30,115 L 30,114 L 30,113 L 30,112 L 30,111 L 30,110 L 30,109 L 30,108 L 30,107 L 30,106 L 30,105 L 30,104 L 30,103 L 30,102 L 30,101 L 30,100 L 30,99 L 30,98 L 30,97 L 30,96 L 30,95 L 30,94 L 30,93 L 30,92 L 30,91 L 30,90 L 30,89 L 30,88 L 30,87 L 30,86 L 30,85 L 30,84 L 30,83 L 30,82 L 30,81 L 30,80 L 30,79 L 30,78 L 30,77 L 30,76 L 30,75 L 30,74 L 30,73 L 30,72 L 30,71 L 30,70 L 30,69 L 30,68 L 30,67 L 30,66 L 30,65 L 30,64 L 30,63 L 30,62 L 30,61 L 30,60 L 30,59 L 30,58 L 30,57 L 30,56 L 30,55 L 30,54 Z"
		stroke="white" fill="white" fill_rule="evenodd" />
</svg>