<?xml version="1.0" standalone="no"?>
<!DOCTYPE svg PUBLIC "-//W3C//DTD SVG 1.1//EN" "http://www.w3.org/Graphics/SVG/1.1/DTD/svg11.dtd"><svg t="1770776286096"
  class="icon" viewBox="0 0 1024 1024" version="1.1" xmlns="http://www.w3.org/2000/svg" p-id="3806"
  xmlns:xlink="http://www.w3.org/1999/xlink" width="256" height="256">
  <path
    d="M512 1024C230.4 1024 0 793.6 0 512S230.4 0 512 0s512 230.4 512 512-230.4 512-512 512z m0-938.666667C277.333333 85.333333 85.333333 277.333333 85.333333 512s192 426.666667 426.666667 426.666667 426.666667-192 426.666667-426.666667S746.666667 85.333333 512 85.333333z"
    fill="#ffffff" p-id="3807"></path>
  <path
    d="M392.533333 733.866667c-25.6 0-42.666667-17.066667-42.666666-42.666667V332.8c0-25.6 17.066667-42.666667 42.666666-42.666667s42.666667 17.066667 42.666667 42.666667v354.133333c0 25.6-17.066667 46.933333-42.666667 46.933334zM631.466667 733.866667c-25.6 0-42.666667-17.066667-42.666667-42.666667V332.8c0-25.6 17.066667-42.666667 42.666667-42.666667s42.666667 17.066667 42.666666 42.666667v354.133333c0 25.6-21.333333 46.933333-42.666666 46.933334z"
    fill="#ffffff" p-id="3808"></path>
</svg>